<svg id="Layer_1" data-name="Layer 1" xmlns="http://www.w3.org/2000/svg" xmlns:xlink="http://www.w3.org/1999/xlink" viewBox="0 0 1928 1092.5"><defs><style>.cls-1,.cls-17{fill:none;}.cls-2,.cls-7{fill:#c6dd7f;}.cls-2,.cls-3,.cls-4{mix-blend-mode:multiply;}.cls-3,.cls-5{fill:#e9ddb7;}.cls-4,.cls-6{fill:#a6d0e4;}.cls-8{fill:#00427e;}.cls-9{fill:#9ddcf9;opacity:0.4;}.cls-10{fill:lime;}.cls-11{fill:#f7931e;}.cls-12,.cls-27{fill:#fff;}.cls-12,.cls-32{stroke:#c1272d;}.cls-12,.cls-13,.cls-14,.cls-15,.cls-16,.cls-17,.cls-18,.cls-19,.cls-20,.cls-21,.cls-22,.cls-23,.cls-24,.cls-29,.cls-30,.cls-31,.cls-32,.cls-46{stroke-miterlimit:10;}.cls-13{fill:#c69c6d;stroke:#c69c6d;}.cls-13,.cls-14,.cls-21,.cls-32{stroke-width:9px;}.cls-14{fill:#ffadff;stroke:#ffadff;}.cls-15{fill:#762193;stroke:#662d91;}.cls-15,.cls-17,.cls-18,.cls-19,.cls-20{stroke-width:8px;}.cls-16{fill:#0071bc;stroke:#0071bc;stroke-width:15px;}.cls-17{stroke:#f7931e;}.cls-18{fill:url(#Alyssa);}.cls-18,.cls-19{stroke:url(#Alyssa);}.cls-19{fill:url(#Jive);}.cls-20,.cls-21,.cls-22,.cls-51{fill:#ed1e79;}.cls-20,.cls-21,.cls-22{stroke:#fff;}.cls-23,.cls-24,.cls-25{fill:#d5a0e0;}.cls-23,.cls-29,.cls-31{stroke:#603813;}.cls-23,.cls-24,.cls-29,.cls-46{stroke-width:3px;}.cls-24{stroke:#754c24;}.cls-26,.cls-31{fill:#603813;}.cls-28{fill:red;}.cls-29{fill:#00a99d;}.cls-30,.cls-46{stroke:#000;}.cls-32{fill:url(#Golden_Ring);}.cls-33{font-size:25px;font-family:GillSans-UltraBoldCondensed, Gill Sans Ultra Bold Condensed;}.cls-34{letter-spacing:-0.04em;}.cls-35{letter-spacing:-0.03em;}.cls-36{letter-spacing:-0.04em;}.cls-37{letter-spacing:0em;}.cls-38{letter-spacing:0.01em;}.cls-39{letter-spacing:-0.06em;}.cls-40{letter-spacing:-0.02em;}.cls-41{letter-spacing:-0.01em;}.cls-42{letter-spacing:0em;}.cls-43{letter-spacing:-0.04em;}.cls-44{letter-spacing:-0.02em;}.cls-45{letter-spacing:-0.01em;}.cls-46,.cls-49{fill:#c1272d;}.cls-47{fill:blue;}.cls-48{fill:#ff0;}.cls-50{fill:#006837;}</style><pattern id="Alyssa" data-name="Alyssa" x="4" y="9.5" width="144.13" height="138.36" patternUnits="userSpaceOnUse" viewBox="0 0 144.13 138.36"><rect class="cls-1" width="144.13" height="138.36"/><path class="cls-2" d="M211.07,158.52c-11.76-1.38-19.37.35-22.65,3.12-3,2.54-5,5.4-2.25,11.93,2.94,7.09,1.53,14.73-5.53,15.91-6.23,1-10.9-4.84-11.24-12.28-.24-5.18-1.91-8.3-5.54-7.61s-4.63,5.9-3.63,11.76c1.38,8.13,5.53,11.76,6.23,20.23.49,6.06-2.94,13.66-12.46,15-9.3,1.35-15.91-4.32-16.6-10.55-.73-6.59,3.63-10.9,3.11-17.64s-4-10.17-5.87-17.29c-2.77-10.55,1.21-19,7.78-22.66,14.74-8.15,22.83,3.64,36,1.56,10.89-1.73,23.35-18.16,33-19.54,8.23-1.18,13.83,4.67,15,14S221.72,159.78,211.07,158.52Zm-42.19.52a4.15,4.15,0,1,0-4.15,4.15A4.15,4.15,0,0,0,168.88,159Zm49.46-15.39a1.73,1.73,0,1,0-1.73,1.73A1.74,1.74,0,0,0,218.34,143.65Z"/><path class="cls-3" d="M48.83,139.33c0,7.17,4.59,13.82-1,16.34-8.5,3.83-28-14.34-28-36.17,0-12,8.67-19,17.84-19,12.33,0,18,8.17,18,17.5S48.83,131.14,48.83,139.33ZM43.42,134A2.08,2.08,0,1,0,41.35,136,2.08,2.08,0,0,0,43.42,134Z"/><path class="cls-4" d="M123.53,162.83c-7.87,2.74-19.44-15.3-17.67-27,1.24-8.23,7.12-13.19,13.09-14.22,7.52-1.29,12.9,2.6,13.3,7.25.54,6.31-3.63,7.51-4.22,14.95C127.46,150.93,131.72,160,123.53,162.83Zm-3.79-27.51a2.6,2.6,0,1,0-2.59,2.59A2.59,2.59,0,0,0,119.74,135.32Z"/><path class="cls-3" d="M19.39,140.36a2.6,2.6,0,1,1-2.6-2.59A2.6,2.6,0,0,1,19.39,140.36Z"/><path class="cls-4" d="M84.61,132.64c.74,8.1,12.67,7,17.9,14.21,10.52,14.48-1.22,46.37-21.63,46.37-11.74,0-24.21-9.72-24.21-29.22,0-15.83,10.16-21.5,8.25-42.17-1-10.83-12.5-20.34-12.5-34.75C52.42,81.16,56,73.64,64,73.64c7,0,10.82,6,10.82,12.9,0,6.8-5.38,15.74,1.38,19,5.24,2.57,13.21-4.76,19.5-6.75,5.19-1.63,12.38.23,14.75,8.5,2.53,8.88-3.26,14.75-11.6,16.7C92.51,125.5,84,126.2,84.61,132.64Zm-16-30.56a3.29,3.29,0,1,0-3.29,3.29A3.3,3.3,0,0,0,68.63,102.08Zm26,9.7a2.33,2.33,0,1,0-2.33-2.33A2.34,2.34,0,0,0,94.61,111.78Zm-20,59.67a3.29,3.29,0,1,0-3.29,3.28A3.29,3.29,0,0,0,74.63,171.45Z"/><path class="cls-2" d="M66.94,158.52c-11.76-1.38-19.37.35-22.65,3.12-3,2.54-5,5.4-2.25,11.93,2.94,7.09,1.53,14.73-5.53,15.91-6.23,1-10.9-4.84-11.24-12.28-.24-5.18-1.91-8.3-5.54-7.61s-4.63,5.9-3.63,11.76c1.38,8.13,5.54,11.76,6.23,20.23.49,6.06-2.94,13.66-12.45,15C.57,218-6,212.31-6.73,206.08c-.73-6.59,3.63-10.9,3.12-17.64s-4-10.17-5.88-17.29c-2.77-10.55,1.21-19,7.78-22.66,14.74-8.15,22.83,3.64,36,1.56,10.89-1.73,23.35-18.16,33-19.54,8.23-1.18,13.83,4.67,15,14S77.59,159.78,66.94,158.52ZM24.75,159a4.15,4.15,0,1,0-4.15,4.15A4.15,4.15,0,0,0,24.75,159Zm49.46-15.39a1.73,1.73,0,1,0-1.73,1.73A1.74,1.74,0,0,0,74.21,143.65Z"/><path class="cls-4" d="M190.32,112c0,6.22-4.15,10.72-8.65,11.58s-8.31-1.28-13,1.21c-4.84,2.6-7.09,11.07-16.77,11.07-8,0-15.22-7.95-15.22-18.85,0-20.23,13.14-29.22,25.6-29.22C178.91,87.78,190.32,100.4,190.32,112ZM170.61,97.63a3.81,3.81,0,1,0-3.81,3.81A3.81,3.81,0,0,0,170.61,97.63Z"/><path class="cls-2" d="M211.07,20.16c-11.76-1.38-19.37.35-22.65,3.11-3,2.55-5,5.41-2.25,11.93,2.94,7.1,1.53,14.74-5.53,15.91-6.23,1-10.9-4.84-11.24-12.27-.24-5.19-1.91-8.3-5.54-7.61s-4.63,5.9-3.63,11.76c1.38,8.12,5.53,11.76,6.23,20.23.49,6.06-2.94,13.66-12.46,15-9.3,1.35-15.91-4.33-16.6-10.55-.73-6.59,3.63-10.9,3.11-17.64s-4-10.17-5.87-17.3c-2.77-10.54,1.21-19,7.78-22.65,14.74-8.15,22.83,3.64,36,1.56,10.89-1.73,23.35-18.16,33-19.55,8.23-1.17,13.83,4.67,15,14S221.72,21.41,211.07,20.16Zm-42.19.52a4.15,4.15,0,1,0-4.15,4.15A4.15,4.15,0,0,0,168.88,20.68ZM218.34,5.29A1.73,1.73,0,1,0,216.61,7,1.73,1.73,0,0,0,218.34,5.29Z"/><path class="cls-4" d="M31.83,83.64c-13.95,2-21.16-13.33-17.66-20.33,3.66-7.34,12.12-4.17,19.5-4.17,9.66,0,16.36-7.57,20.41-2.25C58.33,62.47,49.07,81.18,31.83,83.64Zm.53-17.48a2.25,2.25,0,1,0-2.25,2.25A2.25,2.25,0,0,0,32.36,66.16Z"/><path class="cls-3" d="M48.83,1c0,7.17,4.59,13.82-1,16.34-8.5,3.83-28-14.34-28-36.17,0-12,8.67-19,17.84-19,12.33,0,18,8.17,18,17.5S48.83-7.22,48.83,1ZM43.42-4.4a2.07,2.07,0,0,0-2.07-2.07A2.08,2.08,0,0,0,39.27-4.4a2.08,2.08,0,0,0,2.08,2.08A2.08,2.08,0,0,0,43.42-4.4Z"/><path class="cls-4" d="M46.19,112c0,6.22-4.15,10.72-8.64,11.58s-8.32-1.28-13,1.21c-4.84,2.6-7.09,11.07-16.77,11.07-8,0-15.22-7.95-15.22-18.85,0-20.23,13.14-29.22,25.6-29.22C34.78,87.78,46.19,100.4,46.19,112ZM26.48,97.63a3.81,3.81,0,1,0-3.81,3.81A3.81,3.81,0,0,0,26.48,97.63Z"/><path class="cls-2" d="M45.5,88.3a2.42,2.42,0,1,1-2.42-2.43A2.42,2.42,0,0,1,45.5,88.3Z"/><path class="cls-4" d="M129.2,69.79c-3.19,4.68,1,10.72-1.38,15.22s-6.75,5-9.86,2.6c-3.64-2.83-3.41-6.65-8.3-8.83-5.53-2.46-18,2.25-19.72-7.26-.87-4.81,2.38-8.57,7.27-9.68,6.05-1.39,9.35-.18,15.39-3.12s11.24-9,22.13-12.1c10.41-3,16.08,1.56,16.61,5.88C152.37,61,134.21,62.45,129.2,69.79ZM127,62.36a2.25,2.25,0,1,0-2.25,2.24A2.24,2.24,0,0,0,127,62.36Z"/><path class="cls-3" d="M156.17,109c0,17.17-14.5,25.5-27,22.83-10.27-2.19-12.84-17.33-16.67-26.16-3.72-8.56-8.83-22.5-20.17-22.5-11.19,0-12.83,14.5-23.66,14.5-11,0-24.5-15.67-24.5-39.67C44.17,43.31,54,26.52,65,27.31,76.67,28.14,69.5,47,80.33,47c9.5,0,7.86-16.26,9.17-23.33,1.67-9,6.83-14.17,18.5-13.17,14.44,1.24,22.33,13.5,18.87,23.35-4,11.45-23.87,17.32-21.54,30.49,1.35,7.59,13,12,26,16.16C145.86,85.13,156.17,91.8,156.17,109Zm-45-75.84a3.29,3.29,0,1,0,3.29-3.29A3.3,3.3,0,0,0,111.21,33.13ZM64.52,58a1.73,1.73,0,1,0-1.73,1.73A1.73,1.73,0,0,0,64.52,58ZM82,68.75a3.81,3.81,0,1,0-3.81,3.81A3.8,3.8,0,0,0,82,68.75Zm19.89-15.56a1.56,1.56,0,1,0-1.56,1.56A1.56,1.56,0,0,0,101.88,53.19Zm29.64,54.69a3.18,3.18,0,1,0-3.17,3.18A3.17,3.17,0,0,0,131.52,107.88Z"/><path class="cls-4" d="M123.53,24.47c-7.87,2.73-19.44-15.3-17.67-27C107.1-10.78,113-15.74,119-16.77c7.52-1.3,12.9,2.6,13.3,7.24.54,6.31-3.63,7.52-4.22,15C127.46,12.57,131.72,21.62,123.53,24.47ZM119.74-3a2.6,2.6,0,0,0-2.59-2.6,2.6,2.6,0,0,0-2.6,2.6,2.59,2.59,0,0,0,2.6,2.59A2.59,2.59,0,0,0,119.74-3Z"/><path class="cls-3" d="M19.39,2a2.6,2.6,0,1,1-2.6-2.59A2.61,2.61,0,0,1,19.39,2Z"/><path class="cls-3" d="M153.38,88.74c0-8.41-5.07-15.23-11.34-15.23S130.7,80.33,130.7,88.74s5.08,12.44,11.34,12.44S153.38,97.15,153.38,88.74Z"/><path class="cls-4" d="M84.61-5.72c.74,8.1,12.67,7,17.9,14.21C113,23,101.29,54.86,80.88,54.86c-11.74,0-24.21-9.72-24.21-29.22,0-15.84,10.16-21.5,8.25-42.17-1-10.83-12.5-20.34-12.5-34.75C52.42-57.2,56-64.72,64-64.72c7,0,10.82,5.95,10.82,12.9,0,6.79-5.38,15.74,1.38,19,5.24,2.57,13.21-4.77,19.5-6.75,5.19-1.63,12.38.23,14.75,8.5,2.53,8.88-3.26,14.75-11.6,16.7C92.51-12.86,84-12.16,84.61-5.72Zm-16-30.56a3.29,3.29,0,0,0-3.29-3.29,3.29,3.29,0,0,0-3.29,3.29A3.29,3.29,0,0,0,65.34-33,3.29,3.29,0,0,0,68.63-36.28Zm26,9.69a2.33,2.33,0,0,0,2.33-2.33,2.33,2.33,0,0,0-2.33-2.32,2.32,2.32,0,0,0-2.33,2.32A2.33,2.33,0,0,0,94.61-26.59Zm-20,59.68a3.29,3.29,0,1,0-3.29,3.28A3.29,3.29,0,0,0,74.63,33.09Z"/><path class="cls-2" d="M66.94,20.16c-11.76-1.38-19.37.35-22.65,3.11-3,2.55-5,5.41-2.25,11.93,2.94,7.1,1.53,14.74-5.53,15.91-6.23,1-10.9-4.84-11.24-12.27-.24-5.19-1.91-8.3-5.54-7.61S15.1,37.13,16.1,43c1.38,8.12,5.54,11.76,6.23,20.23.49,6.06-2.94,13.66-12.45,15C.57,79.62-6,73.94-6.73,67.72c-.73-6.59,3.63-10.9,3.12-17.64s-4-10.17-5.88-17.3c-2.77-10.54,1.21-19,7.78-22.65C13,2,21.12,13.77,34.26,11.69,45.15,10,57.61-6.47,67.29-7.86c8.23-1.17,13.83,4.67,15,14S77.59,21.41,66.94,20.16Zm-42.19.52a4.15,4.15,0,1,0-4.15,4.15A4.15,4.15,0,0,0,24.75,20.68ZM74.21,5.29A1.73,1.73,0,1,0,72.48,7,1.73,1.73,0,0,0,74.21,5.29Z"/><path class="cls-2" d="M130.24,42.47a1.39,1.39,0,1,1-1.39-1.39A1.38,1.38,0,0,1,130.24,42.47Z"/><path class="cls-5" d="M135.77,4.08a2.25,2.25,0,1,1-2.25-2.25A2.25,2.25,0,0,1,135.77,4.08Z"/><path class="cls-6" d="M52.24,27.25A1.21,1.21,0,1,1,51,26,1.21,1.21,0,0,1,52.24,27.25Z"/><path class="cls-6" d="M48.61,95.73a1.38,1.38,0,1,1-1.38-1.38A1.38,1.38,0,0,1,48.61,95.73Z"/><path class="cls-3" d="M133.18,73.77A1.21,1.21,0,1,1,132,72.56,1.21,1.21,0,0,1,133.18,73.77Z"/><path class="cls-7" d="M95.89,91.69a3.41,3.41,0,1,1-3.41-3.4A3.41,3.41,0,0,1,95.89,91.69Z"/><path class="cls-3" d="M100.87,131.55a2.1,2.1,0,1,1-2.1-2.1A2.1,2.1,0,0,1,100.87,131.55Z"/><path class="cls-3" d="M62.07,125.25a1.58,1.58,0,1,1-1.58-1.57A1.58,1.58,0,0,1,62.07,125.25Z"/><circle class="cls-7" cx="133.12" cy="11.21" r="2.62"/><circle class="cls-4" cx="123.15" cy="46.07" r="2.36"/><path class="cls-5" d="M27.72,52.63A2.62,2.62,0,1,1,25.1,50,2.62,2.62,0,0,1,27.72,52.63Z"/><path class="cls-4" d="M22.74,45.55a1.31,1.31,0,1,1-1.31-1.31A1.31,1.31,0,0,1,22.74,45.55Z"/><path class="cls-3" d="M87,97.46a1.57,1.57,0,1,1-1.57-1.57A1.57,1.57,0,0,1,87,97.46Z"/><path class="cls-4" d="M-14.93,69.79c-3.19,4.68,1,10.72-1.38,15.22s-6.75,5-9.86,2.6c-3.64-2.83-3.41-6.65-8.3-8.83-5.53-2.46-18,2.25-19.72-7.26-.87-4.81,2.38-8.57,7.27-9.68,6.05-1.39,9.35-.18,15.39-3.12s11.24-9,22.13-12.1C1,43.64,6.68,48.18,7.21,52.5,8.24,61-9.92,62.45-14.93,69.79Zm-2.25-7.43a2.24,2.24,0,0,0-2.25-2.25,2.24,2.24,0,0,0-2.24,2.25,2.24,2.24,0,0,0,2.24,2.24A2.24,2.24,0,0,0-17.18,62.36Z"/><path class="cls-3" d="M12,109c0,17.17-14.5,25.5-27,22.83-10.27-2.19-12.84-17.33-16.67-26.16-3.71-8.56-8.83-22.5-20.17-22.5s-12.83,14.5-23.66,14.5C-86.46,97.64-100,82-100,58c0-14.66,9.8-31.45,20.83-30.66C-67.46,28.14-74.63,47-63.8,47c9.5,0,7.86-16.26,9.17-23.33,1.67-9,6.83-14.17,18.5-13.17C-21.69,11.71-13.8,24-17.26,33.82c-4,11.45-23.87,17.32-21.54,30.49,1.35,7.59,13,12,26,16.16C1.73,85.13,12,91.8,12,109ZM-32.91,33.13a3.29,3.29,0,0,0,3.28,3.29,3.3,3.3,0,0,0,3.29-3.29,3.29,3.29,0,0,0-3.29-3.29A3.28,3.28,0,0,0-32.91,33.13ZM-79.61,58a1.73,1.73,0,0,0-1.73-1.73A1.74,1.74,0,0,0-83.07,58a1.73,1.73,0,0,0,1.73,1.73A1.72,1.72,0,0,0-79.61,58Zm17.47,10.72A3.8,3.8,0,0,0-65.95,65a3.8,3.8,0,0,0-3.8,3.8,3.8,3.8,0,0,0,3.8,3.81A3.8,3.8,0,0,0-62.14,68.75Zm19.89-15.56a1.56,1.56,0,0,0-1.56-1.56,1.56,1.56,0,0,0-1.56,1.56,1.56,1.56,0,0,0,1.56,1.56A1.56,1.56,0,0,0-42.25,53.19Zm29.64,54.69a3.17,3.17,0,0,0-3.17-3.17A3.17,3.17,0,0,0-19,107.88a3.18,3.18,0,0,0,3.18,3.18A3.17,3.17,0,0,0-12.61,107.88Z"/><path class="cls-3" d="M9.26,88.74c0-8.41-5.08-15.23-11.34-15.23s-11.34,6.82-11.34,15.23,5.07,12.44,11.34,12.44S9.26,97.15,9.26,88.74Z"/></pattern><pattern id="Jive" data-name="Jive" x="4" y="9.5" width="108.34" height="109.64" patternUnits="userSpaceOnUse" viewBox="0 0 108.34 109.64"><rect class="cls-1" width="108.34" height="109.64"/><path class="cls-8" d="M87.47,144.34a.27.27,0,0,1,.25-.21c12.91-.14,24.75-3.27,34-11.52-8,5.56-22.94,7.51-31.52,3.62a.25.25,0,0,1,.11-.48c10.68.29,19.28-3,26-9-6.87-.42-12.57-4.74-12.55-9.84a.26.26,0,0,1,.2-.25.27.27,0,0,1,.28.14c1.12,2.49,4.75,3.79,8.58,2.88,4.18-1,7-4.18,6.3-7.16-.47-2-2.43-3.4-4.95-3.79a.26.26,0,0,1-.22-.26.27.27,0,0,1,.23-.24,17.53,17.53,0,0,1,3.32,0c6.49.62,11.52,4.6,12,9.18,4.71-.55,8.89-3.16,10.38-6.77a.25.25,0,0,1,.27-.16.26.26,0,0,1,.22.23c.37,4.75-1.26,7.84-5,10.86a21.8,21.8,0,0,1,17.25.53.26.26,0,0,1,.15.28.28.28,0,0,1-.24.21,16.26,16.26,0,0,0-11.74,5.07c18.26-5.13,33.09,6.2,28,23.05a.26.26,0,0,1-.27.18.26.26,0,0,1-.23-.23c-.91-9.71-7.7-16.11-17.86-17.07a17.45,17.45,0,0,1,11.56,15.53.25.25,0,0,1-.19.26.27.27,0,0,1-.3-.14,16.74,16.74,0,0,0-14.16-9.81c6.34,2.58,10.4,8.6,11.57,16.42a.25.25,0,0,1-.17.28.25.25,0,0,1-.3-.13c-3.87-7.58-12.16-12.79-22.45-8.81-10.62,4.11-15.27,16.39-16.3,25a.26.26,0,0,1-.24.22.25.25,0,0,1-.26-.19c-3.72-15.69,3.58-31.95,16.64-38.84-7.1,2-13.44,6.26-17,13.35-8.3,1-14,3.87-16.86,9.24a.25.25,0,0,1-.29.13.27.27,0,0,1-.19-.27c.19-2.11.94-6.33,4.08-8.27-7,0-12.51-.89-17.8-3A.26.26,0,0,1,87.47,144.34ZM117,197.81a.24.24,0,0,0-.31,0,.25.25,0,0,0-.05.31c1.62,2.8.14,6.82-3,6.82-5.72,0-8.47-10.77-7.6-20.59,2.17,5.75,4,8,7.35,10.79a.24.24,0,0,0,.32,0,.25.25,0,0,0,.07-.31,46.53,46.53,0,0,1-5.9-24.09c1.46,6,3.19,9.32,8.13,14.38a.24.24,0,0,0,.32,0,.25.25,0,0,0,.09-.31,44.24,44.24,0,0,1-1-34.27.25.25,0,0,0-.06-.28.26.26,0,0,0-.29,0c-5.2,2.55-8.26,4.23-12.75,10.39,1.36,7.4.23,11.05-3.17,17.2,3.94-9.92,1.84-23.9-8.19-29.6a.25.25,0,0,0-.32.07.26.26,0,0,0,0,.33,17.92,17.92,0,0,1,4.16,17.93c1.53-10.39-7.6-19.12-17.78-19.12-9.6,0-16.15,7.51-15.61,14.94s5.44,11,9.67,12.5a.25.25,0,0,0,.3-.1.26.26,0,0,0,0-.32c-5.61-5.69-6.38-16.49,3.58-19.76-5.86,5.06-3.69,16.83,5.69,17.73a.26.26,0,0,0,.27-.17.27.27,0,0,0-.11-.3,8,8,0,0,1-3.68-6.57c0-4.68,3.43-6.51,5.68-6.51,3.42,0,6.26,3.25,6.26,8.18,0,5.84-5.26,10.68-12,11.43s-12.78-2.15-15.75-6.46a.25.25,0,0,0-.31-.08.24.24,0,0,0-.14.29,17.14,17.14,0,0,0,26.88,9.51c-6.61,7.5-17,7.6-25.72-.09a.26.26,0,0,0-.32,0,.24.24,0,0,0-.07.31c2.66,5.41,9.25,11.82,18.6,10.89,8.56-.86,13.52-9,14.53-15.69.55,8.52-1.4,14.53-8.76,20.14a.25.25,0,0,0-.07.32.26.26,0,0,0,.3.13c6.78-2,12.23-5.43,15-12.55,0,6.17-2.14,12.38-7.53,16.52a.24.24,0,0,0-.07.31.25.25,0,0,0,.29.13c3.46-1,6.17-2.49,8.14-5.18,1.31,11.1,6.52,17.69,12.53,17.69,4.12,0,7.2-3,7.2-7.87A11.36,11.36,0,0,0,117,197.81Zm99.23-91.62c-3.17-3.91-9.54-5.4-16.44-4a22.71,22.71,0,0,0-1.61-11.49.25.25,0,0,0-.48.12c.37,8.77-4.62,15.85-13.45,18.91,6.91-4.75,8.93-14.19,5.64-19.06a.25.25,0,0,0-.31-.09.25.25,0,0,0-.15.28c.37,2.06-.61,4.68-2.72,6.72-2.9,2.82-6.84,3.45-8.81,1.43s-1.19-6,1.71-8.76A9.58,9.58,0,0,1,183,88.08a.28.28,0,0,0,.17-.28.26.26,0,0,0-.23-.22c-6.39-.55-10.77,3.25-13.52,7.88s-7.57,8.41-13.21,7.67a.26.26,0,0,0-.27.17.24.24,0,0,0,.11.3,11,11,0,0,0,9.86,1.05c-5.79,4.91-14.05,7.74-21.84,5.23a.25.25,0,0,0-.29.1.26.26,0,0,0,0,.31c5.9,6.57,17.69,6.7,25.11,1.37-3,4.32-7.07,7.49-14.3,8.48a.28.28,0,0,0-.22.23.26.26,0,0,0,.17.26c8.29,3.08,16.6,0,23.44-8.21a26.35,26.35,0,0,1-14.76,14,.25.25,0,0,0-.17.28.26.26,0,0,0,.25.21c3.94.08,7.48-.86,12.26-3.57C172.1,129,172.87,139,178,145.61a.27.27,0,0,0,.3.08.26.26,0,0,0,.15-.28c-1.18-7.2,1.3-15.33,5.61-19.64a18.18,18.18,0,0,0,5.9,19.64.26.26,0,0,0,.25.05.28.28,0,0,0,.17-.21c1.23-9.41,11.77-19,20.6-19.77a.25.25,0,0,0,0-.5,20.83,20.83,0,0,0-12.39,1,21.87,21.87,0,0,1,9.56-6.25.25.25,0,0,0-.06-.49,20.37,20.37,0,0,0-12.73,3.54A31.44,31.44,0,0,1,214.8,109.3.25.25,0,0,0,215,109a.24.24,0,0,0-.22-.24c-11.92-1.3-21.75,3.32-28.22,11.92,1.64-4.9,6.36-9.76,12.94-12.62,5.85-2.55,11.85-2.95,16.42-1.51a.27.27,0,0,0,.29-.1A.26.26,0,0,0,216.19,106.19Zm-52.91,75.57c4.81-10.49,4.47-18.69.6-29a.26.26,0,0,0-.5.1c.63,12.62-2.82,21.65-10.29,27.8,8.25-9.85,4.35-29.56-8.83-29.56-9.58,0-17.51,8-19.45,17.53a.25.25,0,0,0,.16.29.26.26,0,0,0,.31-.11c2.84-4.76,7.4-7.85,12.45-7.85,8.14,0,10.54,6.46,10.54,11,0,6.18-4.92,11.34-8.7,11.34a4.93,4.93,0,0,1-5-4.93,8.86,8.86,0,0,1,6.37-8.16.26.26,0,0,0,.18-.28.25.25,0,0,0-.25-.22,10.47,10.47,0,0,0-9.63,5.57,17.4,17.4,0,0,1,.64-7.72.25.25,0,0,0-.12-.3.25.25,0,0,0-.32.07c-7.36,9.39-3.84,25.62,2,32.35-5.53-4-10.42-12.63-10.34-24.39a.25.25,0,0,0-.21-.25.24.24,0,0,0-.28.15c-4.11,10.26-1.93,29.25,9.28,39.86a20.19,20.19,0,0,1-9.12-.7.27.27,0,0,0-.3.12.25.25,0,0,0,.06.32c4.09,3.46,9.81,4.54,15.26,4.54-4.69-5.5-3.13-16.55,4.36-16.55,5.35,0,7.77,8.3,3.64,12.78a.27.27,0,0,0,0,.31.25.25,0,0,0,.3.1c4.78-1.65,9.94-5.79,9.94-11,0-5-4.81-9.39-11.8-9.05,8.82-2.5,18,.27,22.88,6.26a.25.25,0,0,0,.31.06.24.24,0,0,0,.13-.29c-2.79-10.71-12-15.2-23.43-13.7,9.28-3.76,23.25-.48,29.42,7.31a.25.25,0,0,0,.3.07.26.26,0,0,0,.15-.28C172.53,188.66,169,183.71,163.28,181.76Z"/><path class="cls-9" d="M189.67,162.47a.27.27,0,0,1-.25.21c-12.91.14-24.75,3.27-34,11.52,8-5.56,22.94-7.51,31.53-3.62a.28.28,0,0,1,.14.29.27.27,0,0,1-.26.19c-10.68-.29-19.28,3-26,9,6.87.42,12.57,4.74,12.55,9.84a.26.26,0,0,1-.2.25A.26.26,0,0,1,173,190c-1.12-2.48-4.75-3.78-8.58-2.88-4.18,1-7,4.19-6.3,7.17.47,2,2.43,3.4,5,3.79a.26.26,0,0,1,.22.25.27.27,0,0,1-.23.25,17.53,17.53,0,0,1-3.32,0c-6.49-.62-11.51-4.6-11.95-9.18-4.71.55-8.88,3.16-10.38,6.77a.25.25,0,0,1-.49-.07c-.37-4.75,1.26-7.84,5-10.86a21.8,21.8,0,0,1-17.25-.53.26.26,0,0,1,.1-.49,16.26,16.26,0,0,0,11.73-5.07c-18.26,5.13-33.09-6.2-28-23.05a.26.26,0,0,1,.27-.18.26.26,0,0,1,.23.23c.91,9.71,7.7,16.11,17.86,17.07a17.45,17.45,0,0,1-11.56-15.53.25.25,0,0,1,.19-.26.26.26,0,0,1,.3.14,16.74,16.74,0,0,0,14.16,9.81c-6.34-2.58-10.4-8.6-11.57-16.42a.25.25,0,0,1,.17-.28.25.25,0,0,1,.3.13c3.87,7.58,12.16,12.79,22.45,8.81,10.62-4.11,15.27-16.39,16.3-25a.28.28,0,0,1,.24-.23.27.27,0,0,1,.26.2c3.72,15.69-3.58,31.95-16.63,38.84,7.09-2,13.44-6.26,17-13.35,8.3-1,14-3.87,16.86-9.24a.25.25,0,0,1,.29-.13.27.27,0,0,1,.19.27c-.19,2.11-.95,6.33-4.08,8.27,7,0,12.51.89,17.8,3A.26.26,0,0,1,189.67,162.47ZM160.18,109a.26.26,0,0,0,.32,0,.27.27,0,0,0,0-.32c-1.62-2.79-.14-6.81,3.05-6.81,5.72,0,8.47,10.77,7.6,20.59-2.16-5.75-4-8-7.35-10.79a.24.24,0,0,0-.32,0,.23.23,0,0,0-.06.31,46.61,46.61,0,0,1,5.89,24.09c-1.46-6-3.19-9.32-8.13-14.38a.24.24,0,0,0-.32,0,.25.25,0,0,0-.09.31,44.22,44.22,0,0,1,.95,34.26.28.28,0,0,0,.06.29.28.28,0,0,0,.29,0c5.2-2.55,8.26-4.23,12.75-10.39-1.36-7.4-.23-11.05,3.17-17.19-3.94,9.91-1.84,23.89,8.19,29.58a.24.24,0,0,0,.32-.06.26.26,0,0,0,0-.33,17.93,17.93,0,0,1-4.16-17.93c-1.53,10.39,7.6,19.12,17.78,19.12,9.6,0,16.15-7.51,15.61-14.94s-5.44-11-9.67-12.5a.25.25,0,0,0-.3.1.24.24,0,0,0,0,.31c5.61,5.7,6.38,16.5-3.58,19.76,5.86-5,3.69-16.82-5.69-17.72a.26.26,0,0,0-.27.17.28.28,0,0,0,.11.3,8,8,0,0,1,3.68,6.57c0,4.67-3.43,6.51-5.68,6.51-3.42,0-6.26-3.25-6.26-8.18,0-5.84,5.26-10.68,12-11.43s12.78,2.15,15.75,6.46a.25.25,0,0,0,.31.08.24.24,0,0,0,.14-.29A17.14,17.14,0,0,0,189.47,125c6.61-7.5,17-7.6,25.72.09a.26.26,0,0,0,.32,0,.25.25,0,0,0,.07-.32c-2.66-5.4-9.25-11.81-18.6-10.88-8.56.86-13.52,9-14.53,15.69-.55-8.52,1.4-14.53,8.76-20.14a.26.26,0,0,0,.07-.32.26.26,0,0,0-.3-.13c-6.78,2-12.23,5.43-15,12.54,0-6.16,2.14-12.37,7.53-16.51a.24.24,0,0,0,.07-.31.25.25,0,0,0-.29-.13c-3.46,1-6.17,2.49-8.14,5.18-1.31-11.1-6.52-17.69-12.53-17.69-4.12,0-7.2,3-7.2,7.87A11.36,11.36,0,0,0,160.18,109ZM61,200.62c3.17,3.91,9.54,5.39,16.43,4A22.7,22.7,0,0,0,79,216.1a.26.26,0,0,0,.29.13.26.26,0,0,0,.19-.26c-.37-8.76,4.62-15.84,13.45-18.9C86,201.82,84,211.26,87.29,216.13a.25.25,0,0,0,.31.09.25.25,0,0,0,.15-.28c-.37-2.06.61-4.68,2.71-6.72,2.91-2.82,6.85-3.45,8.82-1.43s1.19,6-1.71,8.76a9.58,9.58,0,0,1-3.45,2.18A.28.28,0,0,0,94,219a.26.26,0,0,0,.23.22c6.39.55,10.77-3.26,13.52-7.88s7.57-8.41,13.21-7.67a.26.26,0,0,0,.27-.17.24.24,0,0,0-.11-.3,11,11,0,0,0-9.86-1.05c5.79-4.91,14.05-7.74,21.84-5.23a.27.27,0,0,0,.29-.1.26.26,0,0,0,0-.31c-5.9-6.57-17.69-6.7-25.1-1.37,3-4.32,7.06-7.49,14.29-8.48a.28.28,0,0,0,.22-.23.26.26,0,0,0-.17-.26c-8.29-3.08-16.6,0-23.44,8.21a26.35,26.35,0,0,1,14.76-14,.25.25,0,0,0,.17-.28.26.26,0,0,0-.25-.21c-3.94-.08-7.48.86-12.26,3.57,3.51-5.69,2.74-15.64-2.37-22.26a.27.27,0,0,0-.3-.08.26.26,0,0,0-.15.28c1.18,7.2-1.3,15.33-5.61,19.64a18.18,18.18,0,0,0-5.9-19.64.26.26,0,0,0-.25-.05.27.27,0,0,0-.17.2c-1.23,9.42-11.77,19-20.6,19.78a.25.25,0,0,0,0,.5,20.83,20.83,0,0,0,12.39-1A21.76,21.76,0,0,1,69,187a.26.26,0,0,0-.17.28.25.25,0,0,0,.23.22A20.39,20.39,0,0,0,81.77,184a31.44,31.44,0,0,1-19.43,13.51.25.25,0,0,0-.19.26.26.26,0,0,0,.22.24c11.92,1.3,21.75-3.32,28.22-11.92-1.64,4.9-6.36,9.76-12.94,12.62-5.85,2.54-11.85,2.95-16.42,1.51a.27.27,0,0,0-.29.1A.25.25,0,0,0,61,200.62Zm52.91-75.57c-4.81,10.49-4.47,18.68-.6,29.05a.26.26,0,0,0,.5-.1c-.63-12.62,2.82-21.65,10.29-27.8-8.25,9.85-4.35,29.56,8.83,29.56,9.58,0,17.51-8,19.45-17.53a.25.25,0,0,0-.16-.29.24.24,0,0,0-.3.11c-2.85,4.76-7.41,7.85-12.46,7.85-8.14,0-10.54-6.46-10.54-11,0-6.18,4.92-11.34,8.7-11.34a4.94,4.94,0,0,1,5.05,4.93,8.88,8.88,0,0,1-6.38,8.16.25.25,0,0,0-.18.28.26.26,0,0,0,.25.22,10.48,10.48,0,0,0,9.63-5.57,17.4,17.4,0,0,1-.64,7.72.25.25,0,0,0,.12.3.25.25,0,0,0,.32-.07c7.36-9.39,3.84-25.62-2-32.35,5.53,4,10.42,12.63,10.34,24.39a.26.26,0,0,0,.49.1c4.11-10.26,1.93-29.25-9.28-39.86a20.19,20.19,0,0,1,9.12.7.27.27,0,0,0,.3-.12.25.25,0,0,0-.06-.32c-4.09-3.45-9.81-4.54-15.26-4.54,4.7,5.5,3.13,16.55-4.36,16.55-5.34,0-7.77-8.3-3.64-12.78a.27.27,0,0,0,0-.31.25.25,0,0,0-.3-.1c-4.77,1.65-9.94,5.79-9.94,11,0,5,4.81,9.39,11.8,9-8.82,2.5-18.05-.27-22.88-6.26a.25.25,0,0,0-.44.23c2.79,10.71,12,15.2,23.44,13.7-9.29,3.76-23.25.49-29.43-7.31a.26.26,0,0,0-.31-.07.27.27,0,0,0-.14.28C104.61,118.15,108.1,123.09,113.86,125.05Z"/><path class="cls-8" d="M-20.86,144.34a.25.25,0,0,1,.24-.21c12.91-.14,24.76-3.27,34-11.52-8,5.56-22.94,7.51-31.52,3.62a.27.27,0,0,1-.15-.29.26.26,0,0,1,.26-.19c10.68.29,19.28-3,26-9-6.87-.42-12.57-4.74-12.55-9.84a.26.26,0,0,1,.2-.25.27.27,0,0,1,.28.14c1.12,2.49,4.75,3.79,8.58,2.88,4.18-1,7-4.18,6.3-7.16-.47-2-2.43-3.4-4.95-3.79a.25.25,0,0,1,0-.5,17.43,17.43,0,0,1,3.31,0c6.49.62,11.52,4.6,12,9.18,4.71-.55,8.89-3.16,10.38-6.77a.26.26,0,0,1,.28-.16.27.27,0,0,1,.21.23c.38,4.75-1.26,7.84-5,10.86a21.8,21.8,0,0,1,17.25.53.26.26,0,0,1,.15.28.28.28,0,0,1-.24.21,16.22,16.22,0,0,0-11.73,5.07c18.25-5.13,33.08,6.2,28,23.05a.26.26,0,0,1-.27.18.26.26,0,0,1-.23-.23c-.91-9.71-7.7-16.11-17.86-17.07a17.45,17.45,0,0,1,11.56,15.53.25.25,0,0,1-.48.12,16.77,16.77,0,0,0-14.16-9.81c6.33,2.58,10.39,8.6,11.57,16.42a.26.26,0,0,1-.18.28A.25.25,0,0,1,50,156c-3.87-7.58-12.16-12.79-22.45-8.81-10.61,4.11-15.27,16.39-16.3,25a.26.26,0,0,1-.24.22.25.25,0,0,1-.26-.19C7,156.6,14.32,140.34,27.38,133.45c-7.1,2-13.44,6.26-17,13.35-8.29,1-14,3.87-16.86,9.24a.25.25,0,0,1-.29.13A.27.27,0,0,1-7,155.9c.19-2.11,1-6.33,4.08-8.27-7,0-12.51-.89-17.8-3A.24.24,0,0,1-20.86,144.34ZM8.62,197.81a.24.24,0,0,0-.31,0,.25.25,0,0,0-.05.31c1.62,2.8.14,6.82-3,6.82-5.72,0-8.47-10.77-7.6-20.59,2.17,5.75,4,8,7.35,10.79a.24.24,0,0,0,.32,0,.24.24,0,0,0,.07-.31,46.53,46.53,0,0,1-5.9-24.09c1.46,6,3.2,9.32,8.13,14.38a.24.24,0,0,0,.32,0,.25.25,0,0,0,.09-.31,44.29,44.29,0,0,1-1-34.27.25.25,0,0,0-.06-.28.26.26,0,0,0-.29,0c-5.2,2.55-8.26,4.23-12.75,10.39,1.36,7.4.23,11.05-3.17,17.2,3.94-9.92,1.84-23.9-8.19-29.6a.25.25,0,0,0-.32.07.26.26,0,0,0,0,.33,17.88,17.88,0,0,1,4.16,17.93c1.53-10.39-7.59-19.12-17.78-19.12-9.6,0-16.15,7.51-15.61,14.94s5.45,11,9.67,12.5a.25.25,0,0,0,.3-.1.26.26,0,0,0,0-.32c-5.61-5.69-6.38-16.49,3.58-19.76-5.86,5.06-3.69,16.83,5.69,17.73a.26.26,0,0,0,.27-.17.26.26,0,0,0-.11-.3,8,8,0,0,1-3.67-6.57c0-4.68,3.42-6.51,5.67-6.51,3.42,0,6.26,3.25,6.26,8.18,0,5.84-5.26,10.68-12,11.43s-12.78-2.15-15.75-6.46a.25.25,0,0,0-.31-.08.25.25,0,0,0-.14.29,17.15,17.15,0,0,0,26.89,9.51c-6.62,7.5-17,7.6-25.73-.09a.26.26,0,0,0-.32,0,.24.24,0,0,0-.07.31c2.66,5.41,9.25,11.82,18.6,10.89,8.56-.86,13.52-9,14.53-15.69.55,8.52-1.4,14.53-8.76,20.14a.28.28,0,0,0-.07.32.26.26,0,0,0,.3.13c6.78-2,12.23-5.43,15.05-12.55,0,6.17-2.14,12.38-7.53,16.52a.24.24,0,0,0-.07.31.25.25,0,0,0,.29.13c3.46-1,6.18-2.49,8.14-5.18C-5,208.11.22,214.7,6.23,214.7c4.12,0,7.2-3,7.2-7.87A11.36,11.36,0,0,0,8.62,197.81Zm99.23-91.62c-3.16-3.91-9.54-5.4-16.43-4a22.82,22.82,0,0,0-1.61-11.49.28.28,0,0,0-.3-.13.26.26,0,0,0-.19.25c.38,8.77-4.62,15.85-13.45,18.91,6.91-4.75,8.93-14.19,5.64-19.06a.25.25,0,0,0-.46.19c.37,2.06-.61,4.68-2.71,6.72-2.91,2.82-6.85,3.45-8.81,1.43s-1.2-6,1.7-8.76a9.58,9.58,0,0,1,3.45-2.18.26.26,0,0,0,.17-.28.26.26,0,0,0-.23-.22C68.23,87,63.85,90.83,61.1,95.46s-7.57,8.41-13.21,7.67a.26.26,0,0,0-.27.17.26.26,0,0,0,.11.3,11,11,0,0,0,9.86,1.05c-5.79,4.91-14,7.74-21.84,5.23a.25.25,0,0,0-.29.1.26.26,0,0,0,0,.31c5.91,6.57,17.69,6.7,25.11,1.37-3,4.32-7.07,7.49-14.3,8.48a.26.26,0,0,0-.21.23.24.24,0,0,0,.16.26c8.29,3.08,16.6,0,23.44-8.21a26.35,26.35,0,0,1-14.76,14,.25.25,0,0,0-.17.28.26.26,0,0,0,.25.21c3.94.08,7.49-.86,12.26-3.57-3.5,5.69-2.74,15.64,2.37,22.26a.28.28,0,0,0,.31.08.26.26,0,0,0,.14-.28c-1.17-7.2,1.3-15.33,5.61-19.64a18.18,18.18,0,0,0,5.9,19.64.27.27,0,0,0,.26.05.29.29,0,0,0,.16-.21c1.23-9.41,11.77-19,20.6-19.77a.25.25,0,0,0,0-.5,20.83,20.83,0,0,0-12.39,1,21.87,21.87,0,0,1,9.56-6.25.25.25,0,0,0,.18-.27.27.27,0,0,0-.24-.22A20.39,20.39,0,0,0,87,122.81a31.44,31.44,0,0,1,19.43-13.51.27.27,0,0,0,.2-.26.26.26,0,0,0-.23-.24c-11.92-1.3-21.75,3.32-28.22,11.92,1.65-4.9,6.36-9.76,12.94-12.62,5.85-2.55,11.85-2.95,16.43-1.51a.25.25,0,0,0,.27-.4ZM54.94,181.76c4.81-10.49,4.47-18.69.6-29a.27.27,0,0,0-.29-.17.26.26,0,0,0-.2.27c.62,12.62-2.83,21.65-10.3,27.8,8.25-9.85,4.35-29.56-8.83-29.56-9.58,0-17.51,8-19.45,17.53a.26.26,0,0,0,.47.18c2.84-4.76,7.41-7.85,12.45-7.85,8.14,0,10.54,6.46,10.54,11,0,6.18-4.92,11.34-8.7,11.34a4.93,4.93,0,0,1-5-4.93,8.86,8.86,0,0,1,6.37-8.16.26.26,0,0,0,.18-.28.25.25,0,0,0-.25-.22,10.48,10.48,0,0,0-9.63,5.57,17.4,17.4,0,0,1,.64-7.72.24.24,0,0,0-.12-.3.25.25,0,0,0-.32.07c-7.35,9.39-3.83,25.62,2,32.35-5.53-4-10.42-12.63-10.34-24.39a.25.25,0,0,0-.2-.25.26.26,0,0,0-.29.15C10.1,185.4,12.28,204.39,23.49,215a20.2,20.2,0,0,1-9.12-.7.27.27,0,0,0-.3.12.25.25,0,0,0,.06.32c4.09,3.46,9.81,4.54,15.26,4.54-4.69-5.5-3.13-16.55,4.36-16.55,5.35,0,7.77,8.3,3.65,12.78a.26.26,0,0,0,0,.31.25.25,0,0,0,.3.1c4.78-1.65,9.94-5.79,9.94-11,0-5-4.81-9.39-11.8-9.05,8.82-2.5,18,.27,22.88,6.26a.26.26,0,0,0,.45-.23c-2.8-10.71-12-15.2-23.44-13.7,9.28-3.76,23.25-.48,29.42,7.31a.26.26,0,0,0,.31.07.27.27,0,0,0,.14-.28C64.2,188.66,60.7,183.71,54.94,181.76Z"/><path class="cls-9" d="M81.33,162.47a.26.26,0,0,1-.25.21c-12.91.14-24.75,3.27-34,11.52,8-5.56,22.94-7.51,31.53-3.62a.25.25,0,0,1,.14.29.26.26,0,0,1-.26.19c-10.68-.29-19.27,3-26,9,6.87.42,12.57,4.74,12.56,9.84a.26.26,0,0,1-.49.1c-1.12-2.48-4.75-3.78-8.58-2.88-4.18,1-7,4.19-6.3,7.17.47,2,2.44,3.4,5,3.79a.25.25,0,0,1,0,.5,17.53,17.53,0,0,1-3.32,0c-6.49-.62-11.51-4.6-12-9.18-4.71.55-8.88,3.16-10.38,6.77a.25.25,0,0,1-.49-.07c-.37-4.75,1.26-7.84,5-10.86a21.8,21.8,0,0,1-17.25-.53.27.27,0,0,1-.14-.29.26.26,0,0,1,.24-.2,16.24,16.24,0,0,0,11.73-5.07C9.82,184.25-5,172.92.12,156.07a.26.26,0,0,1,.27-.18.26.26,0,0,1,.23.23c.92,9.71,7.7,16.11,17.86,17.07A17.45,17.45,0,0,1,6.92,157.66a.27.27,0,0,1,.19-.26.26.26,0,0,1,.3.14,16.75,16.75,0,0,0,14.16,9.81c-6.34-2.58-10.4-8.6-11.57-16.42a.25.25,0,0,1,.17-.28.25.25,0,0,1,.3.13c3.87,7.58,12.16,12.79,22.45,8.81,10.62-4.11,15.27-16.39,16.3-25a.28.28,0,0,1,.24-.23.26.26,0,0,1,.26.2c3.72,15.69-3.58,31.95-16.63,38.84,7.09-2,13.44-6.26,17-13.35,8.3-1,14-3.87,16.86-9.24a.26.26,0,0,1,.3-.13.27.27,0,0,1,.18.27c-.18,2.11-.94,6.33-4.08,8.27,7,0,12.51.89,17.8,3A.26.26,0,0,1,81.33,162.47ZM51.84,109a.26.26,0,0,0,.32,0,.27.27,0,0,0,0-.32c-1.62-2.79-.14-6.81,3-6.81,5.72,0,8.47,10.77,7.6,20.59-2.16-5.75-4-8-7.35-10.79a.24.24,0,0,0-.32,0,.23.23,0,0,0-.06.31A46.61,46.61,0,0,1,61,136.05c-1.46-6-3.19-9.32-8.12-14.38a.26.26,0,0,0-.33,0,.25.25,0,0,0-.09.31,44.22,44.22,0,0,1,1,34.26.28.28,0,0,0,.06.29.28.28,0,0,0,.29,0C59,154,62,152.31,66.52,146.15c-1.36-7.4-.23-11.05,3.17-17.19-3.94,9.91-1.84,23.89,8.19,29.58a.24.24,0,0,0,.32-.06.25.25,0,0,0,0-.33A17.93,17.93,0,0,1,74,140.22c-1.53,10.39,7.6,19.12,17.78,19.12,9.6,0,16.15-7.51,15.61-14.94s-5.44-11-9.67-12.5a.25.25,0,0,0-.3.1.26.26,0,0,0,0,.31c5.61,5.7,6.38,16.5-3.58,19.76,5.86-5,3.69-16.82-5.69-17.72a.24.24,0,0,0-.26.17.26.26,0,0,0,.1.3,8,8,0,0,1,3.68,6.57c0,4.67-3.42,6.51-5.68,6.51-3.42,0-6.26-3.25-6.26-8.18,0-5.84,5.26-10.68,12-11.43s12.78,2.15,15.75,6.46a.26.26,0,0,0,.32.08.25.25,0,0,0,.14-.29A17.15,17.15,0,0,0,81.13,125c6.61-7.5,17-7.6,25.72.09a.26.26,0,0,0,.32,0,.27.27,0,0,0,.08-.32c-2.67-5.4-9.26-11.81-18.61-10.88-8.56.86-13.52,9-14.52,15.69-.56-8.52,1.39-14.53,8.75-20.14a.26.26,0,0,0-.22-.45c-6.79,2-12.23,5.43-15.05,12.54,0-6.16,2.14-12.37,7.52-16.51a.24.24,0,0,0,.07-.31.24.24,0,0,0-.29-.13c-3.45,1-6.17,2.49-8.14,5.18-1.31-11.1-6.52-17.69-12.52-17.69-4.13,0-7.21,3-7.21,7.87A11.36,11.36,0,0,0,51.84,109Zm-99.23,91.62c3.17,3.91,9.54,5.39,16.44,4a22.71,22.71,0,0,0,1.61,11.49.26.26,0,0,0,.29.13.24.24,0,0,0,.19-.26c-.37-8.76,4.62-15.84,13.45-18.9-6.91,4.75-8.92,14.19-5.64,19.06a.25.25,0,0,0,.31.09.25.25,0,0,0,.15-.28c-.37-2.06.61-4.68,2.72-6.72,2.9-2.82,6.85-3.45,8.81-1.43s1.19,6-1.71,8.76a9.58,9.58,0,0,1-3.45,2.18.28.28,0,0,0-.17.28.26.26,0,0,0,.23.22c6.39.55,10.77-3.26,13.52-7.88s7.57-8.41,13.21-7.67a.26.26,0,0,0,.27-.17.24.24,0,0,0-.11-.3,11,11,0,0,0-9.86-1.05c5.8-4.91,14.05-7.74,21.84-5.23a.27.27,0,0,0,.29-.1.27.27,0,0,0,0-.31c-5.91-6.57-17.69-6.7-25.11-1.37,3-4.32,7.06-7.49,14.29-8.48a.28.28,0,0,0,.22-.23.26.26,0,0,0-.17-.26c-8.29-3.08-16.6,0-23.44,8.21a26.34,26.34,0,0,1,14.77-14,.26.26,0,0,0,.16-.28.25.25,0,0,0-.25-.21c-3.94-.08-7.48.86-12.26,3.57,3.51-5.69,2.74-15.64-2.37-22.26a.27.27,0,0,0-.3-.08.26.26,0,0,0-.15.28c1.18,7.2-1.3,15.33-5.61,19.64a18.18,18.18,0,0,0-5.9-19.64.26.26,0,0,0-.25-.05.27.27,0,0,0-.17.2c-1.23,9.42-11.77,19-20.6,19.78a.26.26,0,0,0-.23.24.26.26,0,0,0,.2.26,20.83,20.83,0,0,0,12.39-1A21.76,21.76,0,0,1-39.36,187a.26.26,0,0,0-.17.28.25.25,0,0,0,.23.22A20.37,20.37,0,0,0-26.57,184,31.44,31.44,0,0,1-46,197.51a.25.25,0,0,0-.19.26A.27.27,0,0,0-46,198c11.92,1.3,21.75-3.32,28.22-11.92-1.64,4.9-6.36,9.76-12.94,12.62-5.85,2.54-11.85,2.95-16.42,1.51a.27.27,0,0,0-.29.1A.25.25,0,0,0-47.39,200.62ZM5.52,125.05c-4.81,10.49-4.47,18.68-.6,29.05a.26.26,0,0,0,.5-.1c-.62-12.62,2.82-21.65,10.3-27.8-8.25,9.85-4.36,29.56,8.82,29.56,9.58,0,17.51-8,19.45-17.53a.26.26,0,0,0-.15-.29.25.25,0,0,0-.31.11c-2.85,4.76-7.41,7.85-12.46,7.85-8.14,0-10.54-6.46-10.54-11,0-6.18,4.92-11.34,8.71-11.34a4.94,4.94,0,0,1,5,4.93,8.88,8.88,0,0,1-6.38,8.16.25.25,0,0,0-.18.28.26.26,0,0,0,.25.22,10.48,10.48,0,0,0,9.63-5.57A17.4,17.4,0,0,1,37,139.3a.25.25,0,0,0,.13.3.24.24,0,0,0,.31-.07c7.36-9.39,3.84-25.62-2-32.35,5.53,4,10.42,12.63,10.34,24.39a.26.26,0,0,0,.21.25.25.25,0,0,0,.28-.15c4.11-10.26,1.93-29.25-9.28-39.86a20.19,20.19,0,0,1,9.12.7.26.26,0,0,0,.3-.12.26.26,0,0,0,0-.32c-4.1-3.45-9.82-4.54-15.27-4.54,4.7,5.5,3.14,16.55-4.35,16.55-5.35,0-7.78-8.3-3.65-12.78a.24.24,0,0,0,0-.31.24.24,0,0,0-.29-.1c-4.78,1.65-10,5.79-10,11,0,5,4.81,9.39,11.8,9-8.82,2.5-18-.27-22.88-6.26a.25.25,0,0,0-.44.23c2.79,10.71,12,15.2,23.44,13.7-9.28,3.76-23.25.49-29.43-7.31a.25.25,0,0,0-.3-.07.24.24,0,0,0-.14.28C-3.73,118.15-.24,123.09,5.52,125.05Z"/><path class="cls-8" d="M87.47,34.69a.27.27,0,0,1,.25-.2c12.91-.14,24.75-3.27,34-11.52-8,5.56-22.94,7.51-31.52,3.62A.26.26,0,0,1,90,26.3a.25.25,0,0,1,.26-.19c10.68.29,19.28-3,26-9-6.87-.42-12.57-4.74-12.55-9.84a.26.26,0,0,1,.2-.25.24.24,0,0,1,.28.14c1.12,2.49,4.75,3.78,8.58,2.88,4.18-1,7-4.19,6.3-7.16-.47-2-2.43-3.41-4.95-3.79a.26.26,0,0,1-.22-.26.27.27,0,0,1,.23-.24,17.53,17.53,0,0,1,3.32,0c6.49.62,11.52,4.6,12,9.18,4.71-.55,8.89-3.16,10.38-6.78a.26.26,0,0,1,.49.08c.37,4.75-1.26,7.84-5,10.86a21.8,21.8,0,0,1,17.25.53.26.26,0,0,1,.15.28.28.28,0,0,1-.24.21,16.26,16.26,0,0,0-11.74,5.07c18.26-5.14,33.09,6.2,28,23.05a.26.26,0,0,1-.27.18.26.26,0,0,1-.23-.23c-.91-9.71-7.7-16.12-17.86-17.08a17.47,17.47,0,0,1,11.56,15.54.25.25,0,0,1-.19.26.27.27,0,0,1-.3-.14,16.72,16.72,0,0,0-14.16-9.81c6.34,2.58,10.4,8.6,11.57,16.42a.25.25,0,0,1-.17.28.25.25,0,0,1-.3-.13c-3.87-7.58-12.16-12.79-22.45-8.81-10.62,4.11-15.27,16.39-16.3,25a.27.27,0,0,1-.24.22.25.25,0,0,1-.26-.19C115.36,47,122.66,30.7,135.72,23.81c-7.1,2-13.44,6.26-17,13.35-8.3,1-14,3.86-16.86,9.24a.25.25,0,0,1-.29.13.27.27,0,0,1-.19-.27c.19-2.11.94-6.33,4.08-8.27-7,0-12.51-.89-17.8-3A.28.28,0,0,1,87.47,34.69ZM117,88.17a.24.24,0,0,0-.31,0,.25.25,0,0,0-.05.31c1.62,2.8.14,6.82-3,6.82-5.72,0-8.47-10.77-7.6-20.6,2.17,5.76,4,8.06,7.35,10.8a.24.24,0,0,0,.32,0,.26.26,0,0,0,.07-.32,46.5,46.5,0,0,1-5.9-24.08c1.46,6,3.19,9.32,8.13,14.38a.24.24,0,0,0,.32,0,.25.25,0,0,0,.09-.31,44.24,44.24,0,0,1-1-34.27.24.24,0,0,0-.06-.28.26.26,0,0,0-.29,0c-5.2,2.55-8.26,4.23-12.75,10.39,1.36,7.4.23,11-3.17,17.19,3.94-9.91,1.84-23.89-8.19-29.59a.25.25,0,0,0-.32.07.26.26,0,0,0,0,.33A17.92,17.92,0,0,1,94.77,57C96.3,46.56,87.17,37.83,77,37.83c-9.6,0-16.15,7.51-15.61,14.94s5.44,11,9.67,12.5a.25.25,0,0,0,.3-.1.26.26,0,0,0,0-.32c-5.61-5.69-6.38-16.49,3.58-19.76C69,50.15,71.21,61.92,80.59,62.82a.26.26,0,0,0,.27-.17.27.27,0,0,0-.11-.3,8,8,0,0,1-3.68-6.57c0-4.68,3.43-6.51,5.68-6.51,3.42,0,6.26,3.25,6.26,8.18,0,5.84-5.26,10.68-12,11.43s-12.78-2.15-15.75-6.46a.25.25,0,0,0-.31-.09.26.26,0,0,0-.14.3,17.14,17.14,0,0,0,26.88,9.51c-6.61,7.5-17,7.6-25.72-.09a.26.26,0,0,0-.32,0,.24.24,0,0,0-.07.31c2.66,5.41,9.25,11.82,18.6,10.89,8.56-.86,13.52-9,14.53-15.69.55,8.52-1.4,14.53-8.76,20.14a.25.25,0,0,0-.07.32.26.26,0,0,0,.3.13c6.78-2,12.23-5.43,15-12.55,0,6.16-2.14,12.38-7.53,16.51a.26.26,0,0,0,.22.45c3.46-1,6.17-2.49,8.14-5.19,1.31,11.1,6.52,17.7,12.53,17.7,4.12,0,7.2-3,7.2-7.88A11.35,11.35,0,0,0,117,88.17ZM216.19-3.45c-3.17-3.91-9.54-5.4-16.44-4a22.71,22.71,0,0,0-1.61-11.49.26.26,0,0,0-.29-.14.27.27,0,0,0-.19.26C198-10,193-3,184.21.1c6.91-4.75,8.93-14.19,5.64-19.06a.27.27,0,0,0-.31-.1.26.26,0,0,0-.15.28c.37,2.06-.61,4.69-2.72,6.73-2.9,2.81-6.84,3.45-8.81,1.43s-1.19-6,1.71-8.76A9.75,9.75,0,0,1,183-21.57a.26.26,0,0,0,.17-.27.26.26,0,0,0-.23-.22c-6.39-.55-10.77,3.25-13.52,7.88s-7.57,8.41-13.21,7.67a.24.24,0,0,0-.27.17.24.24,0,0,0,.11.3,11.05,11.05,0,0,0,9.86,1C160.14-.08,151.88,2.75,144.09.24a.25.25,0,0,0-.29.1.26.26,0,0,0,0,.31c5.9,6.56,17.69,6.69,25.11,1.37-3,4.32-7.07,7.49-14.3,8.48a.28.28,0,0,0-.22.22.26.26,0,0,0,.17.27c8.29,3.08,16.6-.05,23.44-8.22a26.34,26.34,0,0,1-14.76,14,.25.25,0,0,0-.17.28.26.26,0,0,0,.25.21c3.94.08,7.48-.86,12.26-3.57C172.1,19.4,172.87,29.35,178,36a.25.25,0,0,0,.3.07.24.24,0,0,0,.15-.27c-1.18-7.2,1.3-15.33,5.61-19.64a18.18,18.18,0,0,0,5.9,19.64.26.26,0,0,0,.25,0,.3.3,0,0,0,.17-.21c1.23-9.42,11.77-19,20.6-19.77a.26.26,0,0,0,.23-.24.25.25,0,0,0-.2-.26,20.83,20.83,0,0,0-12.39,1,21.78,21.78,0,0,1,9.56-6.25.25.25,0,0,0-.06-.49,20.37,20.37,0,0,0-12.73,3.54A31.4,31.4,0,0,1,214.8-.34.25.25,0,0,0,215-.6a.24.24,0,0,0-.22-.24C202.85-2.14,193,2.48,186.55,11.08c1.64-4.9,6.36-9.76,12.94-12.62,5.85-2.55,11.85-2.95,16.42-1.51a.27.27,0,0,0,.29-.1A.25.25,0,0,0,216.19-3.45ZM163.28,72.12c4.81-10.49,4.47-18.69.6-29.06a.28.28,0,0,0-.29-.16.27.27,0,0,0-.21.27c.63,12.62-2.82,21.65-10.29,27.8,8.25-9.85,4.35-29.56-8.83-29.56-9.58,0-17.51,8-19.45,17.53a.24.24,0,0,0,.16.28.26.26,0,0,0,.31-.1c2.84-4.76,7.4-7.85,12.45-7.85,8.14,0,10.54,6.46,10.54,11,0,6.19-4.92,11.35-8.7,11.35a4.94,4.94,0,0,1-5-4.93,8.85,8.85,0,0,1,6.37-8.16.26.26,0,0,0,.18-.28.25.25,0,0,0-.25-.22,10.46,10.46,0,0,0-9.63,5.57,17.45,17.45,0,0,1,.64-7.73.24.24,0,0,0-.12-.29.26.26,0,0,0-.32.06c-7.36,9.4-3.84,25.63,2,32.36C127.85,86,123,77.36,123,65.6a.25.25,0,0,0-.21-.25.24.24,0,0,0-.28.15c-4.11,10.25-1.93,29.25,9.28,39.85a20,20,0,0,1-9.12-.69.26.26,0,0,0-.3.12.25.25,0,0,0,.06.32c4.09,3.45,9.81,4.54,15.26,4.54-4.69-5.5-3.13-16.56,4.36-16.56,5.35,0,7.77,8.3,3.64,12.79a.27.27,0,0,0,0,.31.26.26,0,0,0,.3.1c4.78-1.66,9.94-5.79,9.94-11,0-5-4.81-9.39-11.8-9.05,8.82-2.5,18,.27,22.88,6.25a.25.25,0,0,0,.31.07.24.24,0,0,0,.13-.29c-2.79-10.72-12-15.2-23.43-13.71,9.28-3.75,23.25-.48,29.42,7.31a.24.24,0,0,0,.3.08.26.26,0,0,0,.15-.28C172.53,79,169,74.07,163.28,72.12Z"/><path class="cls-9" d="M189.67,52.83a.27.27,0,0,1-.25.21c-12.91.13-24.75,3.27-34,11.51,8-5.55,22.94-7.51,31.53-3.62a.29.29,0,0,1,.14.29.27.27,0,0,1-.26.2c-10.68-.29-19.28,3-26,9,6.87.43,12.57,4.74,12.55,9.85a.26.26,0,0,1-.2.25.26.26,0,0,1-.28-.15c-1.12-2.49-4.75-3.78-8.58-2.88-4.18,1-7,4.19-6.3,7.17.47,2,2.43,3.4,5,3.79a.24.24,0,0,1,.22.25.27.27,0,0,1-.23.25,18.4,18.4,0,0,1-3.32,0c-6.49-.62-11.51-4.6-11.95-9.18-4.71.54-8.88,3.16-10.38,6.77a.26.26,0,0,1-.27.16.27.27,0,0,1-.22-.24c-.37-4.75,1.26-7.83,5-10.85A21.76,21.76,0,0,1,124.59,75a.24.24,0,0,1-.14-.28.25.25,0,0,1,.24-.2,16.3,16.3,0,0,0,11.73-5.07c-18.26,5.13-33.09-6.2-28-23.05a.26.26,0,0,1,.27-.18.25.25,0,0,1,.23.23c.91,9.71,7.7,16.11,17.86,17.07A17.45,17.45,0,0,1,115.26,48a.27.27,0,0,1,.19-.27.28.28,0,0,1,.3.15,16.74,16.74,0,0,0,14.16,9.81c-6.34-2.58-10.4-8.6-11.57-16.42a.25.25,0,0,1,.17-.28.24.24,0,0,1,.3.13C122.68,48.72,131,53.93,141.26,50c10.62-4.11,15.27-16.39,16.3-25a.25.25,0,0,1,.5,0c3.72,15.69-3.58,32-16.63,38.84,7.09-2,13.44-6.26,17-13.36,8.3-1,14-3.86,16.86-9.24a.26.26,0,0,1,.29-.12.26.26,0,0,1,.19.26c-.19,2.11-.95,6.33-4.08,8.28a45.77,45.77,0,0,1,17.8,3A.26.26,0,0,1,189.67,52.83ZM160.18-.64a.26.26,0,0,0,.32,0,.27.27,0,0,0,0-.32c-1.62-2.79-.14-6.81,3.05-6.81,5.72,0,8.47,10.77,7.6,20.59-2.16-5.75-4-8-7.35-10.79a.24.24,0,0,0-.32,0,.23.23,0,0,0-.06.31,46.61,46.61,0,0,1,5.89,24.09c-1.46-6-3.19-9.32-8.13-14.38a.23.23,0,0,0-.32,0,.25.25,0,0,0-.09.31,44.22,44.22,0,0,1,.95,34.26.26.26,0,0,0,.35.33c5.2-2.55,8.26-4.23,12.75-10.39-1.36-7.4-.23-11,3.17-17.2-3.94,9.92-1.84,23.9,8.19,29.59a.24.24,0,0,0,.32-.06.26.26,0,0,0,0-.33,17.93,17.93,0,0,1-4.16-17.93C180.84,41,190,49.69,200.15,49.69c9.6,0,16.15-7.5,15.61-14.94s-5.44-11-9.67-12.49a.25.25,0,0,0-.3.1.24.24,0,0,0,0,.31c5.61,5.7,6.38,16.5-3.58,19.76,5.86-5,3.69-16.83-5.69-17.72a.26.26,0,0,0-.27.17.26.26,0,0,0,.11.29,8.05,8.05,0,0,1,3.68,6.58c0,4.67-3.43,6.51-5.68,6.51-3.42,0-6.26-3.26-6.26-8.18,0-5.84,5.26-10.68,12-11.43s12.78,2.15,15.75,6.45a.25.25,0,0,0,.45-.2,17.13,17.13,0,0,0-26.88-9.51c6.61-7.5,17-7.61,25.72.09a.26.26,0,0,0,.32,0,.25.25,0,0,0,.07-.32c-2.66-5.4-9.25-11.82-18.6-10.88-8.56.85-13.52,9-14.53,15.69-.55-8.52,1.4-14.54,8.76-20.14a.26.26,0,0,0,.07-.32.25.25,0,0,0-.3-.13c-6.78,2-12.23,5.42-15,12.54,0-6.16,2.14-12.37,7.53-16.51a.24.24,0,0,0,.07-.31.24.24,0,0,0-.29-.13c-3.46,1-6.17,2.49-8.14,5.18-1.31-11.1-6.52-17.69-12.53-17.69-4.12,0-7.2,3-7.2,7.87A11.38,11.38,0,0,0,160.18-.64ZM61,91c3.17,3.9,9.54,5.39,16.43,4A22.64,22.64,0,0,0,79,106.45a.25.25,0,0,0,.29.14.27.27,0,0,0,.19-.26c-.37-8.76,4.62-15.84,13.45-18.91C86,92.18,84,101.62,87.29,106.49a.25.25,0,0,0,.31.09.25.25,0,0,0,.15-.28c-.37-2.06.61-4.68,2.71-6.72,2.91-2.82,6.85-3.46,8.82-1.43s1.19,5.94-1.71,8.76a9.72,9.72,0,0,1-3.45,2.18.27.27,0,0,0-.17.27.25.25,0,0,0,.23.22c6.39.56,10.77-3.25,13.52-7.87s7.57-8.41,13.21-7.67a.26.26,0,0,0,.27-.17.24.24,0,0,0-.11-.3,11,11,0,0,0-9.86-1.06c5.79-4.9,14.05-7.74,21.84-5.22a.26.26,0,0,0,.29-.11.24.24,0,0,0,0-.3c-5.9-6.57-17.69-6.7-25.1-1.38,3-4.31,7.06-7.48,14.29-8.47a.28.28,0,0,0,.22-.23.26.26,0,0,0-.17-.26c-8.29-3.08-16.6,0-23.44,8.21a26.32,26.32,0,0,1,14.76-14,.25.25,0,0,0,.17-.28.26.26,0,0,0-.25-.21c-3.94-.08-7.48.86-12.26,3.57,3.51-5.69,2.74-15.64-2.37-22.26a.27.27,0,0,0-.3-.08.26.26,0,0,0-.15.28c1.18,7.2-1.3,15.32-5.61,19.64a18.2,18.2,0,0,0-5.9-19.65.25.25,0,0,0-.25,0,.27.27,0,0,0-.17.2c-1.23,9.42-11.77,19-20.6,19.78a.26.26,0,0,0-.23.23.26.26,0,0,0,.2.27,20.83,20.83,0,0,0,12.39-1A21.76,21.76,0,0,1,69,77.4a.25.25,0,0,0-.17.27.25.25,0,0,0,.23.23,20.45,20.45,0,0,0,12.73-3.54A31.44,31.44,0,0,1,62.34,87.87a.25.25,0,0,0-.19.26.26.26,0,0,0,.22.24c11.92,1.3,21.75-3.32,28.22-11.92C89,81.35,84.23,86.2,77.65,89.07,71.8,91.61,65.8,92,61.23,90.58a.24.24,0,0,0-.29.1A.26.26,0,0,0,61,91Zm52.91-75.57c-4.81,10.48-4.47,18.68-.6,29.05a.26.26,0,0,0,.5-.1c-.63-12.62,2.82-21.65,10.29-27.81-8.25,9.86-4.35,29.56,8.83,29.56,9.58,0,17.51-8,19.45-17.52a.25.25,0,0,0-.16-.29.24.24,0,0,0-.3.11c-2.85,4.76-7.41,7.85-12.46,7.85-8.14,0-10.54-6.47-10.54-11,0-6.18,4.92-11.34,8.7-11.34a4.94,4.94,0,0,1,5.05,4.92A8.88,8.88,0,0,1,136.24,27a.25.25,0,0,0-.18.28.26.26,0,0,0,.25.22,10.48,10.48,0,0,0,9.63-5.57,17.42,17.42,0,0,1-.64,7.72.25.25,0,0,0,.12.3.25.25,0,0,0,.32-.07c7.36-9.39,3.84-25.62-2-32.36,5.53,4,10.42,12.64,10.34,24.4a.26.26,0,0,0,.21.25.25.25,0,0,0,.28-.16c4.11-10.25,1.93-29.24-9.28-39.85a20.18,20.18,0,0,1,9.12.69.25.25,0,0,0,.3-.11.25.25,0,0,0-.06-.32c-4.09-3.46-9.81-4.54-15.26-4.54,4.7,5.5,3.13,16.55-4.36,16.55-5.34,0-7.77-8.3-3.64-12.78a.27.27,0,0,0,0-.31.25.25,0,0,0-.3-.1c-4.77,1.65-9.94,5.79-9.94,11,0,5.05,4.81,9.4,11.8,9.06-8.82,2.5-18.05-.27-22.88-6.26A.25.25,0,0,0,109.8-5a.24.24,0,0,0-.13.29c2.79,10.71,12,15.2,23.44,13.7-9.29,3.76-23.25.48-29.43-7.31a.26.26,0,0,0-.31-.07.27.27,0,0,0-.14.28C104.61,8.51,108.1,13.45,113.86,15.41Z"/><path class="cls-8" d="M-20.86,34.69a.25.25,0,0,1,.24-.2c12.91-.14,24.76-3.27,34-11.52-8,5.56-22.94,7.51-31.52,3.62a.27.27,0,0,1-.15-.29.25.25,0,0,1,.26-.19c10.68.29,19.28-3,26-9C1.05,16.72-4.65,12.4-4.63,7.3a.26.26,0,0,1,.2-.25.24.24,0,0,1,.28.14C-3,9.68.6,11,4.43,10.07c4.18-1,7-4.19,6.3-7.16C10.26.89,8.3-.5,5.78-.88a.25.25,0,0,1-.21-.26.25.25,0,0,1,.23-.24,17.43,17.43,0,0,1,3.31,0c6.49.62,11.52,4.6,12,9.18C25.77,7.25,30,4.64,31.44,1a.27.27,0,0,1,.28-.15.26.26,0,0,1,.21.23c.38,4.75-1.26,7.84-5,10.86a21.8,21.8,0,0,1,17.25.53.26.26,0,0,1,.15.28.28.28,0,0,1-.24.21,16.22,16.22,0,0,0-11.73,5.07c18.25-5.14,33.08,6.2,28,23.05a.26.26,0,0,1-.27.18.26.26,0,0,1-.23-.23C58.93,31.34,52.14,24.93,42,24A17.47,17.47,0,0,1,53.54,39.51a.25.25,0,0,1-.48.12A16.75,16.75,0,0,0,38.9,29.82c6.33,2.58,10.39,8.6,11.57,16.42a.26.26,0,0,1-.18.28.25.25,0,0,1-.3-.13c-3.87-7.58-12.16-12.79-22.45-8.81-10.61,4.11-15.27,16.39-16.3,25a.27.27,0,0,1-.24.22.25.25,0,0,1-.26-.19C7,47,14.32,30.7,27.38,23.81c-7.1,2-13.44,6.26-17,13.35-8.29,1-14,3.86-16.86,9.24a.25.25,0,0,1-.29.13A.27.27,0,0,1-7,46.26c.19-2.11,1-6.33,4.08-8.27-7,0-12.51-.89-17.8-3A.26.26,0,0,1-20.86,34.69ZM8.62,88.17a.24.24,0,0,0-.31,0,.25.25,0,0,0-.05.31c1.62,2.8.14,6.82-3,6.82-5.72,0-8.47-10.77-7.6-20.6,2.17,5.76,4,8.06,7.35,10.8a.24.24,0,0,0,.32,0,.25.25,0,0,0,.07-.32A46.5,46.5,0,0,1-.55,61.12c1.46,6,3.2,9.32,8.13,14.38a.24.24,0,0,0,.32,0A.25.25,0,0,0,8,75.22,44.29,44.29,0,0,1,7,41,.24.24,0,0,0,7,40.67a.26.26,0,0,0-.29,0C1.49,43.18-1.57,44.86-6.06,51c1.36,7.4.23,11-3.17,17.19,3.94-9.91,1.84-23.89-8.19-29.59a.25.25,0,0,0-.32.07.26.26,0,0,0,0,.33A17.87,17.87,0,0,1-13.57,57C-12,46.56-21.16,37.83-31.35,37.83c-9.6,0-16.15,7.51-15.61,14.94s5.45,11,9.67,12.5a.25.25,0,0,0,.3-.1.26.26,0,0,0,0-.32c-5.61-5.69-6.38-16.49,3.58-19.76-5.86,5.06-3.69,16.83,5.69,17.73a.26.26,0,0,0,.27-.17.26.26,0,0,0-.11-.3,8,8,0,0,1-3.67-6.57c0-4.68,3.42-6.51,5.67-6.51,3.42,0,6.26,3.25,6.26,8.18,0,5.84-5.26,10.68-12,11.43s-12.78-2.15-15.75-6.46a.25.25,0,0,0-.31-.09.27.27,0,0,0-.14.3,17.15,17.15,0,0,0,26.89,9.51c-6.62,7.5-17,7.6-25.73-.09a.26.26,0,0,0-.32,0,.24.24,0,0,0-.07.31c2.66,5.41,9.25,11.82,18.6,10.89,8.56-.86,13.52-9,14.53-15.69.55,8.52-1.4,14.53-8.76,20.14a.28.28,0,0,0-.07.32.26.26,0,0,0,.3.13c6.78-2,12.23-5.43,15.05-12.55,0,6.16-2.14,12.38-7.53,16.51a.25.25,0,0,0-.07.32.25.25,0,0,0,.29.13c3.46-1,6.18-2.49,8.14-5.19C-5,98.46.22,105.06,6.23,105.06c4.12,0,7.2-3,7.2-7.88A11.35,11.35,0,0,0,8.62,88.17ZM107.85-3.45c-3.16-3.91-9.54-5.4-16.43-4a22.82,22.82,0,0,0-1.61-11.49.28.28,0,0,0-.3-.14.27.27,0,0,0-.19.26C89.7-10,84.7-3,75.87.1,82.78-4.65,84.8-14.09,81.51-19a.27.27,0,0,0-.31-.1.26.26,0,0,0-.15.28c.37,2.06-.61,4.69-2.71,6.73-2.91,2.81-6.85,3.45-8.81,1.43s-1.2-6,1.7-8.76a9.75,9.75,0,0,1,3.45-2.19.25.25,0,0,0,.17-.27.26.26,0,0,0-.23-.22c-6.39-.55-10.77,3.25-13.52,7.88S53.53-5.77,47.89-6.51a.24.24,0,0,0-.27.17.26.26,0,0,0,.11.3,11.05,11.05,0,0,0,9.86,1C51.8-.08,43.55,2.75,35.75.24a.25.25,0,0,0-.29.1.26.26,0,0,0,0,.31C41.4,7.21,53.18,7.34,60.6,2c-3,4.32-7.07,7.49-14.3,8.48a.25.25,0,0,0-.21.22.24.24,0,0,0,.16.27c8.29,3.08,16.6-.05,23.44-8.22a26.34,26.34,0,0,1-14.76,14,.25.25,0,0,0-.17.28.26.26,0,0,0,.25.21c3.94.08,7.49-.86,12.26-3.57C63.77,19.4,64.53,29.35,69.64,36A.26.26,0,0,0,70,36a.25.25,0,0,0,.14-.27c-1.17-7.2,1.3-15.33,5.61-19.64a18.18,18.18,0,0,0,5.9,19.64.27.27,0,0,0,.26,0,.31.31,0,0,0,.16-.21c1.23-9.42,11.77-19,20.6-19.77a.25.25,0,0,0,.23-.24.24.24,0,0,0-.2-.26,20.83,20.83,0,0,0-12.39,1,21.78,21.78,0,0,1,9.56-6.25.25.25,0,0,0,.18-.27.27.27,0,0,0-.24-.22A20.39,20.39,0,0,0,87,13.17,31.4,31.4,0,0,1,106.46-.34a.27.27,0,0,0,.2-.26.26.26,0,0,0-.23-.24C94.51-2.14,84.68,2.48,78.21,11.08c1.65-4.9,6.36-9.76,12.94-12.62C97-4.09,103-4.49,107.58-3a.26.26,0,0,0,.28-.1A.25.25,0,0,0,107.85-3.45ZM54.94,72.12c4.81-10.49,4.47-18.69.6-29.06a.28.28,0,0,0-.29-.16.26.26,0,0,0-.2.27c.62,12.62-2.83,21.65-10.3,27.8C53,61.12,49.1,41.41,35.92,41.41c-9.58,0-17.51,8-19.45,17.53a.25.25,0,0,0,.16.28.26.26,0,0,0,.31-.1c2.84-4.76,7.41-7.85,12.45-7.85,8.14,0,10.54,6.46,10.54,11,0,6.19-4.92,11.35-8.7,11.35a4.94,4.94,0,0,1-5-4.93,8.85,8.85,0,0,1,6.37-8.16.26.26,0,0,0,.18-.28.25.25,0,0,0-.25-.22,10.47,10.47,0,0,0-9.63,5.57,17.45,17.45,0,0,1,.64-7.73.23.23,0,0,0-.12-.29.26.26,0,0,0-.32.06C15.71,67,19.23,83.26,25,90,19.51,86,14.62,77.36,14.7,65.6a.25.25,0,0,0-.2-.25.26.26,0,0,0-.29.15c-4.11,10.25-1.93,29.25,9.28,39.85a20,20,0,0,1-9.12-.69.26.26,0,0,0-.3.12.25.25,0,0,0,.06.32c4.09,3.45,9.81,4.54,15.26,4.54-4.69-5.5-3.13-16.56,4.36-16.56,5.35,0,7.77,8.3,3.65,12.79a.26.26,0,0,0,0,.31.27.27,0,0,0,.3.1c4.78-1.66,9.94-5.79,9.94-11,0-5-4.81-9.39-11.8-9.05,8.82-2.5,18,.27,22.88,6.25a.26.26,0,0,0,.45-.22c-2.8-10.72-12-15.2-23.44-13.71C45,74.78,59,78.05,65.12,85.84a.25.25,0,0,0,.31.08.27.27,0,0,0,.14-.28C64.2,79,60.7,74.07,54.94,72.12Z"/><path class="cls-9" d="M81.33,52.83a.26.26,0,0,1-.25.21c-12.91.13-24.75,3.27-34,11.51,8-5.55,22.94-7.51,31.53-3.62a.26.26,0,0,1-.12.49c-10.68-.29-19.27,3-26,9,6.87.43,12.57,4.74,12.56,9.85a.26.26,0,0,1-.49.1c-1.12-2.49-4.75-3.78-8.58-2.88-4.18,1-7,4.19-6.3,7.17.47,2,2.44,3.4,5,3.79a.24.24,0,0,1,.22.25.26.26,0,0,1-.23.25,18.4,18.4,0,0,1-3.32,0c-6.49-.62-11.51-4.6-12-9.18-4.71.54-8.88,3.16-10.38,6.77a.26.26,0,0,1-.27.16.27.27,0,0,1-.22-.24c-.37-4.75,1.26-7.83,5-10.85A21.76,21.76,0,0,1,16.25,75a.25.25,0,0,1,.1-.48,16.28,16.28,0,0,0,11.73-5.07C9.82,74.61-5,63.28.12,46.43a.26.26,0,0,1,.27-.18.25.25,0,0,1,.23.23c.92,9.71,7.7,16.11,17.86,17.07A17.45,17.45,0,0,1,6.92,48a.29.29,0,0,1,.19-.27.28.28,0,0,1,.3.15,16.75,16.75,0,0,0,14.16,9.81c-6.34-2.58-10.4-8.6-11.57-16.42a.25.25,0,0,1,.17-.28.24.24,0,0,1,.3.13C14.34,48.72,22.63,53.93,32.92,50c10.62-4.11,15.27-16.39,16.3-25a.27.27,0,0,1,.24-.23.26.26,0,0,1,.26.2c3.72,15.69-3.58,32-16.63,38.84,7.09-2,13.44-6.26,17-13.36,8.3-1,14-3.86,16.86-9.24a.27.27,0,0,1,.3-.12.26.26,0,0,1,.18.26c-.18,2.11-.94,6.33-4.08,8.28a45.77,45.77,0,0,1,17.8,3A.26.26,0,0,1,81.33,52.83ZM51.84-.64a.26.26,0,0,0,.32,0,.27.27,0,0,0,0-.32c-1.62-2.79-.14-6.81,3-6.81C61-7.79,63.72,3,62.85,12.8c-2.16-5.75-4-8-7.35-10.79a.24.24,0,0,0-.32,0,.23.23,0,0,0-.06.31A46.61,46.61,0,0,1,61,26.41c-1.46-6-3.19-9.32-8.12-14.38a.25.25,0,0,0-.33,0,.25.25,0,0,0-.09.31,44.22,44.22,0,0,1,1,34.26.26.26,0,0,0,.35.33C59,44.35,62,42.67,66.52,36.51c-1.36-7.4-.23-11,3.17-17.2-3.94,9.92-1.84,23.9,8.19,29.59a.24.24,0,0,0,.32-.06.25.25,0,0,0,0-.33A17.93,17.93,0,0,1,74,30.58C72.5,41,81.63,49.69,91.81,49.69c9.6,0,16.15-7.5,15.61-14.94s-5.44-11-9.67-12.49a.25.25,0,0,0-.3.1.26.26,0,0,0,0,.31c5.61,5.7,6.38,16.5-3.58,19.76,5.86-5,3.69-16.83-5.69-17.72a.24.24,0,0,0-.26.17.24.24,0,0,0,.1.29,8.05,8.05,0,0,1,3.68,6.58c0,4.67-3.42,6.51-5.68,6.51-3.42,0-6.26-3.26-6.26-8.18,0-5.84,5.26-10.68,12-11.43s12.78,2.15,15.75,6.45a.25.25,0,0,0,.46-.2,17.14,17.14,0,0,0-26.89-9.51c6.61-7.5,17-7.61,25.72.09a.26.26,0,0,0,.32,0,.27.27,0,0,0,.08-.32C104.58,9.77,98,3.35,88.64,4.29c-8.56.85-13.52,9-14.52,15.69-.56-8.52,1.39-14.54,8.75-20.14a.25.25,0,0,0,.07-.32.24.24,0,0,0-.29-.13c-6.79,2-12.23,5.42-15.05,12.54,0-6.16,2.14-12.37,7.52-16.51a.24.24,0,0,0,.07-.31A.23.23,0,0,0,74.9-5C71.45-4,68.73-2.53,66.76.16c-1.31-11.1-6.52-17.69-12.52-17.69-4.13,0-7.21,3-7.21,7.87A11.38,11.38,0,0,0,51.84-.64ZM-47.39,91c3.17,3.9,9.54,5.39,16.44,4a22.65,22.65,0,0,0,1.61,11.48.25.25,0,0,0,.29.14.25.25,0,0,0,.19-.26c-.37-8.76,4.62-15.84,13.45-18.91-6.91,4.76-8.92,14.2-5.64,19.07a.25.25,0,0,0,.31.09.25.25,0,0,0,.15-.28c-.37-2.06.61-4.68,2.72-6.72,2.9-2.82,6.85-3.46,8.81-1.43s1.19,5.94-1.71,8.76a9.72,9.72,0,0,1-3.45,2.18.27.27,0,0,0-.17.27.25.25,0,0,0,.23.22c6.39.56,10.77-3.25,13.52-7.87S6.93,93.3,12.57,94a.26.26,0,0,0,.27-.17.24.24,0,0,0-.11-.3,11,11,0,0,0-9.86-1.06c5.8-4.9,14.05-7.74,21.84-5.22a.26.26,0,0,0,.27-.41C19.07,80.31,7.29,80.18-.13,85.5,2.9,81.19,6.93,78,14.16,77a.28.28,0,0,0,.22-.23.26.26,0,0,0-.17-.26c-8.29-3.08-16.6,0-23.44,8.21a26.31,26.31,0,0,1,14.77-14,.26.26,0,0,0,.16-.28.25.25,0,0,0-.25-.21c-3.94-.08-7.48.86-12.26,3.57,3.51-5.69,2.74-15.64-2.37-22.26a.27.27,0,0,0-.3-.08.26.26,0,0,0-.15.28c1.18,7.2-1.3,15.32-5.61,19.64a18.2,18.2,0,0,0-5.9-19.65.25.25,0,0,0-.25,0,.27.27,0,0,0-.17.2c-1.23,9.42-11.77,19-20.6,19.78a.26.26,0,0,0-.23.23.26.26,0,0,0,.2.27,20.83,20.83,0,0,0,12.39-1,21.76,21.76,0,0,1-9.56,6.24.25.25,0,0,0-.17.27.25.25,0,0,0,.23.23,20.43,20.43,0,0,0,12.73-3.54A31.44,31.44,0,0,1-46,87.87a.25.25,0,0,0-.19.26.27.27,0,0,0,.22.24c11.92,1.3,21.75-3.32,28.22-11.92-1.64,4.9-6.36,9.75-12.94,12.62-5.85,2.54-11.85,2.94-16.42,1.51a.24.24,0,0,0-.29.1A.26.26,0,0,0-47.39,91ZM5.52,15.41C.71,25.89,1.05,34.09,4.92,44.46a.26.26,0,0,0,.5-.1C4.8,31.74,8.24,22.71,15.72,16.55c-8.25,9.86-4.36,29.56,8.82,29.56,9.58,0,17.51-8,19.45-17.52a.26.26,0,0,0-.15-.29.25.25,0,0,0-.31.11c-2.85,4.76-7.41,7.85-12.46,7.85-8.14,0-10.54-6.47-10.54-11,0-6.18,4.92-11.34,8.71-11.34a4.94,4.94,0,0,1,5,4.92A8.88,8.88,0,0,1,27.9,27a.25.25,0,0,0-.18.28.26.26,0,0,0,.25.22,10.48,10.48,0,0,0,9.63-5.57A17.42,17.42,0,0,1,37,29.66a.25.25,0,0,0,.13.3.24.24,0,0,0,.31-.07c7.36-9.39,3.84-25.62-2-32.36,5.53,4,10.42,12.64,10.34,24.4a.26.26,0,0,0,.21.25.25.25,0,0,0,.28-.16C50.36,11.77,48.18-7.22,37-17.83a20.18,20.18,0,0,1,9.12.69.25.25,0,0,0,.3-.11.26.26,0,0,0,0-.32c-4.1-3.46-9.82-4.54-15.27-4.54,4.7,5.5,3.14,16.55-4.35,16.55-5.35,0-7.78-8.3-3.65-12.78a.24.24,0,0,0,0-.31.24.24,0,0,0-.29-.1c-4.78,1.65-10,5.79-10,11,0,5.05,4.81,9.4,11.8,9.06-8.82,2.5-18-.27-22.88-6.26A.24.24,0,0,0,1.46-5a.24.24,0,0,0-.13.29C4.12,6,13.29,10.49,24.77,9c-9.28,3.76-23.25.48-29.43-7.31A.25.25,0,0,0-5,1.61a.24.24,0,0,0-.14.28C-3.73,8.51-.24,13.45,5.52,15.41Z"/></pattern><radialGradient id="Golden_Ring" cx="1187.5" cy="150.95" r="83.46" gradientTransform="translate(-105.35 3.85) scale(1.1 1.07)" gradientUnits="userSpaceOnUse"><stop offset="0.74" stop-color="#fff" stop-opacity="0"/><stop offset="0.76" stop-color="#fff" stop-opacity="0.01"/><stop offset="0.77" stop-color="#fff" stop-opacity="0.04"/><stop offset="0.79" stop-color="#fff" stop-opacity="0.1"/><stop offset="0.79" stop-color="#fff" stop-opacity="0.18"/><stop offset="0.8" stop-color="#fff" stop-opacity="0.28"/><stop offset="0.81" stop-color="#fff" stop-opacity="0.4"/><stop offset="0.82" stop-color="#fff" stop-opacity="0.5"/><stop offset="0.82" stop-color="#dbc01f"/><stop offset="0.83" stop-color="#f1dc3a"/><stop offset="0.84" stop-color="#f5e13f"/><stop offset="0.84" stop-color="#dbc01f"/><stop offset="0.85" stop-color="#e1cb46"/><stop offset="0.87" stop-color="#e9d976"/><stop offset="0.89" stop-color="#f0e4a0"/><stop offset="0.91" stop-color="#f5eec3"/><stop offset="0.93" stop-color="#faf5dd"/><stop offset="0.95" stop-color="#fdfbf0"/><stop offset="0.98" stop-color="#fefefb"/><stop offset="1" stop-color="#fff"/></radialGradient></defs><title>background</title><path class="cls-10" d="M1100.64,104.9c-1.64-4.27,3.18-9,7.71-8.39s7.84,4.94,8.77,9.42a8.74,8.74,0,0,1,16.92-.34,10.7,10.7,0,0,1,20.4.13c2.22-2.45,4.55-5,7.61-6.21s7.1-.76,9,2c1.07,1.56,1.47,3.8,3.21,4.53,3.72,1.55,5.16-5.24,8.73-7.09,2.85-1.49,6.23.68,8.41,3s4.39,5.24,7.59,5.55a9.48,9.48,0,0,1,18.83-1.06c1.47-2.58,3-5.24,5.41-7s5.93-2.31,8.29-.51,4,5.65,6.74,4.66c1.35-.5,2-2,2.76-3.21,2.77-4.09,9.78-4.11,12.58,0,.72,1.06,1.24,2.35,2.36,3,4.14,2.32,6.44-6.84,11.18-7,4-.17,5.73,6,9.68,6.17,3.73.17,5.42-4.92,8.87-6.34,4.59-1.91,8.79,3.29,11.07,7.71l12.13-7.36a11.89,11.89,0,0,1,4.47,7c1.5-4.16,5.14-9.29,9.1-7.3a8,8,0,0,1,2.72,2.83c4.6,6.75,9.31,15.58,5,22.55,2,1.12,4.13,2.31,5.44,4.23s1.51,4.79-.16,6.39c-2.51,2.4-8.14,1.44-8.57,4.88,2.76,2.25,5.57,4.91,6.2,8.41s-2.2,7.72-5.7,7.09c3.61,1.43,6.95,4.47,7.26,8.35s-3.73,7.87-7.35,6.44c3.76,2.79,7.44,6.37,8.12,11s-3.27,10-7.84,9c2.73,2.66,5.58,5.54,6.4,9.26s-1.48,8.36-5.29,8.5c3.23,5.7,6.18,13.65,1.34,18.06a5.88,5.88,0,1,1,.93,11.68c2.59,2.12,5.33,4.46,6.19,7.7s-1.28,7.44-4.63,7.3c-2.55-.11-4.36-2.53-5.44-4.85-.84,4.55-6.41,7.13-10.85,5.83s-7.55-5.48-8.86-9.91c-3.43,5.35-8.85,9.86-15.18,10.37s-13.17-4.19-13.4-10.54c-4,3.22-8.21,6.56-13.27,7.36s-11.07-2.05-11.84-7.11c-3.57,3.68-7.73,7.24-12.8,8s-11-2.61-11.24-7.73a9,9,0,0,1-17.61,1.92c-.52,4.91-4.41,9.61-9.33,9.93s-9.69-5-8-9.61c-.6,5.38-4.58,10.65-10,11.28s-10.92-5-9-10.13c-3.63,2.11-7.43,4.27-11.62,4.49s-8.83-2.22-9.64-6.33c-4.42,3.68-9.71,6.81-15.46,6.81s-11.77-4.15-12.14-9.89c-3.48,4.76-7.49,9.87-13.27,11s-12.75-4.64-10.2-10c-2.66,5.34-12.16,4.55-13.91-1.15s5.68-11.68,10.87-8.75c.85-3.37-1.05-6.78-3-9.63s-4.24-5.87-4.2-9.34,3.89-6.95,6.88-5.18c-3.27-3.31-6.72-7-7.18-11.64s4-9.8,8.35-8.12c-2.36-3.37-8.17-.33-11.62-2.58-2.92-1.9-2.28-6.73.35-9s6.33-2.77,9.79-3.13a10.07,10.07,0,0,1-9.59-2.05c-2.47-2.38-3.13-6.6-1.07-9.33s6.81-3,8.85-.29c-4.76,1.55-10.39-2.85-10.05-7.84s6.53-8.58,11-6.39c-3.85,3.32-10.77-.05-11.32-5.11s4.26-9.68,9.34-9.89a13.8,13.8,0,0,1-6.18-5c-1.91-2.81-2.68-6.7-.93-9.62s6.49-3.85,8.61-1.19c-4.87-3.16-3-12.29,2.73-13.26" transform="translate(4 9.5)"/><path class="cls-11" d="M1102.09,104.5c-1.31-5.25,4.84-7.49,8.58-5.45,2.81,1.54,4.21,4.25,5,7.28a1.51,1.51,0,0,0,2.89,0c2.25-6.9,11.34-7.39,14-.35a1.51,1.51,0,0,0,2.89,0,9.31,9.31,0,0,1,17.5.14,1.52,1.52,0,0,0,2.51.66c2.25-2.46,4.76-5.4,8.14-6.2,4.34-1,5.63,1.83,7.71,4.73,1.37,1.91,3.41,3,5.69,2,4.35-2,4.49-9.89,11.25-6,3.94,2.29,5.45,6.61,10.26,7.65a1.54,1.54,0,0,0,1.9-1.45c1.23-9.34,13.69-9.5,15.88-.66a1.52,1.52,0,0,0,2.75.36c1.6-2.79,3.73-6.88,7.2-7.6,5-1,5.3,2.43,8.16,4.49,1.88,1.37,3.84,1.57,5.73,0,1.67-1.36,2-3.5,4-4.61,3.42-1.84,6.7,0,8.73,2.7,1.39,1.86,3,3.54,5.53,2.79s4-3.72,5.82-5.47c4.29-4.07,6.61,2.15,10.23,3.81,2.43,1.12,4.66.44,6.64-1.22,2.31-1.93,3-4.14,6.38-4.27,4-.16,6.1,3.48,7.88,6.72a1.51,1.51,0,0,0,2,.54l12.12-7.35-1.81-.24a12,12,0,0,1,4.08,6.36,1.52,1.52,0,0,0,2.9,0c1.46-3.63,3.8-8.66,9.08-4.11,1.37,1.18,2.48,3.8,3.33,5.39,2.62,4.92,4.48,10.36,1.72,15.64a1.52,1.52,0,0,0,.54,2c2.29,1.3,8.64,4.67,4.43,8.66-1.09,1-3.52,1-4.89,1.59a5.16,5.16,0,0,0-3.53,3.56,1.49,1.49,0,0,0,.39,1.46,20.39,20.39,0,0,1,4.17,4.23c1.77,2.67,3,8.9-2.61,8.71-1.42,0-2.14,2.17-.76,2.8a12.46,12.46,0,0,1,4.57,3c2.4,2.78,3,10.52-3.5,9a1.51,1.51,0,0,0-1.15,2.74c2.86,2.22,6,5,7.09,8.6,1.17,4.07-1.47,9.06-6.06,8.61a1.52,1.52,0,0,0-1.07,2.56c3.27,3.21,11.12,13.79,1.78,15.26a1.51,1.51,0,0,0-.89,2.2c2.57,4.71,5.91,11.54,1.57,16.24a1.51,1.51,0,0,0,1.06,2.56,3.13,3.13,0,0,1,3.4,1.21q4.83,2.64-2.47,7.47c-1.13.14-2.19,1.63-1.07,2.56,2,1.65,4.41,3.45,5.31,5.93,1.06,2.9.87,3.53-2.23,4.51s-3.19.6-4.6-2.1a1.51,1.51,0,0,0-2.74.35c-1.24,4.32-6.13,6.06-10.07,4.31-3.52-1.57-5.55-4.85-6.75-8.39a1.52,1.52,0,0,0-2.74-.36c-3,4.45-7.17,8.43-12.65,9.4-5.86,1-12.43-2.52-13.13-8.81a1.52,1.52,0,0,0-2.56-1.06c-5.44,4.38-19.63,13-22.6.91a1.52,1.52,0,0,0-2.51-.66c-3,3-6.37,6.23-10.65,7.29-4.75,1.17-10.15-1.15-10.88-6.38-.21-1.45-2.66-1.42-2.9,0-1.29,7.93-11.56,9.82-14.72,1.92-.47-1.2-2.61-1.63-2.89,0-.52,3.14-2,6.25-4.89,7.88-4.55,2.55-10.84-1.36-9.49-6.76l-2.9-.8c-.58,3.61-2.22,7.21-5.53,9.11-4.91,2.83-12.1-1-10.59-7.16a1.51,1.51,0,0,0-2.2-1.69c-5.27,3-16.31,8.25-19.06-1a1.52,1.52,0,0,0-2.5-.66c-4.07,3.28-9,6.45-14.4,6.37-5.27-.09-9.94-3.46-10.69-8.79-.21-1.43-2.08-1.25-2.74-.36-2.68,3.62-5.59,7.62-9.84,9.47-4.74,2.07-13.2-.7-10.9-7.23.58-1.65-1.87-2.57-2.74-1.16a6.64,6.64,0,0,1-10,1.1c-4.37-4.49,2.47-11.16,7.48-8.94a1.53,1.53,0,0,0,2.26-1.3c.42-3.39-.53-6-2.27-8.92-.82-1.36-1.84-2.6-2.68-4-1.12-1.78-5.33-12.81,2.69-9.82,1.46.55,2.44-1.5,1.46-2.51a29.28,29.28,0,0,1-5.61-7c-1.9-3.82-.77-11.78,5.32-10.27a1.51,1.51,0,0,0,1.46-2.5c-2-2.12-4.28-2.14-7.06-2.13-3.09,0-7.34-2.19-5.42-5.81,1.81-3.4,6.58-3.86,9.94-4.23l-.39-3c-3.75.8-8.42,0-9.72-4.28-1.37-4.52,3.64-8.62,7.24-4.88l.66-2.51c-4,.9-9.14-2.6-8-7.21,1-3.87,5.61-5.38,9-4.13l-.35-2.74a6,6,0,0,1-8.89-3.07c-1.47-4.74,3.55-8.64,7.66-9.13,1.29-.15,2.27-2.09.76-2.79a12.49,12.49,0,0,1-6-5.09,7.69,7.69,0,0,1-.94-5.79c.73-2.52,3.67-5.38,6.64-2.57l2.12-2.12c-3.8-3-2.71-9.5,2.07-10.75a1.5,1.5,0,0,0-.79-2.9c-6.81,1.78-9,11.37-3.4,15.77,1.48,1.15,3.56-.76,2.12-2.12a7.17,7.17,0,0,0-11.64,3c-2.31,6.38,2.88,12.64,8.32,15.18l.76-2.8c-6.11.73-12.56,6.1-10.55,12.93,1.61,5.49,8.62,8.1,13.29,4.86a1.52,1.52,0,0,0-.36-2.74c-5.55-2.06-12.54,1.57-12.93,7.84s6.24,10.55,12,9.29a1.51,1.51,0,0,0,.66-2.51,7.31,7.31,0,0,0-12.57,4.47c-.69,7.76,7.24,11.08,13.72,9.7,1.63-.34,1.3-3.13-.4-2.94-5.76.64-13.75,2.48-13.56,9.86a6,6,0,0,0,3.16,5.33c3.22,1.7,8.22-.65,10.82,2.1l1.46-2.51c-4.67-1.16-8.85,2.07-10,6.64-1.54,6.19,3.41,11.58,7.36,15.63l1.46-2.5c-4.27-1.6-8.35,1.89-8.73,6.22-.65,7.49,8.13,11.78,7.19,19.37l2.26-1.3c-6.78-3-16.16,3.78-12.69,11.4,3,6.5,12.77,6.27,16.26.55l-2.74-1.15c-2.08,5.9,3.18,11.3,8.93,11.93,7.69.85,13.26-6.4,17.29-11.85l-2.74-.36c.84,6,6,10.13,11.85,10.86,6.89.86,13.12-3,18.25-7.12l-2.51-.66c3.36,11.23,16.26,6.89,23.46,2.74l-2.2-1.7a9.93,9.93,0,0,0,9.15,12.06c7,.39,11.75-6.23,12.76-12.41.3-1.87-2.42-2.71-2.9-.8a9.36,9.36,0,0,0,8.06,11.46c6.43.69,11.15-5.22,12.11-11h-2.89c4.11,10.29,18.65,9.42,20.51-1.92h-2.9c.71,5.05,5.15,8.42,10.11,8.86,6.6.6,12.1-4.08,16.44-8.45l-2.51-.66c1.22,5,5.7,8,10.71,8.31,6.57.39,12.1-4,16.91-7.9l-2.56-1.06a13.69,13.69,0,0,0,12.86,12c7.86.61,14.37-5,18.51-11.08l-2.74-.36c1.77,5.23,5.46,10.45,11.35,11.24a10.14,10.14,0,0,0,11.25-7.16l-2.74.36c2.27,4.36,7.68,8.19,11.51,3.08,4.25-5.68-1-11.5-5.27-15l-1.06,2.56c9.89-1.25,9.21-15.18-.93-14.68l1.06,2.56c5.39-5.84,2.24-13.76-1.1-19.87l-.9,2.2c3.82-.6,6.22-3.88,6.52-7.65.41-5.17-3.59-9.29-7-12.62l-1.06,2.56c4.82.47,8.55-3.33,9.28-8,1-6.36-4.25-11.34-8.8-14.85l-1.15,2.75a7.51,7.51,0,0,0,9.13-6.2c.89-5.3-3.54-9.35-7.9-11.33l-.75,2.79a7,7,0,0,0,7.11-6,9.11,9.11,0,0,0-1.14-6.14c-.66-1.24-4.6-4.71-4.14-5.67s5-1.37,6.16-2.14a5.83,5.83,0,0,0,2.68-3.91c.88-4.82-3.5-7.89-7.12-9.93l.54,2c4.38-8.35-.36-18.38-5.83-25.14s-11.49.22-13.79,5.91h2.9a14.7,14.7,0,0,0-4.86-7.68,1.54,1.54,0,0,0-1.82-.23L1296,102.53l2,.54c-2-3.64-5.12-8.41-9.72-8.81-5.13-.44-6.46,5.08-10.78,5.84-2.65.46-2.72-.22-4.52-1.92a19.69,19.69,0,0,0-2.31-2.16,5.91,5.91,0,0,0-4-1.18c-4,.4-4.77,4.52-7.73,6.27-2.81,1.66-3.86-1.8-5.91-3.39a9,9,0,0,0-4.12-1.73c-4.25-.73-6.27,1.26-9.26,3.66-4.14,3.32-4.15.49-7.14-1.75a7.64,7.64,0,0,0-5.19-1.52c-5.36.34-8.45,5.12-10.86,9.31l2.74.36c-3.13-12.58-20.12-11.09-21.78,1.46l1.9-1.45c-5.65-1.21-7.62-8.5-13.67-9.07a6.28,6.28,0,0,0-4.64,1.42c-1.51,1.18-2.57,4.27-4.1,5.09-2.93,1.56-3.79-2.25-5.66-4a8.25,8.25,0,0,0-4.3-2c-5.71-1-10.06,3.29-13.61,7.15l2.51.66c-4.28-11.09-18.86-11.15-23.28-.13h2.89c-3.7-9.68-16.56-9.66-19.82.34h2.89c-1.37-5.28-5.52-11-11.64-10.53a8.46,8.46,0,0,0-7.72,10.3c.47,1.87,3.36,1.08,2.89-.8Z" transform="translate(4 9.5)"/><path class="cls-12" d="M1091.5,50.5" transform="translate(4 9.5)"/><polygon class="cls-13" points="4.5 727 1545.5 727 1923.5 877 1923.5 1088 4.5 1088 4.5 727"/><rect class="cls-14" x="5" y="7.5" width="1544" height="720"/><polygon class="cls-15" points="1924 7.5 1924 877.5 1549 727.5 1549 7.5 1924 7.5"/><polygon class="cls-16" points="619.5 726.5 1022 727.5 1022 28.5 1022 7.5 619.5 7.5 619.5 726.5"/><rect class="cls-17" x="977" y="381.5" width="27" height="81"/><ellipse class="cls-17" cx="971" cy="412.5" rx="33" ry="9"/><rect class="cls-18" x="674" y="115.5" width="292" height="231"/><polygon class="cls-16" points="81.5 726.5 484 727.5 484 28.5 484 7.5 81.5 7.5 81.5 726.5"/><rect class="cls-17" x="440" y="381.5" width="27" height="81"/><rect class="cls-19" x="137" y="115.5" width="292" height="231"/><ellipse class="cls-17" cx="434" cy="412.5" rx="33" ry="9"/><polygon class="cls-20" points="1324.91 759.5 1325 871.5 1275 871.5 1275 759.5 1324.91 759.5"/><polygon class="cls-20" points="1873.91 759.5 1874 871.5 1824 871.5 1824 759.5 1873.91 759.5"/><polygon class="cls-20" points="1178.91 674.5 1179 786.5 1129 786.5 1129 674.5 1178.91 674.5"/><polygon class="cls-21" points="1613.03 665.55 1849.13 759.25 1278.03 759.5 1144.53 675.44 1613.03 665.55"/><polygon class="cls-21" points="1128.46 585.2 1128.46 674.21 1617.97 665.55 1617.97 585.2 1128.46 585.2"/><polygon class="cls-21" points="1629.1 585.2 1629.1 665.55 1871.38 759.5 1871.38 656.9 1629.1 585.2"/><polyline class="cls-21" points="1128.46 674.21 1278.03 759.5 1285.45 656.9 1128.46 585.2"/><polygon class="cls-22" points="1285.45 759.5 1286.07 656.28 1872 664.93 1872 758.88 1285.45 759.5"/><polygon class="cls-22" points="1617.97 575.42 1129.08 575.93 1286.07 656.28 1872 656.28 1617.97 575.42"/><polygon class="cls-20" points="1275 871.5 1275 759.5 1254.12 745.86 1254 856.5 1275 871.5"/><polygon class="cls-20" points="1128 682.5 1145 690.5 1145 799.5 1129 786.5 1128 682.5"/><polygon class="cls-20" points="1606.83 484.34 1891.78 562.94 1871.36 650.48 1586.41 571.88 1606.83 484.34"/><line class="cls-20" x1="1285" y1="656.5" x2="1872" y2="656.5"/><line class="cls-20" x1="1129" y1="575.5" x2="1586" y2="575.5"/><circle class="cls-23" cx="1568.05" cy="553.82" r="36.49"/><circle class="cls-24" cx="1564.37" cy="497.98" r="30.1"/><path class="cls-25" d="M1585.57,471.44c.51,0,.85-.49,1.07-.94a19,19,0,0,0,1.86-10.36c-.12-1.09-.45-2.34-1.46-2.79a6.61,6.61,0,0,0-2.1-.22c-.88-.08-1.72-.49-2.6-.55a6.79,6.79,0,0,0-3.38,1c-2,1-4.21,2.19-4.72,4.34a21.19,21.19,0,0,1,8.49,6.52,17,17,0,0,0,2.34,2.8" transform="translate(4 9.5)"/><path class="cls-26" d="M1586.33,472.73c2.77-1.27,3.44-6.17,3.68-8.86.21-2.43.41-6.45-2.21-7.82-1.19-.61-2.9-.53-4.19-.77a7.18,7.18,0,0,0-4.24.43c-2.85,1.14-5.52,2.77-6.58,5.77a1.52,1.52,0,0,0,.69,1.7,21.39,21.39,0,0,1,6.08,3.94c1.65,1.58,2.81,3.55,4.44,5.15,1.39,1.34,3.51-.77,2.13-2.13-1.85-1.8-3.15-4-5.12-5.75a24.18,24.18,0,0,0-6-3.81l.69,1.7c1.2-3.44,6.9-5,10-3.63,1.1.5,1.17.57,1.36,1.89a14.55,14.55,0,0,1,0,2.8c-.11,1.57-.62,6.06-2.24,6.8s-.24,3.39,1.51,2.59Z" transform="translate(4 9.5)"/><path class="cls-26" d="M1582.42,468.08a4.78,4.78,0,0,0,2-2.77,9.69,9.69,0,0,0,.27-3.48.6.6,0,0,0-.79-.66c-.58,0-1.16.05-1.74.1-1.6.15-3.39.67-4.08,2.12a.63.63,0,0,0,0,.55.74.74,0,0,0,.35.27,14,14,0,0,1,4.11,3.6" transform="translate(4 9.5)"/><path class="cls-26" d="M1583.17,469.38a7.44,7.44,0,0,0,3.09-6.55c0-1.14,0-2.41-1.24-2.94a7,7,0,0,0-3.6,0c-1.9.28-4.62,1.37-4.87,3.61-.15,1.3.74,1.78,1.7,2.37a14.65,14.65,0,0,1,3.21,3c1.27,1.46,3.39-.67,2.12-2.12a20.59,20.59,0,0,0-3.06-3,4.9,4.9,0,0,0-1-.63c-1-.41.14.71,0,.7.09,0,.55-.46.66-.52a3.33,3.33,0,0,1,.86-.33,8.5,8.5,0,0,1,1.74-.26c.13,0,1.07,0,1.09-.05l-.68-.34v.5a14,14,0,0,1-.38,2.46,3.38,3.38,0,0,1-1.22,1.5c-1.6,1.06-.1,3.66,1.51,2.59Z" transform="translate(4 9.5)"/><path class="cls-25" d="M1547.2,460.16c.09-.5-.37-.91-.78-1.2a19.08,19.08,0,0,0-10-3.31c-1.11,0-2.39.11-3,1a6.94,6.94,0,0,0-.52,2.05c-.2.86-.73,1.63-.91,2.5a6.86,6.86,0,0,0,.46,3.48c.67,2.11,1.57,4.48,3.63,5.29a21.13,21.13,0,0,1,7.67-7.47,17.8,17.8,0,0,0,3.1-1.91" transform="translate(4 9.5)"/><path class="cls-26" d="M1548.64,459.76c-.83-2.84-4.91-4.16-7.51-4.88s-6.78-1.67-8.73.75c-.84,1.05-.94,2.77-1.39,4a6.67,6.67,0,0,0-.42,3.75c.53,3,1.93,6.44,4.77,7.92a1.55,1.55,0,0,0,2.06-.54,20.62,20.62,0,0,1,4.83-5.41c1.71-1.31,3.7-2.13,5.4-3.44,1.51-1.16,0-3.76-1.51-2.59-2,1.52-4.3,2.5-6.26,4.09a24.31,24.31,0,0,0-5.06,5.83l2.06-.53c-3.39-1.77-4-7.2-2.36-10.29.53-1,1-1.19,2.4-1.25a11,11,0,0,1,2.95.47c1.34.33,5.42,1.35,5.88,2.91.54,1.85,3.44,1.06,2.89-.8Z" transform="translate(4 9.5)"/><path class="cls-26" d="M1543.43,462.8a4.76,4.76,0,0,0-2.46-2.4,9.46,9.46,0,0,0-3.4-.77.61.61,0,0,0-.77.69c-.06.58-.12,1.16-.15,1.73-.08,1.61.18,3.45,1.52,4.35a.65.65,0,0,0,.53.13.74.74,0,0,0,.32-.31,13.85,13.85,0,0,1,4.15-3.56" transform="translate(4 9.5)"/><path class="cls-26" d="M1544.72,462.05c-1.11-2.33-3.5-3.45-6-3.79-1.16-.16-2.41-.32-3.11.84a7.2,7.2,0,0,0-.52,3.52c0,1.91.71,4.78,2.89,5.35,1.15.3,1.8-.41,2.45-1.2a14.17,14.17,0,0,1,3.45-2.81c1.61-1,.11-3.65-1.51-2.59a27.11,27.11,0,0,0-2.57,1.82c-.36.28-2.2,1.73-2.12,2.27q1.8,0,1-.6l-.18-.28a3.57,3.57,0,0,1-.35-1.39,5.36,5.36,0,0,1,.18-2.71l-.9.69a5.09,5.09,0,0,1,2.9.59,3.57,3.57,0,0,1,1.79,1.8c.83,1.74,3.42.22,2.59-1.51Z" transform="translate(4 9.5)"/><ellipse class="cls-23" cx="1550.59" cy="588.12" rx="11.47" ry="14.02" transform="translate(896.25 2119.72) rotate(-87.38)"/><ellipse class="cls-23" cx="1579.88" cy="588.12" rx="11.47" ry="14.02" transform="translate(924.2 2148.98) rotate(-87.38)"/><path class="cls-27" d="M1556.25,488.3a32.23,32.23,0,0,0-.59-9.83c-.27-1.59-.62-3.29-1.8-4.39a5.54,5.54,0,0,0-3.48-1.27c-2.05-.12-4.3.54-5.42,2.26a7.45,7.45,0,0,0-1,3.32,38.06,38.06,0,0,0,.06,9.05.83.83,0,0,0,.12.42.86.86,0,0,0,.73.24l11.45.15" transform="translate(4 9.5)"/><path class="cls-26" d="M1557.75,488.3a33.51,33.51,0,0,0-.37-8.6c-.32-2.06-.57-4.39-1.93-6.08-2.62-3.25-8.63-3.05-11.28.05-1.39,1.63-1.61,3.78-1.79,5.84-.2,2.43-.67,6.25.28,8.54.65,1.55,1.85,1.54,3.39,1.57,3.43.07,6.87.09,10.3.13,1.93,0,1.93-3,0-3-3.39,0-6.93.19-10.3-.13l-1.15,0,.52-.28a8.44,8.44,0,0,1-.16-2.84,33.25,33.25,0,0,1,.23-5.09c.32-2.26,1.57-4,4-4.08s3.81,1.14,4.49,3.36a27.84,27.84,0,0,1,.77,10.63c-.21,1.92,2.79,1.91,3,0Z" transform="translate(4 9.5)"/><path class="cls-28" d="M1569.48,500.25a7.16,7.16,0,0,1-4.75,5.48,14,14,0,0,1-2.58.5,9.91,9.91,0,0,1-4.6-.15,8.58,8.58,0,0,1-3.76-3.36.59.59,0,0,1-.16-.48c0-.17.25-.26.42-.31.69-.2,1.43-.21,2.13-.35a2.59,2.59,0,0,0,1.79-1.1c.2-.36.3-.82.67-1a.93.93,0,0,1,1,.27c.27.26.46.59.73.85a3.39,3.39,0,0,0,2,.73,24.85,24.85,0,0,0,6.39,0" transform="translate(4 9.5)"/><path class="cls-28" d="M1568,499.85a6.1,6.1,0,0,1-5.42,4.81c-2.67.45-6.51.36-7.54-2.82l-.69,1.69c1.13-.84,2.83-.39,4-1.34,1.37-1.09,0-1.05,1.21-.28,2.49,1.65,6.32,1.25,9.12,1,1.91-.19,1.93-3.2,0-3s-4.82.65-6.7-.11c-1-.42-1.49-1.56-2.67-1.77s-1.46.26-2.19.85a5.78,5.78,0,0,1-2.47,1.43,5.09,5.09,0,0,0-1.83.66,1.56,1.56,0,0,0-.69,1.7c1.41,4.35,5.93,5.57,10,5.09,4.31-.52,7.72-2.65,8.78-7.08.45-1.88-2.44-2.68-2.89-.8Z" transform="translate(4 9.5)"/><path class="cls-27" d="M1567.55,492.38a8.28,8.28,0,0,0-5.22-2.09,15.12,15.12,0,0,0-6.21.46,8.3,8.3,0,0,0-4.79,3.79,5.73,5.73,0,0,0,.21,5.94,2.18,2.18,0,0,0,.92.81,2.76,2.76,0,0,0,.91.16,9.4,9.4,0,0,0,3.47-.23,3.24,3.24,0,0,0,2.32-2.38,2.68,2.68,0,0,0,1.6,1.9,8.07,8.07,0,0,0,2.53.55c2.13.22,4.6.33,6.07-1.24a4.35,4.35,0,0,0,.69-4.46,7.57,7.57,0,0,0-3.1-3.5" transform="translate(4 9.5)"/><path class="cls-26" d="M1568.61,491.32c-5.5-4.63-17.91-3.52-19.38,4.8-.51,2.9.67,6.19,3.74,6.77s6.53-.45,7.63-3.66h-2.89c1.55,4.11,8.32,4.92,11.75,2.65,4.66-3.08,1.69-8.59-1.76-11.09-1.56-1.13-3.06,1.47-1.51,2.59,2.62,1.9,4.16,5.73-.7,6.54-1.3.21-4.46-.36-4.89-1.48a1.51,1.51,0,0,0-2.89,0c-1,2.94-4.8,1.24-5.6-.87s2.15-4.32,3.64-5c3.06-1.43,8.06-1.37,10.73.89,1.47,1.23,3.61-.88,2.13-2.12Z" transform="translate(4 9.5)"/><ellipse class="cls-29" cx="1567.03" cy="562.61" rx="21.87" ry="15.22"/><circle class="cls-30" cx="1554.14" cy="493.6" r="5.09"/><path class="cls-27" d="M1576.18,488.8a32.55,32.55,0,0,0-.58-9.83c-.28-1.59-.63-3.29-1.81-4.39a5.49,5.49,0,0,0-3.48-1.27c-2-.12-4.3.54-5.42,2.26a7.58,7.58,0,0,0-1,3.31,38.14,38.14,0,0,0,.06,9.06.77.77,0,0,0,.13.42.84.84,0,0,0,.73.24l11.44.15" transform="translate(4 9.5)"/><path class="cls-26" d="M1577.68,488.8a33.07,33.07,0,0,0-.37-8.6c-.32-2.06-.57-4.4-1.93-6.08-2.62-3.25-8.63-3.05-11.28.05-1.39,1.63-1.61,3.78-1.79,5.84-.2,2.43-.67,6.25.28,8.54.65,1.54,1.85,1.53,3.39,1.57,3.43.07,6.87.09,10.3.13,1.93,0,1.93-3,0-3-3.39,0-6.93.19-10.3-.13l-1.14,0,.51-.29a8.37,8.37,0,0,1-.16-2.83,33.44,33.44,0,0,1,.23-5.1c.32-2.25,1.57-4,4-4.07s3.81,1.13,4.49,3.36a27.62,27.62,0,0,1,.77,10.63c-.21,1.92,2.79,1.91,3,0Z" transform="translate(4 9.5)"/><circle class="cls-30" cx="1573.58" cy="493.6" r="5.09"/><ellipse class="cls-31" cx="1564.3" cy="501.5" rx="4.83" ry="2.2"/><path class="cls-25" d="M1536.57,520.15c-8,9.12-11.06,21.7-11,33.81a32.83,32.83,0,0,0,1.82,11.86,15.54,15.54,0,0,0,7.82,8.77c3.68,1.61,8.38,1.13,11.21-1.73a8.52,8.52,0,0,0-2.9-13.89,11.58,11.58,0,0,1,2.7,1.78,2.7,2.7,0,0,0,3,.3,2.57,2.57,0,0,0,.7-.93c1.12-2.22.85-4.9.09-7.27s-2-4.57-2.72-6.94c-1.18-3.69-1.22-7.62-1.25-11.49a2.55,2.55,0,0,1,.71-2.21" transform="translate(4 9.5)"/><path class="cls-26" d="M1535.51,519.09a49.3,49.3,0,0,0-10.79,25.17c-1.22,8.58-1.68,19.27,3.74,26.61,4,5.46,12.11,8.51,18,3.91,6.18-4.81,4.39-13.79-2.19-17.11-1.71-.86-3.21,1.63-1.51,2.59,2,1.16,4.32,3.55,6.88,2.24,1.76-.9,2.36-3.19,2.51-5,.3-3.69-1.52-6.86-2.76-10.22s-3.45-10.89-1.32-14.29c1-1.64-1.57-3.15-2.59-1.52-2.06,3.3-.93,8.85-.21,12.46.59,3,2,5.61,3,8.46.44,1.29,1.58,4.76.74,6-1.47,2.1-3.28.16-4.74-.67l-1.51,2.59c4.28,2.16,6.25,7.69,2.59,11.54-2.73,2.85-7.54,2.68-10.73.8-6.35-3.74-7.53-11.94-7.56-18.64-.07-11.74,2.92-23.62,10.57-32.75,1.23-1.47-.88-3.6-2.12-2.12Z" transform="translate(4 9.5)"/><path class="cls-25" d="M1591.55,520.18c7.82,9.26,10.69,21.88,10.43,34a32.88,32.88,0,0,1-2,11.82,15.49,15.49,0,0,1-8,8.63c-3.71,1.56-8.41,1-11.18-1.92a8.5,8.5,0,0,1,3.13-13.83,11.55,11.55,0,0,0-2.73,1.73,2.68,2.68,0,0,1-3,.25,2.58,2.58,0,0,1-.69-.94c-1.08-2.24-.77-4.91,0-7.27s2-4.54,2.84-6.89c1.24-3.67,1.35-7.61,1.45-11.48a2.55,2.55,0,0,0-.68-2.21" transform="translate(4 9.5)"/><path class="cls-26" d="M1590.49,521.24c7.49,9.26,10.26,21.2,10,32.94-.14,6.41-1.28,13.7-6.85,17.73-3.23,2.33-7.53,2.88-10.85.42-4.82-3.56-2.76-9.89,1.92-12.16l-1.51-2.59c-1.54.84-3.17,2.92-4.73.55-.66-1,.19-3.9.52-5.08.88-3.23,2.75-6,3.48-9.29.79-3.64,2-9.12,0-12.45a1.5,1.5,0,0,0-2.59,1.52c2.34,3.89-.62,11.93-2.19,15.62-1.21,2.82-2.53,5.67-2.32,8.82.13,1.83.68,4.14,2.45,5,2.57,1.32,4.81-1,6.91-2.14,1.72-.93.21-3.42-1.51-2.59-6.41,3.1-8.47,11.55-2.94,16.64,5.74,5.26,14.31,2.35,18.56-3.2,5.51-7.19,5.24-17.83,4.2-26.36a49.44,49.44,0,0,0-10.4-25.54c-1.22-1.5-3.33.63-2.12,2.12Z" transform="translate(4 9.5)"/><path class="cls-26" d="M1543.37,585.83v3.91a1.5,1.5,0,0,0,3,0v-3.91a1.5,1.5,0,0,0-3,0Z" transform="translate(4 9.5)"/><path class="cls-26" d="M1546.93,585.84l-.51,4.67a1.5,1.5,0,0,0,1.5,1.5,1.54,1.54,0,0,0,1.5-1.5l.51-4.67a1.5,1.5,0,1,0-3,0Z" transform="translate(4 9.5)"/><path class="cls-26" d="M1550,586.61l.48,3.9a1.55,1.55,0,0,0,1.5,1.5,1.51,1.51,0,0,0,1.5-1.5l-.48-3.9a1.54,1.54,0,0,0-1.5-1.5,1.52,1.52,0,0,0-1.5,1.5Z" transform="translate(4 9.5)"/><path class="cls-26" d="M1572.87,587.75a2.62,2.62,0,0,1,.6,2,1.55,1.55,0,0,0,1,1.85,1.5,1.5,0,0,0,1.84-1.05,5.46,5.46,0,0,0-.9-4.28,1.54,1.54,0,0,0-2-.54,1.51,1.51,0,0,0-.54,2Z" transform="translate(4 9.5)"/><path class="cls-26" d="M1575.39,586.61v5.08a1.5,1.5,0,0,0,3,0v-5.08a1.5,1.5,0,0,0-3,0Z" transform="translate(4 9.5)"/><path class="cls-26" d="M1578.19,586.23a15,15,0,0,1,.31,4.68c-.15,1.92,2.85,1.91,3,0a18,18,0,0,0-.41-5.48c-.43-1.88-3.32-1.09-2.9.8Z" transform="translate(4 9.5)"/><path class="cls-26" d="M1538.84,566.48l-1.89-1.63a1.54,1.54,0,0,0-2.12,0,1.5,1.5,0,0,0,0,2.12l1.89,1.64a1.5,1.5,0,1,0,2.12-2.13Z" transform="translate(4 9.5)"/><path class="cls-26" d="M1540.4,567.88l-1.23-3.1a1.55,1.55,0,0,0-1.84-1,1.51,1.51,0,0,0-1,1.85l1.23,3.1a1.55,1.55,0,0,0,1.85,1,1.49,1.49,0,0,0,1-1.84Z" transform="translate(4 9.5)"/><path class="cls-26" d="M1583.52,568a10.68,10.68,0,0,0,4.78-4.89,1.56,1.56,0,0,0-.54-2.06,1.53,1.53,0,0,0-2.06.54,8,8,0,0,1-3.69,3.82c-1.72.87-.21,3.46,1.51,2.59Z" transform="translate(4 9.5)"/><path class="cls-26" d="M1587.71,569.32l2.35-2.35a1.5,1.5,0,0,0-2.13-2.12l-2.34,2.35a1.5,1.5,0,0,0,2.12,2.12Z" transform="translate(4 9.5)"/><path class="cls-26" d="M1590.47,571.68a16.72,16.72,0,0,0,3-5.39c.62-1.83-2.27-2.61-2.89-.79a12.69,12.69,0,0,1-2.27,4.06c-1.24,1.47.87,3.6,2.12,2.12Z" transform="translate(4 9.5)"/><path class="cls-26" d="M1536.43,570.22a7.06,7.06,0,0,1-.63-3.14c0-1.93-3-1.93-3,0a10.37,10.37,0,0,0,1,4.65,1.5,1.5,0,1,0,2.59-1.51Z" transform="translate(4 9.5)"/><path class="cls-26" d="M1543.47,565.91l-2.41-3.47a1.53,1.53,0,0,0-2-.54,1.51,1.51,0,0,0-.54,2.05l2.41,3.47a1.56,1.56,0,0,0,2.06.54,1.51,1.51,0,0,0,.53-2.05Z" transform="translate(4 9.5)"/><text x="4" y="9.5"></text><polygon class="cls-32" points="1092 97.5 1311 97.5 1311 233.5 1092.55 233.5 1092 97.5"/><text class="cls-33" transform="translate(1116.04 141.13)">I l<tspan class="cls-34" x="23.56" y="0">o</tspan><tspan class="cls-35" x="34.9" y="0">v</tspan><tspan x="46.56" y="0">e </tspan><tspan class="cls-36" x="66.76" y="0">m</tspan><tspan class="cls-37" x="86.26" y="0">y hom</tspan><tspan class="cls-38" x="153.39" y="0">e</tspan><tspan class="cls-39" x="165.52" y="0">,</tspan><tspan x="170.91" y="0"> </tspan><tspan class="cls-34" x="8.47" y="30">m</tspan><tspan x="27.97" y="30">y Da</tspan><tspan class="cls-40" x="75.94" y="30">d</tspan><tspan class="cls-41" x="88.92" y="30">d</tspan><tspan class="cls-42" x="102.27" y="30">y and </tspan><tspan class="cls-34" x="5.96" y="60">m</tspan><tspan x="25.46" y="60">y</tspan><tspan class="cls-39" x="38.03" y="60"> </tspan><tspan class="cls-43" x="44.85" y="60">T</tspan><tspan x="55.73" y="60">e</tspan><tspan class="cls-44" x="67.61" y="60">d</tspan><tspan class="cls-45" x="80.58" y="60">d</tspan><tspan x="93.94" y="60">y Bear</tspan></text><path class="cls-21" d="M1310.5,899.5" transform="translate(4 9.5)"/><polygon class="cls-46" points="28 841.67 258.96 835.09 496 914.79 252.29 920.74 28 841.67"/><polygon class="cls-46" points="253.31 922.6 253.31 966.05 496 953.64 496 913.91 253.31 922.6"/><polygon class="cls-46" points="253.31 969.15 253.31 922.78 33.59 844.4 33.59 887.46 253.31 969.15"/><rect class="cls-46" x="253.31" y="965.43" width="31.66" height="62.07"/><polygon class="cls-46" points="229.72 959.85 229.72 1009.18 252.07 1027.5 252.07 966.89 229.72 959.85"/><rect class="cls-46" x="464.34" y="953.64" width="31.03" height="54.62"/><polygon class="cls-46" points="32.34 885.98 32.34 921.52 49.72 933.78 49.72 894.56 32.34 885.98"/><path class="cls-47" d="M207.78,763.23c10.92,7.63,19.52,21.28,15.4,33.95C221,803.87,215.72,809,212,815c-4.79,7.56-7.14,16.83-5.58,25.65s7.28,17,15.44,20.7c4.6,2.08,9.71,2.7,14.72,3.3L269,868.46a17.48,17.48,0,0,0,7.1-.13c5.38-1.62,7.81-7.71,9.52-13.05,2.28-7.13,4.59-14.39,4.63-21.87s-2.54-15.35-8.44-20c-3.78-3-8.67-4.39-12-7.83-5.73-5.87-5.05-15.55-1.94-23.14s8.23-14.34,10.53-22.21q-33.21.59-66.34,3.24" transform="translate(4 9.5)"/><path class="cls-48" d="M207,764.53c8.49,6.15,16.2,16,15.69,27-.52,11.24-11,18.8-15.16,28.64-6.47,15.17-2.5,35.06,13.51,42.44,9.22,4.26,20.84,4.15,30.76,5.33,5.73.68,11.45,1.47,17.19,2,4.16.42,8.07.46,11.44-2.34,6.41-5.33,8.62-16.94,10.19-24.57,1.76-8.51,1.73-17.85-3.1-25.42-2.61-4.09-6.26-6.5-10.43-8.82-6.36-3.55-10.27-7.95-10.1-15.57.26-12,9.3-21.51,12.81-32.57a1.51,1.51,0,0,0-1.44-1.9q-33.21.62-66.34,3.24c-1.91.15-1.93,3.15,0,3q33.12-2.62,66.34-3.24l-1.45-1.9c-4.28,13.49-20.86,31.41-9.14,45.74,2.63,3.22,6.4,4.92,9.92,7a20.82,20.82,0,0,1,10.05,13c2.83,10.39-.76,22-4.42,31.77-1.91,5.09-4.7,9.78-10.75,9.88-5.56.1-11.42-1.23-16.95-1.89l-16.23-1.93c-6.09-.72-12.57-1.16-18.1-4.06-8.67-4.53-13.75-14.17-13.91-23.77-.18-11.41,5.75-19.69,12-28.51,5.3-7.4,7.82-15.51,5.05-24.44-2.66-8.56-8.82-15.55-16-20.72-1.56-1.14-3.06,1.46-1.51,2.59Z" transform="translate(4 9.5)"/><path class="cls-49" d="M231.32,664.34a27.35,27.35,0,0,1,1.58-8.15,9.23,9.23,0,0,1,5.78-5.59,2.9,2.9,0,0,1,1.4-.08,2.74,2.74,0,0,1,1.82,2.63c.14,2.43-1.63,4.59-3.67,5.91s-4.41,2.07-6.49,3.33c-1,.58-1.93,1.94-1.07,2.68a1.68,1.68,0,0,0,1.14.31c2.65,0,5.16-1.06,7.66-2s5.25-1.57,7.76-.71,4.42,3.85,3.25,6.23a4.92,4.92,0,0,1-4.51,2.4,14.6,14.6,0,0,1-5.18-1.38l8.55,3.85c2.64,1.19,5.8,3.56,4.69,6.24a3.88,3.88,0,0,1-1.9,1.87c-2.5,1.23-5.63.46-7.81-1.28a16.89,16.89,0,0,1-4.62-6.85c-1.89,2.72-.49,6.38.39,9.57s.47,7.65-2.75,8.42a4.57,4.57,0,0,1-3.11-.49c-4.22-2.19-4.48-8.85-1.11-12.21L220,687.4a7.61,7.61,0,0,1-2.74,1.27c-2.79.46-5.28-2.61-4.91-5.42s2.86-5,5.55-5.81,5.61-.65,8.42-.41c-4.09-.29-8.27-.61-12.05-2.21s-7.16-4.75-7.91-8.79a2.89,2.89,0,0,1,1.76-3.58,8.6,8.6,0,0,1,11,2.84c.73,1.17,1.66,2.75,3,2.38-1.73-3.66-3.5-7.5-3.36-11.54s2.86-8.31,6.88-8.74a4.4,4.4,0,0,1,4.52,2.19,6.43,6.43,0,0,1,.41,2.31l.61,11.77" transform="translate(4 9.5)"/><path class="cls-49" d="M232.82,664.34c.26-2.81.33-7.64,2.7-9.61q1.17-2.38,1.34,1c1.08,1.22,1.07,2,0,2.37-.66.81-2.31,1.16-3.26,1.63-1.85.91-5,2.22-4.67,4.81.3,2.37,2.8,2.41,4.68,2.18a33.81,33.81,0,0,0,6.28-1.87c3.34-1.07,3.92-2.15,5.18,2q2.69,4.08-.63,2.66a10.8,10.8,0,0,1-3.23-1c-1.57-.6-2.7,2.05-1.15,2.75,2.55,1.15,10,3.06,11.54,5.72q-.3,5.38-3.72,3.59a5.13,5.13,0,0,1-3.5-1.92,18.13,18.13,0,0,1-3.37-5.61,1.5,1.5,0,0,0-2.59,0c-1.63,3.2-1,6-.15,9.33.33,1.32,1.71,5.77.13,6.84l-5.29-1a4.92,4.92,0,0,1-.71-2.76,7,7,0,0,1,1.8-5.27c1-1.22-.29-3.32-1.82-2.35L225.81,682c-1.45.93-3.3,2.71-4.91,3.12q-2.49,2.73-3.6-1.68-4.41-3.27,1-4.51c2.52-.91,5.42-.55,8-.35v-3c-4.22-.31-8.72-.57-12.54-2.6-3.06-1.62-8.87-7.21-3.5-9.55,5.91-2.56,7,5.53,11.79,5.79a1.52,1.52,0,0,0,1.3-2.26c-2.1-4.49-5.77-12.38-.63-16.3q2.44-3.43,6.28,1.28l.2,3.92.41,7.85c.1,1.92,3.1,1.93,3,0-.29-5.58,1.38-21.22-9.08-17.28-9.52,3.58-5.88,15.39-2.77,22l1.29-2.25c-.88,0-3.67-4-4.89-4.71a10.6,10.6,0,0,0-5.5-1.44c-3,.06-6.51,1.57-6.9,4.88-.4,3.48,2.61,7.17,5.16,9.12,4.68,3.58,10.71,4.09,16.38,4.51,1.93.15,1.92-2.85,0-3-4.34-.34-9.09-.48-12.58,2.57-2.36,2.06-3.69,5.26-2.36,8.29a6,6,0,0,0,6.28,3.73c2.54-.37,5.12-2.71,7.19-4l9-5.71L232.06,678c-3.86,4.56-3.92,14.12,3.49,15.27,10.83,1.67,3.53-15,5.44-18.74H238.4c2.32,5.24,9.75,13.77,15.92,7.66,6.72-6.68-9.29-12-12.77-13.54l-1.16,2.74c3.24,1.25,7.3,2.42,10.21-.24a5.36,5.36,0,0,0,.93-6.67c-1.66-3-5-3.89-8.19-3.56a27,27,0,0,0-5.77,1.58c-1.08.37-2.39,1.18-3.41.72s2-1.38,2.26-1.51c2.87-1.43,6-3.41,6.79-6.77.54-2.21-.16-5-2.55-5.82-2.75-.9-5.88,1.56-7.45,3.55-2.59,3.3-3,7.6-3.39,11.64-.18,1.92,2.82,1.9,3,0Z" transform="translate(4 9.5)"/><path class="cls-50" d="M243.84,760.39c.68-12.56,1.57-25.13,2-37.69a32.34,32.34,0,0,0-2.32-14.17c-2.12-5.11-5-9.8-6.28-15.24-.44-1.88-3.33-1.08-2.89.8,1,4.5,3.11,8.43,5,12.59a35.44,35.44,0,0,1,3.34,17.9c-.58,11.94-1.28,23.87-1.92,35.81-.1,1.93,2.9,1.92,3,0Z" transform="translate(4 9.5)"/><path class="cls-51" d="M229,665.09c-2.17.13-3.8,2.32-3.91,4.49a8.89,8.89,0,0,0,2.38,5.9,7,7,0,0,0,3.27,2.42c3.09.88,6.29-2.2,6.36-5.42s-2.19-6.09-4.92-7.8" transform="translate(4 9.5)"/><path class="cls-48" d="M228.61,663.64c-8.82,1.5-4.42,15.44,2.85,15.89,3.5.22,6.51-2.79,7.06-6.11.69-4.21-2.3-7.84-5.57-10-1.61-1.08-3.11,1.52-1.52,2.59a9,9,0,0,1,4,4.94c.56,2.15-.5,5.07-2.94,5.56-4.45.87-8.82-9-3.06-10,1.9-.32,1.09-3.21-.8-2.89Z" transform="translate(4 9.5)"/><path class="cls-50" d="M244,718a24.84,24.84,0,0,0,7.4-.51c1.89-.41,1.09-3.3-.79-2.89a22.23,22.23,0,0,1-6.61.4c-1.92-.16-1.91,2.84,0,3Z" transform="translate(4 9.5)"/><path class="cls-50" d="M254.27,715.94c-1.23-2.92.2-6.33,3.65-6.56,3-.2,5.9,1.73,8.31,3.35,1.61,1.07,3.12-1.52,1.52-2.59-3.66-2.45-8.45-5.15-12.87-3a7.54,7.54,0,0,0-3.51,9.64c.74,1.75,3.64,1,2.9-.8Z" transform="translate(4 9.5)"/><path class="cls-50" d="M253.45,719.05c2.24-.53,4.26,1,6.36,1.47a7.48,7.48,0,0,0,4.29-.27,8,8,0,0,0,5.12-6.38c.26-1.88-2.63-2.7-2.89-.79-.51,3.66-3.65,5.26-7,4.18-2.33-.75-4.18-1.7-6.66-1.1-1.88.45-1.09,3.34.79,2.89Z" transform="translate(4 9.5)"/><path class="cls-50" d="M252,717a19.32,19.32,0,0,0,12.69-3.31c1.58-1.07.08-3.67-1.52-2.59A16.66,16.66,0,0,1,252,714c-1.92-.16-1.91,2.84,0,3Z" transform="translate(4 9.5)"/><path class="cls-50" d="M260.91,713.11l-1-4a1.5,1.5,0,0,0-2.89.79l1,4c.48,1.87,3.37,1.07,2.89-.8Z" transform="translate(4 9.5)"/><path class="cls-50" d="M262.15,715.82l3,1.07a1.52,1.52,0,0,0,1.85-1,1.55,1.55,0,0,0-1.05-1.85l-3-1.08a1.5,1.5,0,0,0-.8,2.9Z" transform="translate(4 9.5)"/><path class="cls-50" d="M244.38,739.64l-11-2.56c-1.88-.44-2.68,2.45-.79,2.89l11,2.56c1.88.44,2.68-2.45.8-2.89Z" transform="translate(4 9.5)"/><path class="cls-50" d="M209.36,732.34c3.64-3.06,8.83-3.77,13.46-3.42,3.74.29,5.69,1,6.53,4.49a44,44,0,0,0,1.08,4.54c.64,1.81,3.54,1,2.9-.79-1.76-5-1.19-10.31-7.67-11.14-6.27-.8-13.47,0-18.42,4.2-1.48,1.24.65,3.35,2.12,2.12Z" transform="translate(4 9.5)"/><path class="cls-50" d="M207.37,731.23c-1.75,6.37,3.39,11.51,9.37,12.61,4.56.83,14,1.37,15.64-4.47a1.5,1.5,0,0,0-2.9-.79c-.93,3.4-9,2.75-11.4,2.41-4.42-.63-9.25-3.75-7.82-9a1.5,1.5,0,0,0-2.89-.8Z" transform="translate(4 9.5)"/><path class="cls-50" d="M232.37,738.15a223.31,223.31,0,0,1-21.55-8.08c-1.75-.77-3.28,1.82-1.52,2.59A233.17,233.17,0,0,0,231.57,741c1.85.58,2.64-2.31.8-2.89Z" transform="translate(4 9.5)"/><path class="cls-50" d="M227.39,735.62l-2.07-6.48c-.59-1.83-3.49-1-2.9.8l2.07,6.48c.59,1.83,3.49,1.05,2.9-.8Z" transform="translate(4 9.5)"/><path class="cls-50" d="M221.1,733.39a7.38,7.38,0,0,1-2.69-4.28c-.42-1.89-3.31-1.09-2.89.8a9.92,9.92,0,0,0,3.46,5.6,1.54,1.54,0,0,0,2.12,0,1.51,1.51,0,0,0,0-2.12Z" transform="translate(4 9.5)"/><path class="cls-50" d="M225.5,736a19.08,19.08,0,0,0-11.25,2.72,1.5,1.5,0,0,0,1.52,2.59A16.27,16.27,0,0,1,225.5,739c1.93.13,1.92-2.87,0-3Z" transform="translate(4 9.5)"/><path class="cls-50" d="M216.29,733.63a7,7,0,0,0-6,.1c-1.74.84-.22,3.43,1.51,2.59a3.71,3.71,0,0,1,3-.1,1.55,1.55,0,0,0,2.05-.54,1.51,1.51,0,0,0-.54-2Z" transform="translate(4 9.5)"/></svg>