<svg id="Layer_1" data-name="Layer 1" xmlns="http://www.w3.org/2000/svg" viewBox="0 0 879 423.53"><defs><style>.cls-1,.cls-2,.cls-6{stroke:#fff;}.cls-1,.cls-2,.cls-4,.cls-5,.cls-6{stroke-miterlimit:10;}.cls-1,.cls-4{stroke-width:3px;}.cls-2,.cls-3,.cls-4{fill:#fff;}.cls-2,.cls-5,.cls-6{stroke-width:0.25px;}.cls-4,.cls-5{stroke:#000;}</style></defs><title>logo</title><circle class="cls-1" cx="203.57" cy="203.57" r="202.07"/><path class="cls-2" d="M363.71,386.23V543A149.71,149.71,0,0,0,417,564.32V386.23Z" transform="translate(-237.83 -212.09)"/><path class="cls-2" d="M442.14,264.52c-3.67,0-7.28.23-10.87.58V566.23c3.59.35,7.2.58,10.87.58a111.19,111.19,0,0,0,34.05-5.38V269.9A111.19,111.19,0,0,0,442.14,264.52Z" transform="translate(-237.83 -212.09)"/><path class="cls-3" d="M552.45,380a8,8,0,0,0-11.28-1.44,10,10,0,0,0-1.8,14.09,12.54,12.54,0,0,0,11.87,4.68l.06-8.31A6.43,6.43,0,0,0,552.45,380Z" transform="translate(-237.83 -212.09)"/><path d="M559.81,372.88a19.63,19.63,0,0,0-27.53-3.52,24.54,24.54,0,0,0-4.41,34.41,30.6,30.6,0,0,0,23.25,11.89l.12-18.33a12.54,12.54,0,0,1-11.87-4.68,10,10,0,0,1,1.8-14.09A8,8,0,0,1,552.45,380a6.43,6.43,0,0,1-1.15,9l-.06,8.31a12.52,12.52,0,0,0,5.75-2.42A15.71,15.71,0,0,0,559.81,372.88Z" transform="translate(-237.83 -212.09)"/><path class="cls-2" d="M577.77,355.51c-.6-.78-1.28-1.46-1.93-2.19a151.63,151.63,0,0,1,9.71,29.44A38.16,38.16,0,0,0,577.77,355.51Z" transform="translate(-237.83 -212.09)"/><path class="cls-2" d="M502.84,351.72c-13.8,13.52-23.66,35.36-34.48,51.52l40.32,60.25,41.79,50,.65-97.8a30.6,30.6,0,0,1-23.25-11.89,24.54,24.54,0,0,1,4.41-34.41,19.63,19.63,0,0,1,27.53,3.52,15.71,15.71,0,0,1-2.82,22,12.52,12.52,0,0,1-5.75,2.42l-.12,18.33a30.51,30.51,0,0,0,19.77-6.38,38.16,38.16,0,0,0,14.66-26.52,151.63,151.63,0,0,0-9.71-29.44C557.05,332.24,520.77,334.15,502.84,351.72Z" transform="translate(-237.83 -212.09)"/><circle class="cls-4" cx="675.42" cy="219.96" r="202.07"/><path class="cls-5" d="M830.64,398.83V555.61a149.77,149.77,0,0,0,53.27,21.31V398.83Z" transform="translate(-237.83 -212.09)"/><path class="cls-6" d="M909.07,277.13c-3.66,0-7.28.22-10.87.57V578.84c3.59.35,7.21.57,10.87.57a111.18,111.18,0,0,0,34-5.37V282.5A111.18,111.18,0,0,0,909.07,277.13Z" transform="translate(-237.83 -212.09)"/><path d="M1019.38,392.61a8,8,0,0,0-11.27-1.44,10,10,0,0,0-1.81,14.09,12.51,12.51,0,0,0,11.87,4.67l.06-8.3A6.42,6.42,0,0,0,1019.38,392.61Z" transform="translate(-237.83 -212.09)"/><path class="cls-3" d="M1026.74,385.49A19.63,19.63,0,0,0,999.21,382a24.52,24.52,0,0,0-4.4,34.41,30.6,30.6,0,0,0,23.24,11.89l.12-18.34a12.51,12.51,0,0,1-11.87-4.67,10,10,0,0,1,1.81-14.09,8,8,0,0,1,11.27,1.44,6.42,6.42,0,0,1-1.15,9l-.06,8.3a12.4,12.4,0,0,0,5.75-2.41A15.71,15.71,0,0,0,1026.74,385.49Z" transform="translate(-237.83 -212.09)"/><path class="cls-6" d="M1044.7,368.12c-.6-.78-1.28-1.47-1.93-2.19a151.41,151.41,0,0,1,9.71,29.44A38.12,38.12,0,0,0,1044.7,368.12Z" transform="translate(-237.83 -212.09)"/><path class="cls-5" d="M969.77,364.32c-13.8,13.52-23.66,35.36-34.48,51.53l40.32,60.24,41.79,50,.65-97.8a30.6,30.6,0,0,1-23.24-11.89,24.52,24.52,0,0,1,4.4-34.41,19.63,19.63,0,0,1,27.53,3.52,15.71,15.71,0,0,1-2.82,22,12.4,12.4,0,0,1-5.75,2.41l-.12,18.34a30.56,30.56,0,0,0,19.77-6.38,38.18,38.18,0,0,0,14.66-26.52,151.41,151.41,0,0,0-9.71-29.44C1024,344.85,987.7,346.75,969.77,364.32Z" transform="translate(-237.83 -212.09)"/><polygon class="cls-2" points="152.51 171.35 190.4 105.73 114.63 105.73 152.51 171.35"/><polygon class="cls-5" points="619.44 183.28 657.33 117.66 581.56 117.66 619.44 183.28"/></svg>