<svg id="Layer_1" data-name="Layer 1" xmlns="http://www.w3.org/2000/svg" xmlns:xlink="http://www.w3.org/1999/xlink" viewBox="0 0 1168.74 305.95"><defs><style>.cls-1,.cls-3{fill:#ffcade;}.cls-1,.cls-15,.cls-21,.cls-29{stroke:#ff1d25;}.cls-1,.cls-14,.cls-15,.cls-2,.cls-20,.cls-21,.cls-28,.cls-29,.cls-3,.cls-6,.cls-7{stroke-miterlimit:10;}.cls-1,.cls-14,.cls-15,.cls-20,.cls-21,.cls-28,.cls-29,.cls-3,.cls-6{stroke-width:2px;}.cls-12,.cls-2{fill:blue;}.cls-2{stroke:blue;}.cls-14,.cls-20,.cls-28,.cls-3{stroke:#ed1c24;}.cls-4{fill:lime;}.cls-5{fill:#22b573;}.cls-6{fill:none;stroke:#006837;}.cls-7{stroke:#000;}.cls-8{fill:#ff931e;}.cls-9{fill:#ff0;}.cls-10{fill:#d9e021;}.cls-11{fill:#7ac943;}.cls-13{fill:url(#Sky);}.cls-14,.cls-15{fill:#ff7bac;}.cls-16{fill:#fff;}.cls-17{fill:#ff1d25;}.cls-18{fill:url(#Sky-2);}.cls-19{fill:url(#Sky-3);}.cls-20,.cls-21,.cls-22{fill:#ffb0cd;}.cls-23{fill:url(#Sky-4);}.cls-24{fill:url(#Sky-5);}.cls-25{fill:url(#Sky-6);}.cls-26{fill:url(#Sky-7);}.cls-27{fill:url(#Sky-8);}.cls-28,.cls-29{fill:#ff95bd;}.cls-30{fill:url(#Sky-9);}.cls-31{fill:url(#Sky-10);}.cls-32{fill:url(#Sky-11);}.cls-33{fill:url(#Sky-12);}.cls-34{fill:url(#Sky-13);}.cls-35{fill:url(#Sky-14);}.cls-36{fill:url(#Sky-15);}.cls-37{fill:url(#Sky-16);}.cls-38{fill:url(#Sky-17);}.cls-39{fill:url(#Sky-18);}.cls-40{fill:url(#Sky-19);}.cls-41{fill:url(#Sky-20);}.cls-42{fill:url(#Sky-21);}.cls-43{fill:#603813;}</style><linearGradient id="Sky" x1="1159.08" y1="264.34" x2="1168.59" y2="264.34" gradientUnits="userSpaceOnUse"><stop offset="0" stop-color="#cce0f4"/><stop offset="0.06" stop-color="#c3dcf2"/><stop offset="0.17" stop-color="#a9d2ee"/><stop offset="0.31" stop-color="#80c2e7"/><stop offset="0.46" stop-color="#47acde"/><stop offset="0.57" stop-color="#1e9cd7"/><stop offset="0.87" stop-color="#0075be"/><stop offset="0.99" stop-color="#005b97"/></linearGradient><linearGradient id="Sky-2" x1="404.83" y1="204.45" x2="414.34" y2="204.45" xlink:href="#Sky"/><linearGradient id="Sky-3" x1="1455.23" y1="208.42" x2="1464.74" y2="208.42" gradientTransform="matrix(-1, 0, 0, 1, 1815.61, 0)" xlink:href="#Sky"/><linearGradient id="Sky-4" x1="644.74" y1="204.9" x2="654.25" y2="204.9" xlink:href="#Sky"/><linearGradient id="Sky-5" x1="645.53" y1="227.12" x2="655.05" y2="227.12" xlink:href="#Sky"/><linearGradient id="Sky-6" x1="1145.38" y1="268.51" x2="1154.89" y2="268.51" xlink:href="#Sky"/><linearGradient id="Sky-7" x1="1221.73" y1="228.71" x2="1231.24" y2="228.71" gradientTransform="matrix(-1, 0, 0, 1, 1823.61, 0)" xlink:href="#Sky"/><linearGradient id="Sky-8" x1="1215.32" y1="208.87" x2="1224.83" y2="208.87" gradientTransform="matrix(-1, 0, 0, 1, 1815.61, 0)" xlink:href="#Sky"/><linearGradient id="Sky-9" x1="892.09" y1="201.17" x2="901.61" y2="201.17" xlink:href="#Sky"/><linearGradient id="Sky-10" x1="894.47" y1="224.98" x2="903.99" y2="224.98" xlink:href="#Sky"/><linearGradient id="Sky-11" x1="896.85" y1="244.82" x2="906.37" y2="244.82" xlink:href="#Sky"/><linearGradient id="Sky-12" x1="1140.72" y1="206.96" x2="1150.24" y2="206.96" xlink:href="#Sky"/><linearGradient id="Sky-13" x1="1143.1" y1="230.77" x2="1152.62" y2="230.77" xlink:href="#Sky"/><linearGradient id="Sky-14" x1="1145.48" y1="250.6" x2="1155" y2="250.6" xlink:href="#Sky"/><linearGradient id="Sky-15" x1="974.37" y1="224.98" x2="983.89" y2="224.98" gradientTransform="matrix(-1, 0, 0, 1, 1823.61, 0)" xlink:href="#Sky"/><linearGradient id="Sky-16" x1="984.76" y1="245.21" x2="994.27" y2="245.21" gradientTransform="matrix(-1, 0, 0, 1, 1831.61, 0)" xlink:href="#Sky"/><linearGradient id="Sky-17" x1="730.16" y1="272.72" x2="739.67" y2="272.72" gradientTransform="matrix(-1, 0, 0, 1, 1823.61, 0)" xlink:href="#Sky"/><linearGradient id="Sky-18" x1="967.96" y1="205.14" x2="977.48" y2="205.14" gradientTransform="matrix(-1, 0, 0, 1, 1815.61, 0)" xlink:href="#Sky"/><linearGradient id="Sky-19" x1="725.75" y1="232.62" x2="735.26" y2="232.62" gradientTransform="matrix(-1, 0, 0, 1, 1823.61, 0)" xlink:href="#Sky"/><linearGradient id="Sky-20" x1="736.13" y1="252.86" x2="745.64" y2="252.86" gradientTransform="matrix(-1, 0, 0, 1, 1831.61, 0)" xlink:href="#Sky"/><linearGradient id="Sky-21" x1="719.33" y1="212.79" x2="728.85" y2="212.79" gradientTransform="matrix(-1, 0, 0, 1, 1815.61, 0)" xlink:href="#Sky"/></defs><title>sprite</title><path class="cls-1" d="M193.74,354.82l-8,22.33-6.4,27.47-3.21,7.73H150.49q-.39-27.37-.79-54.75Z" transform="translate(-63 -123.55)"/><polygon class="cls-1" points="39.49 86.45 27.14 91.98 15.52 101.47 8.26 112.54 3.9 126.77 1 143.36 1 156.8 4.63 168.66 10.44 178.14 20.61 188.42 39.49 178.14 30.05 163.92 24.96 148.9 26.41 132.3 30.05 125.18 39.49 86.45"/><path class="cls-1" d="M97.33,350.85l8,22.33,6.4,27.48,3.21,7.72h25.63q.39-27.37.79-54.75Z" transform="translate(-63 -123.55)"/><ellipse class="cls-2" cx="56.15" cy="288.8" rx="24.6" ry="16.27"/><ellipse class="cls-2" cx="111.7" cy="288.8" rx="24.6" ry="16.27"/><polygon class="cls-3" points="107.07 84.75 122.19 89.67 136.53 98.42 145.64 108.86 151.31 122.45 155.29 138.38 155.66 151.36 151.59 162.93 144.8 172.29 132.76 182.57 109.59 173.29 120.64 159.23 126.39 144.55 124.18 128.57 119.58 121.83 107.07 84.75"/><path class="cls-4" d="M100.42,205.48l7.67,10.11L115,219.8h33l6.91-2.52,5.36-4.22,4.61-7.58,7.67-7.59,15.34,78.37,25.31,64.05-3.83,7.58-8.44,7.59-17.64,4.21-18.41-1-21.48.19H120.52l-17-3.37-13-4.22-15.34-8.43,5.37-28.65q3.84-16.43,7.67-32.86l5.37-26.12q.38-3.8.77-7.59Q97.35,226.55,100.42,205.48Z" transform="translate(-63 -123.55)"/><path class="cls-5" d="M100.42,205.48l7.67,10.11L115,219.8h33l6.91-2.52,5.36-4.22,4.61-7.58,7.67-7.59,15.34,78.37,25.31,64.05-3.83,7.58-8.44,7.59-17.64,4.21-18.41-1-21.48.19H120.52l-17-3.37-13-4.22-15.34-8.43,5.37-28.65q3.84-16.43,7.67-32.86l5.37-26.12q.38-3.8.77-7.59Q97.35,226.55,100.42,205.48Z" transform="translate(-63 -123.55)"/><path class="cls-6" d="M100.42,205.48l7.67,10.11L115,219.8h33l6.91-2.52,5.36-4.22,4.61-7.58,7.67-7.59,15.34,78.37,25.31,64.05-3.83,7.58-8.44,7.59-17.64,4.21-18.41-1-21.48.19H120.52l-17-3.37-13-4.22-15.34-8.43,5.37-28.65q3.84-16.43,7.67-32.86l5.37-26.12q.38-3.8.77-7.59Q97.35,226.55,100.42,205.48Z" transform="translate(-63 -123.55)"/><ellipse class="cls-3" cx="21.63" cy="51.93" rx="11.51" ry="11.9"/><ellipse class="cls-3" cx="126.77" cy="53.12" rx="11.51" ry="11.9"/><ellipse class="cls-3" cx="73.21" cy="56.3" rx="46.29" ry="46.42"/><circle class="cls-7" cx="53.26" cy="56.41" r="6.63"/><circle class="cls-7" cx="88.8" cy="56.41" r="6.63"/><path class="cls-1" d="M133.63,193.53s12.7-15,0-11.55" transform="translate(-63 -123.55)"/><path class="cls-8" d="M109.63,194.84a1.5,1.5,0,0,0,0-3,1.5,1.5,0,0,0,0,3Z" transform="translate(-63 -123.55)"/><path class="cls-8" d="M119.55,194.84a1.5,1.5,0,0,0,0-3,1.5,1.5,0,0,0,0,3Z" transform="translate(-63 -123.55)"/><path class="cls-8" d="M113.6,202.38a1.5,1.5,0,0,0,0-3,1.5,1.5,0,0,0,0,3Z" transform="translate(-63 -123.55)"/><path class="cls-8" d="M162.4,194.84a1.5,1.5,0,0,0,0-3,1.5,1.5,0,0,0,0,3Z" transform="translate(-63 -123.55)"/><path class="cls-8" d="M152.87,194.84a1.5,1.5,0,0,0,0-3,1.5,1.5,0,0,0,0,3Z" transform="translate(-63 -123.55)"/><path class="cls-8" d="M157.64,202.77a1.5,1.5,0,0,0,0-3,1.5,1.5,0,0,0,0,3Z" transform="translate(-63 -123.55)"/><path class="cls-9" d="M178.87,147.12c2.31-1.51,2.2-5.13.29-7.09s-5-2.51-7.76-2.24c-1.6.16-3.44.47-4.64-.56s-1.06-3-1.9-4.4c-1.13-1.87-3.93-2.26-6-1.43s-3.63,2.54-5.08,4.2c-.58-4-5.08-6.43-9.25-6.63s-8.23,1.18-12.35,1.82-8.83.36-11.76-2.51c0,3.11-3.7,4.92-6.92,5.31s-6.84.27-9.19,2.41c-2.58,2.35-2.62,6.65-5.54,8.6-1.45,1-3.44,1.21-4.55,2.53a6,6,0,0,0-1.07,2.6l-2.25,9.45a3.35,3.35,0,0,1,.52.41,2.87,2.87,0,0,1,.4.46l.73-.93c-.34,2.55,2.71,4.52,5.38,4.33s5-1.79,7.24-3.16a4.31,4.31,0,0,1,1.9-.76c3.12-.2,3.19,4.93,5.91,6.42,4.75,2.6,8.27-8.07,13.52-6.6,2.17.61,4,3.3,6,2.41.9-.38,1.36-1.34,2.09-2,2.69-2.33,6.75.52,9.07,3.19l8-6.11c.37,3.63,6.86,4.44,8.19,1,1.56,1.58,3.13,3.15,4.69,4.72,1.58-3.73,7.52-4.82,10.41-1.91a24,24,0,0,0,2.24,2.47,8.7,8.7,0,0,0,3.69,1.32l6.66,1.29a3,3,0,0,0,1.79,0c.79-.39,1-1.38,1.09-2.23q.64-5.43,1.3-10.86A52.58,52.58,0,0,1,178.87,147.12Z" transform="translate(-63 -123.55)"/><path class="cls-8" d="M179.93,148.19a6.29,6.29,0,0,0,1.24-8c-2.33-3.93-6.51-3.52-10.38-3.85-4.68-.39-3.82-5.78-8.38-6.72-4.08-.84-7.22,2.12-9.71,4.91l2.5.66c-3.91-15.68-25.17-.86-33.73-8-.76-.62-2.34-.57-2.51.66-.73,5.28-8.4,4-12.13,5.14-3,.89-4.61,2.75-6,5.46s-2,4.07-4.93,5.81a10,10,0,0,0-2.81,1.78c-2.59,2.91-2.84,9.06-3.7,12.71a1.46,1.46,0,0,0,.38,1.46,3.18,3.18,0,0,1,.92.87,1.5,1.5,0,0,0,2.12,0l.73-.93L91,159.12c.42,5.4,5.88,6.66,10.33,5,1.39-.53,3.15-2.3,4.54-2.51,3-.45,2.75,1.3,3.88,3a6.15,6.15,0,0,0,3.76,3.11c4.54,1,6.48-4.39,9.82-6.12,3.87-2,4.73,1.83,8.12,1.81a6.3,6.3,0,0,0,2.08-.61q2.37-2.41,6.15-1.34a14.36,14.36,0,0,1,2.88,2.56,1.51,1.51,0,0,0,1.82.23l8.05-6.11-2.21-.89c1.26,5,8.44,5.8,10.94,1.38l-2.36.31,4.69,4.71a1.52,1.52,0,0,0,2.36-.31,5.41,5.41,0,0,1,8.05-1.59c1,.75,1.51,2,2.54,2.7,2.69,1.9,7.75,2.56,10.91,2.78,6.61.47,5.35-10.15,5.88-14.6a1.52,1.52,0,0,0-1.1-1.45,57.59,57.59,0,0,1-12.53-5.37,1.5,1.5,0,0,0-1.51,2.59,60.75,60.75,0,0,0,13.24,5.67l-1.1-1.44c-.27,2.27-.19,5.06-.87,7.24-1.19,3.86-2.74,4.2-6.41,3.48a11.5,11.5,0,0,1-6.2-2.89,12.42,12.42,0,0,0-2.38-2,8.38,8.38,0,0,0-11.11,3.39l2.35-.31L161,156.83a1.52,1.52,0,0,0-2.35.31c-1.21,2.13-4.83,1.8-5.45-.67a1.52,1.52,0,0,0-2.21-.9q-4,3.06-8.05,6.11l1.82.24c-3.31-3.5-6.74-5.6-11.19-3.19a2.33,2.33,0,0,1-3.24,1.09c-.64-.46-1.31-.9-2-1.31a6.44,6.44,0,0,0-2.27-.74,6.57,6.57,0,0,0-4.49,1.44c-1.87,1.32-3.15,3.35-5,4.63-3.69,2.52-4.22-2.08-6.13-4.2a4.17,4.17,0,0,0-3.52-1.58,6.34,6.34,0,0,0-2.46.93c-1.82.87-9.85,6.61-10.36.13-.08-1.14-1.68-2.18-2.56-1.06l-.73.93h2.12c-1-1.13.68-4.52,1-6,.77-3.21,2.44-4.79,5-6.75,3.13-2.38,3.52-5.87,6.16-8.55,4.33-4.39,15.61-.51,16.77-9l-2.51.66c3.71,3.08,8.14,3.59,12.82,2.95,6-.83,17.93-5.2,20.15,3.71a1.52,1.52,0,0,0,2.51.66,17,17,0,0,1,2.7-2.67c3-2.12,4.66-1.33,6.7,1.56.69,1,.74,2.18,1.79,3a5.8,5.8,0,0,0,3.54.91c1.09,0,2.17-.24,3.26-.21,2.9.08,9.47,2.77,5,6.83C176.38,147.37,178.51,149.48,179.93,148.19Z" transform="translate(-63 -123.55)"/><path class="cls-9" d="M92.44,160.22c-2.52,4.5-8.27,6.09-11.71,9.93-5.21,5.8-2.85,16.49,4.32,19.55a30.92,30.92,0,0,0-9.9,8.18c-1.68,2.12-3.13,4.74-2.64,7.39.81,4.33,6,6.06,10.26,7-4.14,3-8.65,6.5-9.3,11.56a9.67,9.67,0,0,0,7.74,10.38,40.91,40.91,0,0,0-9.83,14.42A18.71,18.71,0,0,1,79.26,236l6.92,13.83A18.5,18.5,0,0,0,80.59,236l16.45,10-14.3-9.32c-.9-.58-1.93-1.42-1.77-2.48.13-.84.93-1.37,1.62-1.87a12.57,12.57,0,0,0-1-21c2.69-.36,4.79-2.7,5.68-5.27s.82-5.36.74-8.08l-.25-7.5c0-.63-.11-1.38-.68-1.67s-1.29.71-.7.94c5.28-1.2,9-6.41,9.69-11.79s-1.16-10.79-3.84-15.49" transform="translate(-63 -123.55)"/><path class="cls-8" d="M91.14,159.46c-4.35,6.63-13.49,7.71-14.6,16.69A14.54,14.54,0,0,0,84.29,191V188.4c-5.45,3-13.63,9-13.31,16.08.26,5.91,6.5,8.1,11.39,9.21L82,211c-4.54,3.29-9.83,7.36-10.07,13.49a11.27,11.27,0,0,0,8.87,11.18l-.66-2.51a45.14,45.14,0,0,0-10.07,14.73L72.82,249A18.22,18.22,0,0,1,80,237.31L78,236.77l6.92,13.84a1.52,1.52,0,0,0,2.8-.76,21.12,21.12,0,0,0-6-14.87l-1.82,2.35,16.46,10c1.66,1,3.12-1.55,1.51-2.59l-7.15-4.66c-1.77-1.15-5.09-2.49-6.36-4.14-1.86-2.43.79-3.45,2.25-5.47a14.24,14.24,0,0,0,1.94-3.73c2.25-6.47-.61-13-6.12-16.69L82,212.83c7.68-2,7.67-10.16,7.47-16.66-.07-2,.78-6.86-1.31-8.36-1.28-.92-2.44-.27-3.26.83a1.5,1.5,0,0,0,0,1.52l.2.41a1.52,1.52,0,0,0,1.7.69c13.45-4,12.15-19.55,6.74-29.49-.92-1.7-3.51-.18-2.59,1.51,4.41,8.12,6.59,21.65-5,25.09l1.69.69-1.34,3.36.09,2.81c0,1.48.14,3,.13,4.45,0,4.19-.55,9-5.36,10.26a1.51,1.51,0,0,0-.36,2.74c4.92,3.3,7,9.45,4.06,14.84-1.25,2.29-5.23,4-5.44,6.75-.18,2.42,2.45,3.71,4.1,4.81,4.2,2.82,8.48,5.53,12.72,8.29l1.51-2.59-16.45-10a1.51,1.51,0,0,0-1.82,2.36,17.86,17.86,0,0,1,5.15,12.75l2.79-.76-6.92-13.83a1.5,1.5,0,0,0-2-.54,21.32,21.32,0,0,0-8.57,13.48c-.3,1.54,2,2.83,2.74,1.16a43.26,43.26,0,0,1,9.6-14.12,1.52,1.52,0,0,0-.66-2.51c-5-1.23-7.92-6-6-10.93,1.42-3.6,4.88-6.08,7.9-8.26,1-.7,1-2.44-.36-2.75-5-1.13-10.73-3-8.33-9.54,1.63-4.48,7-8.07,11-10.26a1.51,1.51,0,0,0,0-2.59C80,185.5,77.35,177.56,81.23,172c3.25-4.65,9.3-6.15,12.5-11,1.07-1.62-1.53-3.13-2.59-1.52Z" transform="translate(-63 -123.55)"/><path class="cls-9" d="M181.52,165c2.52,4.5,8.27,6.09,11.71,9.93,5.21,5.8,2.85,16.49-4.32,19.55a30.82,30.82,0,0,1,9.9,8.19c1.68,2.11,3.13,4.73,2.64,7.38-.81,4.33-6,6.06-10.26,7,4.14,3,8.65,6.51,9.3,11.56a9.67,9.67,0,0,1-7.74,10.38,40.91,40.91,0,0,1,9.83,14.42,18.71,18.71,0,0,0-7.88-12.58l-6.92,13.83a18.5,18.5,0,0,1,5.59-13.81l-16.45,10,14.3-9.31c.9-.59,1.92-1.42,1.77-2.49-.13-.84-.93-1.37-1.62-1.86a12.58,12.58,0,0,1,1-21c-2.69-.36-4.79-2.7-5.69-5.26a22.6,22.6,0,0,1-.73-8.08l.24-7.51c0-.63.12-1.38.69-1.67s1.29.71.7.94c-5.28-1.2-9-6.41-9.69-11.78s1.16-10.8,3.84-15.5" transform="translate(-63 -123.55)"/><path class="cls-8" d="M180.23,165.74c3.19,4.86,9.26,6.37,12.49,11,3.88,5.57,1.29,13.51-4.57,16.41a1.51,1.51,0,0,0,0,2.59c3.94,2.19,9.34,5.78,11,10.26,2.4,6.58-3.34,8.41-8.33,9.55-1.37.31-1.32,2-.36,2.74,3,2.19,6.48,4.66,7.9,8.26,1.93,4.89-.92,9.69-6,10.93a1.51,1.51,0,0,0-.66,2.51,43.26,43.26,0,0,1,9.6,14.12c.7,1.65,3,.4,2.74-1.16a21.3,21.3,0,0,0-8.57-13.48,1.51,1.51,0,0,0-2.05.54l-6.92,13.83,2.79.76a17.86,17.86,0,0,1,5.15-12.75,1.51,1.51,0,0,0-1.82-2.36l-16.45,10,1.51,2.59c4.24-2.76,8.52-5.47,12.72-8.28,1.65-1.11,4.28-2.4,4.1-4.82-.21-2.71-4.19-4.46-5.44-6.75-2.93-5.39-.86-11.54,4.06-14.84a1.52,1.52,0,0,0-.36-2.74c-4.78-1.24-5.33-6.11-5.36-10.26,0-1.17.07-2.34.1-3.51,0-.21-.5-8.57-1.22-7.11l1.69-.69c-11.54-3.44-9.36-17-5-25.09.92-1.69-1.67-3.21-2.59-1.51-5.41,9.95-6.7,25.49,6.74,29.49a1.52,1.52,0,0,0,1.7-.69l.2-.41a1.48,1.48,0,0,0,0-1.51c-.77-1-1.83-1.71-3.11-.95-2.26,1.33-1.4,6.56-1.46,8.47-.2,6.5-.2,14.67,7.47,16.67l-.36-2.75c-5.51,3.7-8.37,10.22-6.12,16.69.79,2.28,5.75,6.87,5,8.68-.58,1.38-5.05,3.29-6.35,4.14l-8,5.18c-1.61,1-.15,3.6,1.51,2.59l16.46-10-1.82-2.35a21.08,21.08,0,0,0-6,14.87,1.52,1.52,0,0,0,2.8.76L196,241.54l-2.05.53a18.26,18.26,0,0,1,7.19,11.69l2.74-1.15a45.3,45.3,0,0,0-10.07-14.73l-.66,2.5A11.27,11.27,0,0,0,202,229.2c-.24-6.13-5.53-10.2-10.07-13.49l-.36,2.74c4.89-1.11,11.13-3.29,11.39-9.21.32-7.08-7.86-13.05-13.32-16.08v2.59a14.53,14.53,0,0,0,7.76-14.84c-1.11-9-10.24-10-14.6-16.69-1.06-1.6-3.66-.1-2.59,1.52Z" transform="translate(-63 -123.55)"/><path class="cls-10" d="M87,294.05q26.52.54,53,1.06c17.26.3,34.48.17,51.59-2.39,3.8-.57,2.18-6.36-1.6-5.79-17.2,2.58-34.61,2.47-51.95,2.14q-25.54-.48-51.08-1c-3.86-.07-3.86,5.93,0,6Z" transform="translate(-63 -123.55)"/><path class="cls-11" d="M112.35,289.65a125.78,125.78,0,0,0,3.3,29.89,16.14,16.14,0,0,0,1.58,4.53,15.2,15.2,0,0,0,4.52,4.48c6.62,4.76,14.41,8.25,22.56,8.5s16.66-3.14,21.31-9.84c4.46-6.44,4.86-14.75,5.11-22.58l.42-13.38a1.93,1.93,0,0,0-.2-1.14c-.35-.54-1.11-.59-1.75-.58l-56.82.52" transform="translate(-63 -123.55)"/><path class="cls-12" d="M109.35,289.65a132,132,0,0,0,3,28.85c1.91,8.63,7.14,13,14.88,16.9,12.82,6.47,30.15,6.94,39.89-5.22,4.73-5.91,6-13.47,6.42-20.81.29-4.76.35-9.53.5-14.3.09-2.89.79-6.51-2.33-8s-8.76-.44-12.3-.41l-15.67.14-31.35.29c-3.86,0-3.87,6,0,6l46-.42,5.88-.05,2.94,0q3.13-.51,1.41.3A33.2,33.2,0,0,0,168,297l-.18,5.73c-.22,6.77-.12,14.09-3.19,20.31-6.4,13-23,12.85-34.35,7.19a35.23,35.23,0,0,1-8.89-5.81c-2.88-2.84-3.27-7.38-4-11.19a125.92,125.92,0,0,1-2-23.57c0-3.86-6-3.86-6,0Z" transform="translate(-63 -123.55)"/><path class="cls-13" d="M1161.5,257.17l-2.1,8.34a7.23,7.23,0,0,0-.32,2.15,4.71,4.71,0,0,0,2.7,3.79,9.4,9.4,0,0,0,4.75.81,2.25,2.25,0,0,0,1-.23,2,2,0,0,0,.77-1.21c1-3.68-1.24-7.4-3.42-10.54l-2.68-3.87" transform="translate(-63 -123.55)"/><path class="cls-12" d="M1161.14,257.07c-.7,2.77-1.55,5.55-2.1,8.34a5.83,5.83,0,0,0,.09,3.89c1.18,2.56,4.31,3.49,6.91,3.34,8.08-.44-1.93-14.17-3.48-16.42-.28-.4-.93,0-.65.38,1.95,2.81,9.74,12.31,4.85,14.71a4.72,4.72,0,0,1-5-.46c-2.41-1.53-2.38-3.12-1.84-5.84s1.31-5.17,1.95-7.74a.37.37,0,0,0-.72-.2Z" transform="translate(-63 -123.55)"/><path class="cls-1" d="M1180.75,350.3l-4.47,23.29-2.1,28.13-2,8.13-25.32,3.95-9.21-54Z" transform="translate(-63 -123.55)"/><polygon class="cls-1" points="1022.83 86.83 1010.48 92.37 998.86 101.85 991.6 112.92 987.24 127.15 984.34 143.75 984.34 157.18 987.97 169.04 993.78 178.53 1003.95 188.8 1022.83 178.53 1013.38 164.3 1008.3 149.28 1009.75 132.68 1013.38 125.56 1022.83 86.83"/><path class="cls-1" d="M1085.59,348.06l4.31,23.33,1.89,28.15,1.92,8.14,25.29,4.13q4.8-27,9.61-53.91Z" transform="translate(-63 -123.55)"/><ellipse class="cls-2" cx="1035.77" cy="289.18" rx="24.6" ry="16.27"/><ellipse class="cls-2" cx="1106.19" cy="288.25" rx="24.6" ry="16.27"/><polygon class="cls-3" points="1090.41 85.13 1105.53 90.05 1119.87 98.81 1128.98 109.24 1134.65 122.83 1138.63 138.76 1139 151.74 1134.92 163.31 1128.14 172.68 1116.1 182.95 1092.93 173.68 1103.98 159.61 1109.73 144.93 1107.52 128.95 1102.92 122.21 1090.41 85.13"/><ellipse class="cls-3" cx="1004.97" cy="52.31" rx="11.51" ry="11.9"/><path class="cls-4" d="M1083.76,208.24l7.67,10.11,6.91,4.21h33l6.9-2.52,5.37-4.22,4.61-7.58,7.67-7.59L1171.21,279l25.31,64.05-3.83,7.58-8.44,7.59-17.64,4.21-18.41-1-21.48.19h-22.86l-17-3.37-13-4.22-15.34-8.42,5.37-28.66q3.83-16.43,7.67-32.86l5.37-26.12c.25-2.53.51-5.06.76-7.59Q1080.7,229.31,1083.76,208.24Z" transform="translate(-63 -123.55)"/><path class="cls-5" d="M1083.76,208.24l7.67,10.11,6.91,4.21h33l6.9-2.52,5.37-4.22,4.61-7.58,7.67-7.59L1171.21,279l25.31,64.05-3.83,7.58-8.44,7.59-17.64,4.21-18.41-1-21.48.19h-22.86l-17-3.37-13-4.22-15.34-8.42,5.37-28.66q3.83-16.43,7.67-32.86l5.37-26.12c.25-2.53.51-5.06.76-7.59Q1080.7,229.31,1083.76,208.24Z" transform="translate(-63 -123.55)"/><path class="cls-6" d="M1083.76,208.24l7.67,10.11,6.91,4.21h33l6.9-2.52,5.37-4.22,4.61-7.58,7.67-7.59L1171.21,279l25.31,64.05-3.83,7.58-8.44,7.59-17.64,4.21-18.41-1-21.48.19h-22.86l-17-3.37-13-4.22-15.34-8.42,5.37-28.66q3.83-16.43,7.67-32.86l5.37-26.12c.25-2.53.51-5.06.76-7.59Q1080.7,229.31,1083.76,208.24Z" transform="translate(-63 -123.55)"/><ellipse class="cls-3" cx="1110.11" cy="53.5" rx="11.51" ry="11.9"/><ellipse class="cls-14" cx="1056.55" cy="56.68" rx="46.29" ry="46.42"/><circle class="cls-7" cx="1036.6" cy="56.79" r="6.63"/><circle class="cls-7" cx="1072.13" cy="56.79" r="6.63"/><path class="cls-15" d="M1117,193.91s12.7-15,0-11.54" transform="translate(-63 -123.55)"/><path class="cls-16" d="M1099.57,217.19a4.12,4.12,0,0,1-.42-3.67,8,8,0,0,1,1.86-2.89c2.68-3,5.43-6,8.56-7.84,4.9-2.86,10.33-2.64,15.58-2.37a17,17,0,0,1,6.24,1.11c3.9,1.73,7.14,6.53,8.34,12.38a3.58,3.58,0,0,1,0,2.25,1.58,1.58,0,0,1-1,.76c-9,2.75-18.19-4.85-27.18-2.4-3.86,1.06-7.76,4-11.54,2.39" transform="translate(-63 -123.55)"/><path class="cls-17" d="M1100.87,216.43c-1.69-3.31,3.84-7.81,5.92-9.68a18.87,18.87,0,0,1,12-4.94c3.32-.18,7.45-.3,10.65.63,3.57,1,8,5.65,8.21,9.55.37,8-14.72,1.44-19,.82a18.89,18.89,0,0,0-6.83.11c-3.88.84-7.32,3.69-11.5,2.54a1.5,1.5,0,0,0-.79,2.89c5.47,1.51,9.63-2.48,15-2.8,5.7-.35,11.09,2.42,16.65,3.2,2.69.38,8.08,1,9.85-1.83,1.88-3-1.48-9.07-3.11-11.49-5.16-7.69-16.7-8.14-24.92-5.68-5.14,1.53-8.94,5.25-12.42,9.18-2.38,2.7-4,5.52-2.24,9,.88,1.72,3.47.21,2.59-1.51Z" transform="translate(-63 -123.55)"/><path class="cls-8" d="M1093,195.22a1.5,1.5,0,0,0,0-3,1.5,1.5,0,0,0,0,3Z" transform="translate(-63 -123.55)"/><path class="cls-8" d="M1102.89,195.22a1.5,1.5,0,0,0,0-3,1.5,1.5,0,0,0,0,3Z" transform="translate(-63 -123.55)"/><path class="cls-8" d="M1096.93,202.76a1.5,1.5,0,0,0,0-3,1.5,1.5,0,0,0,0,3Z" transform="translate(-63 -123.55)"/><path class="cls-8" d="M1136.21,195.22a1.5,1.5,0,0,0,0-3,1.5,1.5,0,0,0,0,3Z" transform="translate(-63 -123.55)"/><path class="cls-8" d="M1145.74,195.22a1.5,1.5,0,0,0,0-3,1.5,1.5,0,0,0,0,3Z" transform="translate(-63 -123.55)"/><path class="cls-8" d="M1141,203.15a1.5,1.5,0,0,0,0-3,1.5,1.5,0,0,0,0,3Z" transform="translate(-63 -123.55)"/><path class="cls-9" d="M1162.21,147.5c2.31-1.51,2.2-5.13.29-7.09s-5-2.51-7.76-2.24c-1.6.16-3.44.47-4.64-.56s-1.06-3-1.9-4.4c-1.13-1.87-3.93-2.26-6-1.43s-3.63,2.54-5.08,4.2c-.58-4-5.08-6.43-9.25-6.63s-8.23,1.18-12.35,1.82-8.84.36-11.76-2.51c0,3.11-3.7,4.92-6.92,5.31s-6.85.27-9.2,2.41c-2.57,2.35-2.62,6.66-5.53,8.6-1.45,1-3.44,1.21-4.55,2.53a6,6,0,0,0-1.07,2.6l-2.25,9.45a4.07,4.07,0,0,1,.52.41,2.87,2.87,0,0,1,.4.46l.73-.93c-.34,2.55,2.71,4.52,5.38,4.33s5-1.79,7.24-3.16a4.18,4.18,0,0,1,1.9-.75c3.12-.21,3.19,4.92,5.91,6.41,4.75,2.6,8.27-8.07,13.52-6.6,2.17.61,3.94,3.3,6,2.41.9-.38,1.36-1.33,2.09-2,2.69-2.33,6.75.52,9.07,3.19l8-6.11c.37,3.63,6.86,4.44,8.19,1l4.69,4.71c1.58-3.73,7.52-4.82,10.41-1.9a25,25,0,0,0,2.24,2.46,8.7,8.7,0,0,0,3.69,1.32l6.66,1.29a2.91,2.91,0,0,0,1.78,0,2.63,2.63,0,0,0,1.1-2.23q.65-5.43,1.3-10.86A52.26,52.26,0,0,1,1162.21,147.5Z" transform="translate(-63 -123.55)"/><path class="cls-8" d="M1163.27,148.57a6.28,6.28,0,0,0,1.23-8c-2.32-3.93-6.5-3.52-10.38-3.85-4.68-.38-3.81-5.78-8.37-6.72-4.08-.84-7.23,2.12-9.72,4.91l2.51.66c-3.91-15.68-25.17-.86-33.74-8-.75-.62-2.33-.57-2.5.66-.73,5.28-8.4,4-12.13,5.14-3,.89-4.61,2.75-6,5.46s-2,4.07-4.92,5.81a10,10,0,0,0-2.81,1.78c-2.59,2.92-2.84,9.06-3.71,12.71a1.49,1.49,0,0,0,.39,1.46,3.18,3.18,0,0,1,.92.87,1.5,1.5,0,0,0,2.12,0l.73-.93-2.56-1.06c.42,5.4,5.88,6.66,10.33,5,1.39-.53,3.14-2.3,4.54-2.51,3-.44,2.75,1.3,3.88,3a6.15,6.15,0,0,0,3.76,3.11c4.54,1,6.48-4.39,9.82-6.12,3.87-2,4.72,1.83,8.12,1.81a6.17,6.17,0,0,0,2.07-.61,5.81,5.81,0,0,1,6.16-1.34,14.64,14.64,0,0,1,2.88,2.56,1.5,1.5,0,0,0,1.81.23l8.06-6.1-2.21-.9c1.26,5,8.44,5.8,10.93,1.38l-2.35.31,4.69,4.71a1.51,1.51,0,0,0,2.35-.31,5.43,5.43,0,0,1,8.06-1.59c1,.75,1.51,2,2.54,2.7,2.69,1.9,7.75,2.56,10.91,2.78,6.61.47,5.34-10.15,5.88-14.6a1.53,1.53,0,0,0-1.1-1.45,57.59,57.59,0,0,1-12.53-5.37,1.5,1.5,0,0,0-1.52,2.59,60.82,60.82,0,0,0,13.25,5.67l-1.1-1.44c-.28,2.27-.19,5.06-.87,7.24-1.2,3.86-2.75,4.2-6.41,3.48a11.5,11.5,0,0,1-6.2-2.89,12.42,12.42,0,0,0-2.38-2,8.39,8.39,0,0,0-11.12,3.39l2.36-.3c-1.56-1.57-3.13-3.14-4.69-4.72a1.53,1.53,0,0,0-2.36.31c-1.2,2.13-4.82,1.8-5.44-.67a1.51,1.51,0,0,0-2.21-.89l-8,6.1,1.82.24c-3.32-3.5-6.74-5.6-11.19-3.19a2.33,2.33,0,0,1-3.24,1.09c-.65-.46-1.31-.9-2-1.31a6.44,6.44,0,0,0-2.27-.74,6.57,6.57,0,0,0-4.49,1.44c-1.87,1.32-3.15,3.35-5,4.63-3.7,2.52-4.22-2.08-6.13-4.2a4.17,4.17,0,0,0-3.52-1.58,6.34,6.34,0,0,0-2.46.93c-1.82.87-9.85,6.61-10.36.13-.09-1.14-1.68-2.18-2.56-1.06l-.73.93h2.12c-1-1.13.68-4.52,1-6,.77-3.21,2.44-4.79,5-6.75,3.13-2.38,3.52-5.87,6.16-8.55,4.32-4.39,15.61-.51,16.77-9l-2.51.66c3.7,3.08,8.14,3.59,12.82,2.95,6-.82,17.93-5.2,20.15,3.71a1.52,1.52,0,0,0,2.51.66,17,17,0,0,1,2.7-2.67c3-2.12,4.66-1.33,6.69,1.56.69,1,.74,2.18,1.8,3a5.8,5.8,0,0,0,3.54.91c1.09,0,2.17-.24,3.26-.21,2.9.08,9.47,2.77,5,6.83C1159.72,147.75,1161.85,149.86,1163.27,148.57Z" transform="translate(-63 -123.55)"/><path class="cls-9" d="M1077.13,162c-4.1,3.13-10,2.3-14.7,4.45-7.08,3.24-9.17,14-3.81,19.65a31,31,0,0,0-12.34,3.57c-2.38,1.28-4.75,3.1-5.36,5.73-1,4.29,3,7.93,6.64,10.48-5,1.07-10.52,2.52-13.13,6.9a9.66,9.66,0,0,0,3,12.6,41,41,0,0,0-14.76,9.32,18.77,18.77,0,0,1,12.24-8.41l.84,15.44a18.47,18.47,0,0,0,.37-14.89l11.11,15.75-9.42-14.24c-.6-.9-1.2-2.06-.63-3,.45-.72,1.4-.88,2.22-1.07a12.57,12.57,0,0,0,7.46-19.67c2.62.74,5.47-.56,7.32-2.56a22.34,22.34,0,0,0,3.88-7.13l2.76-7c.24-.59.45-1.32,0-1.81s-1.46.14-1,.59c5.33,1,10.82-2.31,13.59-7s3.23-10.37,2.64-15.75" transform="translate(-63 -123.55)"/><path class="cls-8" d="M1076.37,160.7c-6.65,4.36-15.58,1.81-20.19,9.6a14.58,14.58,0,0,0,1.38,16.86l1.06-2.56c-6.06.6-14.8,2.51-18.21,8.23-3.5,5.9,2,11.08,6.39,14.34l.36-2.74c-5.58,1.24-12.3,3.06-14.67,8.93-2,5,.07,10.21,4.15,13.31l.36-2.74a46.05,46.05,0,0,0-15.42,9.71l2.35,1.82a18.09,18.09,0,0,1,11.34-7.72l-1.89-1.45.84,15.44a1.51,1.51,0,0,0,3,.4,20.88,20.88,0,0,0,.37-15.69l-2.75,1.16,11.11,15.75c1.1,1.56,3.67.11,2.59-1.51l-4.19-6.33c-1.33-2-4-4.78-4.7-7.12-.78-2.68.84-2.62,3-3.62a14.48,14.48,0,0,0,3.88-2.66c5.09-4.93,5.36-12.43,1.69-18.24l-1.7,2.21c7.21,1.12,10.69-4.88,13-10.74.9-2.26,4.12-7.05,2.8-9.58A2.15,2.15,0,0,0,1059,185a1.48,1.48,0,0,0-.74,1.3l0,.46a1.56,1.56,0,0,0,1.5,1.5c13.73,1.57,18.71-13.12,17.73-24.21-.17-1.91-3.17-1.93-3,0,.84,9.49-2.51,22.61-14.73,21.21l1.5,1.5-2,.82-1,2.61c-.57,1.46-1.14,2.92-1.73,4.37-1.62,4-3.93,9.48-9.35,8.64-1.2-.19-2.46,1-1.69,2.2,3.44,5.44,2.62,12.51-3.1,16.06-1.79,1.11-5.44,1.18-6.59,3.16-1.26,2.18.63,4.39,1.68,6.08,2.66,4.29,5.58,8.45,8.37,12.66l2.59-1.51-11.1-15.76c-.91-1.28-3.37-.55-2.75,1.16a18.29,18.29,0,0,1-.36,14.1l2.94.39-.84-15.44a1.52,1.52,0,0,0-1.9-1.44,21.44,21.44,0,0,0-13.14,9.09c-1,1.45,1.16,3,2.36,1.82a42.43,42.43,0,0,1,14.1-8.94,1.53,1.53,0,0,0,.36-2.74,8.05,8.05,0,0,1-.05-13.05c2.8-2.19,6.45-2.95,9.85-3.71,1.38-.3,1.31-2,.36-2.74-4.82-3.56-9-9-1.87-13.27a29,29,0,0,1,12.17-3.71,1.52,1.52,0,0,0,1.06-2.56c-4.15-4.92-3.15-13.29,2.49-16.76,4.78-2.94,10.91-1.83,15.72-5,1.6-1,.1-3.65-1.52-2.59Z" transform="translate(-63 -123.55)"/><path class="cls-9" d="M1163.66,164.47c4.6,2.34,10.26.47,15.26,1.75,7.55,1.93,11.52,12.13,7.26,18.66a30.75,30.75,0,0,1,12.78,1.31c2.57.82,5.23,2.19,6.29,4.68,1.74,4-1.58,8.34-4.65,11.49,5.09.16,10.8.6,14.14,4.44a9.66,9.66,0,0,1-.66,12.93,40.88,40.88,0,0,1,16.18,6.54,18.73,18.73,0,0,0-13.54-6.09l1.93,15.34a18.45,18.45,0,0,1-3-14.59l-8.12,17.49,6.73-15.7c.42-1,.81-2.24.08-3a3.23,3.23,0,0,0-2.38-.65,12.57,12.57,0,0,1-10.85-18c-2.44,1.2-5.48.42-7.66-1.22a22.34,22.34,0,0,1-5.09-6.31l-4-6.37c-.33-.54-.67-1.22-.36-1.77s1.47-.13,1.11.39c-5.06,1.93-11-.33-14.61-4.42s-5-9.62-5.41-15" transform="translate(-63 -123.55)"/><path class="cls-8" d="M1163.26,165.91c5.58,2.32,12.31-.28,17.55,2.7a11.59,11.59,0,0,1,4.07,15.51,1.51,1.51,0,0,0,1.3,2.26c4.51-.35,9.25-.15,13.47,1.69,7.27,3.18,3.71,9.16-.12,13.23a1.52,1.52,0,0,0,1.07,2.56c3.59.14,7.6.21,10.76,2.13a8.09,8.09,0,0,1,1.66,12.68,1.51,1.51,0,0,0,.66,2.51,43.71,43.71,0,0,1,15.83,6.38c1.44.94,3-1.16,1.81-2.35a21.35,21.35,0,0,0-14.6-6.53,1.5,1.5,0,0,0-1.5,1.5l1.93,15.34,2.79-.75a17.88,17.88,0,0,1-2.87-13.44c.27-1.53-2-2.82-2.74-1.15l-8.11,17.48,2.59,1.52,6-14c.79-1.84,2.26-4.38.84-6.31-1.67-2.25-5.95-1.46-8.22-2.62-5.7-2.91-7.13-9.3-4.86-14.9a1.51,1.51,0,0,0-1.85-1.84c-4.9,1.7-8.25-2.46-10.62-6.15-.82-1.28-1.61-2.59-2.42-3.88l-1-1.6c-.26-1.58-.93-2-2-1.22l-1.1-1.44.06.45,1.1-1.44c-11.51,3.48-17.27-8.68-18.12-18-.17-1.91-3.18-1.92-3,0,1,11.27,8.46,25,21.92,20.89a1.53,1.53,0,0,0,1.1-1.45l-.06-.45a1.59,1.59,0,0,0-1.1-1.45,2.18,2.18,0,0,0-2.9,1.11c-1.09,2.56,2.89,6.74,4,8.5,3.31,5.31,7.85,11.48,14.94,9l-1.85-1.85c-2.49,6.16-1,13.18,4.5,17.18a14.43,14.43,0,0,0,4,2.06c.68.22,1.56.24,2.21.53,1.75.76,1.21-1,1.7,1.75.44,2.5-1.51,5.41-2.49,7.69l-3.36,7.85c-.75,1.74,1.77,3.29,2.59,1.52l8.11-17.49-2.74-1.15a21,21,0,0,0,3.17,15.74c.73,1.12,3,.84,2.8-.76l-1.93-15.34-1.5,1.5a18.14,18.14,0,0,1,12.48,5.65L1231,225a45.55,45.55,0,0,0-16.55-6.69l.67,2.51c3.58-3.91,4.47-9.75,1.28-14.22-3.55-5-10.23-5.5-15.82-5.71l1.06,2.56c3.57-3.8,7.83-9.47,4.11-14.61-4-5.54-13.54-5.9-19.59-5.43l1.29,2.26a14.49,14.49,0,0,0-1.44-16.38c-5.91-7.28-14.41-3.1-22-6.24-1.78-.74-2.56,2.16-.8,2.89Z" transform="translate(-63 -123.55)"/><path class="cls-10" d="M1070.35,294.43q26.52.54,53,1.06c17.26.3,34.48.17,51.58-2.39,3.81-.57,2.19-6.36-1.59-5.79-17.2,2.58-34.61,2.47-52,2.14q-25.54-.48-51.08-1c-3.86-.07-3.86,5.93,0,6Z" transform="translate(-63 -123.55)"/><path class="cls-11" d="M1095.69,290a125.78,125.78,0,0,0,3.3,29.89,15.83,15.83,0,0,0,1.58,4.53,15.2,15.2,0,0,0,4.52,4.48c6.62,4.76,14.41,8.25,22.56,8.5s16.66-3.14,21.3-9.84c4.47-6.44,4.87-14.75,5.11-22.58l.43-13.38a2,2,0,0,0-.2-1.14,2,2,0,0,0-1.75-.58l-56.83.52" transform="translate(-63 -123.55)"/><path class="cls-12" d="M1092.69,290a132,132,0,0,0,3,28.85c1.91,8.63,7.14,13,14.88,16.9,12.82,6.47,30.15,6.94,39.89-5.22,4.73-5.91,6-13.47,6.42-20.81.29-4.76.35-9.53.5-14.29.09-2.9.78-6.52-2.33-8-3.27-1.61-8.76-.44-12.3-.41l-15.67.15-31.36.28c-3.85,0-3.86,6,0,6l46-.42,5.88-.05,2.94,0q3.14-.51,1.4.3a35.66,35.66,0,0,0-.67,4.14c-.06,1.91-.12,3.82-.19,5.73-.21,6.77-.11,14.09-3.18,20.31-6.4,13-23,12.85-34.36,7.19a35.35,35.35,0,0,1-8.88-5.81c-2.88-2.84-3.27-7.38-4-11.19a125.92,125.92,0,0,1-2-23.57c0-3.86-6-3.86-6,0Z" transform="translate(-63 -123.55)"/><path class="cls-1" d="M440,338.83l.05,23.71,3.32,28-.39,8.36-24.1,8.71q-9.68-25.61-19.36-51.22Z" transform="translate(-63 -123.55)"/><polygon class="cls-1" points="286.83 86.45 274.49 91.98 262.87 101.47 255.6 112.54 251.25 126.77 248.34 143.36 248.34 156.8 251.97 168.66 257.78 178.14 267.95 188.42 286.83 178.14 277.39 163.92 272.31 148.9 273.76 132.3 277.39 125.18 286.83 86.45"/><path class="cls-1" d="M344.67,350.85l8,22.33,6.41,27.48,3.2,7.72h25.63q.39-27.37.79-54.75Z" transform="translate(-63 -123.55)"/><ellipse class="cls-2" cx="303.49" cy="288.8" rx="24.6" ry="16.27"/><ellipse class="cls-2" cx="375.77" cy="286.01" rx="24.6" ry="16.27"/><polygon class="cls-3" points="354.42 84.75 369.53 89.67 383.88 98.42 392.99 108.86 398.66 122.45 402.64 138.38 403.01 151.36 398.93 162.93 392.15 172.29 380.1 182.57 356.93 173.29 367.99 159.23 373.74 144.55 371.52 128.57 366.92 121.83 354.42 84.75"/><path class="cls-4" d="M347.77,205.48l7.67,10.11,6.9,4.21h33l6.9-2.52,5.37-4.22,4.6-7.58,7.67-7.59,15.34,78.37,25.32,64.05-3.84,7.58-8.44,7.59-17.64,4.21-18.41-1-21.48.19H367.86l-17-3.37-13-4.22-15.34-8.43,5.37-28.65q3.84-16.43,7.67-32.86l5.37-26.12c.26-2.53.51-5.06.77-7.59Q344.71,226.55,347.77,205.48Z" transform="translate(-63 -123.55)"/><path class="cls-5" d="M347.77,205.48l7.67,10.11,6.9,4.21h33l6.9-2.52,5.37-4.22,4.6-7.58,7.67-7.59,15.34,78.37,25.32,64.05-3.84,7.58-8.44,7.59-17.64,4.21-18.41-1-21.48.19H367.86l-17-3.37-13-4.22-15.34-8.43,5.37-28.65q3.84-16.43,7.67-32.86l5.37-26.12c.26-2.53.51-5.06.77-7.59Q344.71,226.55,347.77,205.48Z" transform="translate(-63 -123.55)"/><path class="cls-6" d="M347.77,205.48l7.67,10.11,6.9,4.21h33l6.9-2.52,5.37-4.22,4.6-7.58,7.67-7.59,15.34,78.37,25.32,64.05-3.84,7.58-8.44,7.59-17.64,4.21-18.41-1-21.48.19H367.86l-17-3.37-13-4.22-15.34-8.43,5.37-28.65q3.84-16.43,7.67-32.86l5.37-26.12c.26-2.53.51-5.06.77-7.59Q344.71,226.55,347.77,205.48Z" transform="translate(-63 -123.55)"/><ellipse class="cls-3" cx="268.98" cy="51.93" rx="11.51" ry="11.9"/><ellipse class="cls-3" cx="374.12" cy="53.12" rx="11.51" ry="11.9"/><ellipse class="cls-3" cx="320.55" cy="56.3" rx="46.29" ry="46.42"/><circle class="cls-7" cx="300.61" cy="56.41" r="6.63"/><circle class="cls-7" cx="336.14" cy="56.41" r="6.63"/><path class="cls-1" d="M381,193.53s12.69-15,0-11.55" transform="translate(-63 -123.55)"/><path class="cls-16" d="M367.34,214.32a1.63,1.63,0,0,1-.35-2,4.71,4.71,0,0,1,1.53-1.58,30,30,0,0,1,7.05-4.29c4-1.57,8.5-1.45,12.82-1.3a20.46,20.46,0,0,1,5.13.6,10.4,10.4,0,0,1,6.87,6.78,1.35,1.35,0,0,1-.05,1.24,1.45,1.45,0,0,1-.85.41c-7.36,1.5-15-2.66-22.37-1.31-3.18.58-6.38,2.16-9.5,1.3" transform="translate(-63 -123.55)"/><path class="cls-17" d="M368.64,213.57c-.72-1.26,5.2-4.69,6.18-5.16a22.23,22.23,0,0,1,9.49-1.84,37.19,37.19,0,0,1,7.31.39,8.47,8.47,0,0,1,5,2.52c2,2,3.77,3.56-.29,3.53-4.35,0-8.52-1.24-12.82-1.71-5.26-.57-10.43,2.21-15.48,1.42-1.89-.29-2.7,2.6-.8,2.9,4.6.71,8.52-1.48,13.08-1.53s9.06,1.46,13.63,1.82c1.95.15,6.55.63,7.78-1.57,1.12-2-1.06-5.06-2.25-6.43-4.8-5.52-14.63-5.15-21.19-3.8-3.95.82-15.43,5.36-12.22,11a1.5,1.5,0,0,0,2.59-1.51Z" transform="translate(-63 -123.55)"/><path class="cls-8" d="M357,194.84a1.5,1.5,0,0,0,0-3,1.5,1.5,0,0,0,0,3Z" transform="translate(-63 -123.55)"/><path class="cls-8" d="M366.89,194.84a1.5,1.5,0,0,0,0-3,1.5,1.5,0,0,0,0,3Z" transform="translate(-63 -123.55)"/><path class="cls-8" d="M360.94,202.38a1.5,1.5,0,0,0,0-3,1.5,1.5,0,0,0,0,3Z" transform="translate(-63 -123.55)"/><path class="cls-8" d="M400.22,194.84a1.5,1.5,0,0,0,0-3,1.5,1.5,0,0,0,0,3Z" transform="translate(-63 -123.55)"/><path class="cls-8" d="M409.74,194.84a1.5,1.5,0,0,0,0-3,1.5,1.5,0,0,0,0,3Z" transform="translate(-63 -123.55)"/><path class="cls-8" d="M405,202.77a1.5,1.5,0,0,0,0-3,1.5,1.5,0,0,0,0,3Z" transform="translate(-63 -123.55)"/><path class="cls-9" d="M426.22,147.12c2.31-1.51,2.2-5.13.29-7.09s-5-2.51-7.76-2.24c-1.61.16-3.45.47-4.64-.56s-1.06-3-1.9-4.4c-1.14-1.87-3.94-2.26-6-1.43s-3.62,2.54-5.08,4.2c-.57-4-5.08-6.43-9.25-6.63s-8.22,1.18-12.35,1.82-8.83.36-11.75-2.51c.05,3.11-3.71,4.92-6.92,5.31s-6.85.27-9.2,2.41c-2.58,2.35-2.62,6.65-5.54,8.6-1.45,1-3.44,1.21-4.55,2.53a6.17,6.17,0,0,0-1.07,2.6c-.75,3.15-1.49,6.3-2.24,9.45a3.89,3.89,0,0,1,.52.41,3.39,3.39,0,0,1,.39.46l.74-.93c-.34,2.55,2.7,4.52,5.38,4.33s5-1.79,7.23-3.16a4.36,4.36,0,0,1,1.9-.76c3.13-.2,3.19,4.93,5.91,6.42,4.75,2.6,8.28-8.07,13.52-6.6,2.18.61,3.95,3.3,6,2.41.9-.38,1.36-1.34,2.09-2,2.68-2.33,6.74.52,9.06,3.19l8.05-6.11c.37,3.63,6.87,4.44,8.19,1l4.69,4.72c1.58-3.73,7.52-4.82,10.42-1.91a21.9,21.9,0,0,0,2.24,2.47,8.66,8.66,0,0,0,3.68,1.32l6.67,1.29a2.92,2.92,0,0,0,1.78,0c.8-.39,1-1.38,1.09-2.23q.66-5.43,1.3-10.86A52.35,52.35,0,0,1,426.22,147.12Z" transform="translate(-63 -123.55)"/><path class="cls-8" d="M427.28,148.19a6.28,6.28,0,0,0,1.23-8c-2.33-3.93-6.5-3.52-10.38-3.85-4.68-.39-3.81-5.78-8.38-6.72-4.07-.84-7.22,2.12-9.71,4.91l2.51.66c-3.91-15.68-25.18-.86-33.74-8-.75-.62-2.34-.57-2.51.66-.72,5.28-8.4,4-12.13,5.14-3,.89-4.6,2.75-5.95,5.46s-2,4.07-4.93,5.81a10,10,0,0,0-2.81,1.78c-2.58,2.91-2.83,9.06-3.7,12.71a1.49,1.49,0,0,0,.39,1.46,3.15,3.15,0,0,1,.91.87,1.5,1.5,0,0,0,2.12,0l.74-.93-2.56-1.06c.42,5.4,5.87,6.66,10.32,5,1.39-.53,3.15-2.3,4.55-2.51,2.95-.45,2.74,1.3,3.87,3,.94,1.44,2,2.73,3.77,3.11,4.53,1,6.48-4.39,9.81-6.12,3.88-2,4.73,1.83,8.13,1.81a6.31,6.31,0,0,0,2.07-.61q2.37-2.41,6.16-1.34a14.58,14.58,0,0,1,2.87,2.56,1.51,1.51,0,0,0,1.82.23l8.05-6.11-2.2-.89c1.25,5,8.44,5.8,10.93,1.38l-2.36.31,4.69,4.71a1.52,1.52,0,0,0,2.36-.31,5.41,5.41,0,0,1,8-1.59c1,.75,1.52,2,2.55,2.7,2.68,1.9,7.74,2.56,10.91,2.78,6.6.47,5.34-10.15,5.87-14.6a1.51,1.51,0,0,0-1.1-1.45A57.8,57.8,0,0,1,427,145.83a1.5,1.5,0,0,0-1.51,2.59,60.75,60.75,0,0,0,13.24,5.67l-1.1-1.44c-.27,2.27-.19,5.06-.86,7.24-1.2,3.86-2.75,4.2-6.41,3.48a11.47,11.47,0,0,1-6.2-2.89,12.8,12.8,0,0,0-2.39-2,8.38,8.38,0,0,0-11.11,3.39l2.36-.31-4.69-4.71a1.52,1.52,0,0,0-2.36.31c-1.2,2.13-4.83,1.8-5.45-.67a1.51,1.51,0,0,0-2.2-.9l-8.05,6.11,1.81.24c-3.31-3.5-6.74-5.6-11.18-3.19a2.34,2.34,0,0,1-3.24,1.09c-.65-.46-1.31-.9-2-1.31a5.81,5.81,0,0,0-6.76.7c-1.88,1.32-3.16,3.35-5,4.63-3.69,2.52-4.22-2.08-6.13-4.2a4.15,4.15,0,0,0-3.52-1.58,6.46,6.46,0,0,0-2.46.93c-1.81.87-9.85,6.61-10.35.13-.09-1.14-1.68-2.18-2.56-1.06l-.74.93h2.12c-.95-1.13.69-4.52,1.05-6,.76-3.21,2.43-4.79,5-6.75,3.12-2.38,3.52-5.87,6.16-8.55,4.32-4.39,15.6-.51,16.77-9l-2.51.66c3.7,3.08,8.13,3.59,12.81,2.95,6-.83,17.93-5.2,20.15,3.71a1.52,1.52,0,0,0,2.51.66,17.11,17.11,0,0,1,2.71-2.67c3-2.12,4.65-1.33,6.69,1.56.69,1,.74,2.18,1.79,3a5.8,5.8,0,0,0,3.54.91c1.09,0,2.17-.24,3.27-.21,2.89.08,9.46,2.77,5,6.83C423.72,147.37,425.85,149.48,427.28,148.19Z" transform="translate(-63 -123.55)"/><path class="cls-9" d="M339.78,160.22c-2.51,4.5-8.26,6.09-11.71,9.93-5.21,5.8-2.84,16.49,4.33,19.55a30.85,30.85,0,0,0-9.91,8.18c-1.67,2.12-3.13,4.74-2.63,7.39.8,4.33,5.95,6.06,10.25,7-4.14,3-8.64,6.5-9.29,11.56a9.66,9.66,0,0,0,7.73,10.38,40.91,40.91,0,0,0-9.83,14.42A18.75,18.75,0,0,1,326.6,236l6.92,13.83A18.46,18.46,0,0,0,327.93,236l16.46,10-14.31-9.32c-.9-.58-1.92-1.42-1.76-2.48.12-.84.93-1.37,1.62-1.87a12.57,12.57,0,0,0-1-21c2.7-.36,4.79-2.7,5.69-5.27a22.34,22.34,0,0,0,.73-8.08l-.24-7.5c0-.63-.12-1.38-.68-1.67s-1.29.71-.71.94c5.28-1.2,9-6.41,9.7-11.79s-1.16-10.79-3.85-15.49" transform="translate(-63 -123.55)"/><path class="cls-8" d="M338.49,159.46c-4.36,6.63-13.5,7.71-14.61,16.69A14.54,14.54,0,0,0,331.64,191V188.4c-5.46,3-13.63,9-13.32,16.08.26,5.91,6.5,8.1,11.39,9.21l-.35-2.74c-4.55,3.29-9.84,7.36-10.08,13.49a11.28,11.28,0,0,0,8.87,11.18l-.66-2.51a45.3,45.3,0,0,0-10.07,14.73l2.75,1.16a18.18,18.18,0,0,1,7.19-11.69l-2.06-.54,6.93,13.84a1.51,1.51,0,0,0,2.79-.76A21,21,0,0,0,329,235l-1.81,2.35,16.45,10c1.66,1,3.13-1.55,1.52-2.59L338,240.12c-1.76-1.15-5.09-2.49-6.36-4.14-1.85-2.43.79-3.45,2.25-5.47a14.58,14.58,0,0,0,1.95-3.73c2.25-6.47-.62-13-6.12-16.69l-.36,2.74c7.68-2,7.66-10.16,7.46-16.66-.06-2,.79-6.86-1.3-8.36-1.28-.92-2.45-.27-3.27.83a1.53,1.53,0,0,0,0,1.52l.21.41a1.51,1.51,0,0,0,1.69.69c13.45-4,12.15-19.55,6.75-29.49-.92-1.7-3.52-.18-2.59,1.51,4.41,8.12,6.59,21.65-5,25.09l1.7.69-1.35,3.36.09,2.81c.05,1.48.14,3,.13,4.45,0,4.19-.55,9-5.36,10.26a1.52,1.52,0,0,0-.36,2.74c4.92,3.3,7,9.45,4.06,14.84-1.24,2.29-5.23,4-5.43,6.75-.19,2.42,2.45,3.71,4.09,4.81,4.2,2.82,8.48,5.53,12.72,8.29l1.52-2.59-16.46-10a1.51,1.51,0,0,0-1.82,2.36A17.82,17.82,0,0,1,332,249.85l2.8-.76-6.92-13.83a1.52,1.52,0,0,0-2.06-.54,21.36,21.36,0,0,0-8.57,13.48c-.29,1.54,2,2.83,2.75,1.16a43.08,43.08,0,0,1,9.59-14.12,1.51,1.51,0,0,0-.66-2.51c-5-1.23-7.91-6-6-10.93,1.41-3.6,4.88-6.08,7.89-8.26,1-.7,1-2.44-.36-2.75-5-1.13-10.73-3-8.33-9.54,1.63-4.48,7-8.07,11-10.26a1.51,1.51,0,0,0,0-2.59c-5.86-2.9-8.45-10.84-4.57-16.41,3.24-4.65,9.3-6.15,12.5-11,1.06-1.62-1.54-3.13-2.59-1.52Z" transform="translate(-63 -123.55)"/><path class="cls-9" d="M428.87,165c2.51,4.5,8.26,6.09,11.71,9.93,5.21,5.8,2.84,16.49-4.33,19.55a30.71,30.71,0,0,1,9.9,8.19c1.68,2.11,3.13,4.73,2.64,7.38-.8,4.33-6,6.06-10.25,7,4.14,3,8.64,6.51,9.29,11.56a9.67,9.67,0,0,1-7.73,10.38,40.91,40.91,0,0,1,9.83,14.42,18.79,18.79,0,0,0-7.88-12.58l-6.92,13.83a18.46,18.46,0,0,1,5.59-13.81l-16.46,10,14.31-9.31c.9-.59,1.92-1.42,1.76-2.49-.12-.84-.93-1.37-1.62-1.86a12.57,12.57,0,0,1,1-21c-2.7-.36-4.8-2.7-5.69-5.26a22.16,22.16,0,0,1-.73-8.08l.24-7.51c0-.63.11-1.38.68-1.67s1.29.71.7.94c-5.28-1.2-9-6.41-9.69-11.78s1.16-10.8,3.84-15.5" transform="translate(-63 -123.55)"/><path class="cls-8" d="M427.57,165.74c3.2,4.86,9.26,6.37,12.5,11,3.88,5.57,1.29,13.51-4.58,16.41a1.51,1.51,0,0,0,0,2.59c3.94,2.19,9.35,5.78,11,10.26,2.39,6.58-3.34,8.41-8.33,9.55a1.52,1.52,0,0,0-.36,2.74c3,2.19,6.47,4.66,7.89,8.26,1.93,4.89-.92,9.69-6,10.93A1.51,1.51,0,0,0,439,240a43.23,43.23,0,0,1,9.59,14.12c.71,1.65,3,.4,2.74-1.16a21.3,21.3,0,0,0-8.57-13.48,1.51,1.51,0,0,0-2.05.54l-6.92,13.83,2.8.76a17.78,17.78,0,0,1,5.15-12.75A1.51,1.51,0,0,0,440,239.5l-16.46,10,1.52,2.59c4.23-2.76,8.51-5.47,12.71-8.28,1.65-1.11,4.28-2.4,4.1-4.82-.2-2.71-4.19-4.46-5.44-6.75-2.92-5.39-.85-11.54,4.07-14.84a1.52,1.52,0,0,0-.36-2.74c-4.78-1.24-5.34-6.11-5.37-10.26,0-1.17.07-2.34.11-3.51,0-.21-.51-8.57-1.23-7.11l1.69-.69c-11.54-3.44-9.36-17-4.95-25.09.92-1.69-1.67-3.21-2.59-1.51-5.41,9.95-6.7,25.49,6.75,29.49a1.51,1.51,0,0,0,1.69-.69l.2-.41a1.46,1.46,0,0,0,0-1.51c-.77-1-1.83-1.71-3.11-.95-2.26,1.33-1.39,6.56-1.45,8.47-.21,6.5-.21,14.67,7.46,16.67l-.36-2.75c-5.51,3.7-8.37,10.22-6.12,16.69.79,2.28,5.76,6.87,5,8.68-.58,1.38-5.05,3.29-6.36,4.14l-7.95,5.18c-1.61,1-.14,3.6,1.52,2.59l16.45-10-1.82-2.35a21.07,21.07,0,0,0-6,14.87,1.51,1.51,0,0,0,2.79.76l6.92-13.83-2,.53a18.18,18.18,0,0,1,7.19,11.69l2.74-1.15a45.27,45.27,0,0,0-10.06-14.73l-.66,2.5a11.27,11.27,0,0,0,8.86-11.18c-.23-6.13-5.52-10.2-10.07-13.49l-.36,2.74c4.9-1.11,11.14-3.29,11.4-9.21.31-7.08-7.87-13.05-13.32-16.08v2.59a14.53,14.53,0,0,0,7.76-14.84c-1.11-9-10.25-10-14.61-16.69-1.05-1.6-3.65-.1-2.59,1.52Z" transform="translate(-63 -123.55)"/><path class="cls-10" d="M334.36,294.05q26.52.54,53,1.06c17.25.3,34.48.17,51.58-2.39,3.81-.57,2.19-6.36-1.6-5.79-17.19,2.58-34.6,2.47-51.94,2.14q-25.54-.48-51.08-1c-3.87-.07-3.87,5.93,0,6Z" transform="translate(-63 -123.55)"/><path class="cls-11" d="M359.7,289.65A125.25,125.25,0,0,0,363,319.54a16.46,16.46,0,0,0,1.58,4.53,15.44,15.44,0,0,0,4.52,4.48c6.63,4.76,14.41,8.25,22.56,8.5s16.66-3.14,21.31-9.84c4.46-6.44,4.86-14.75,5.11-22.58l.42-13.38a1.47,1.47,0,0,0-1.94-1.72l-56.83.52" transform="translate(-63 -123.55)"/><path class="cls-12" d="M356.7,289.65a131.36,131.36,0,0,0,3,28.85c1.9,8.63,7.13,13,14.87,16.9,12.82,6.47,30.15,6.94,39.9-5.22,4.72-5.91,6-13.47,6.41-20.81.29-4.76.35-9.53.5-14.3.09-2.89.79-6.51-2.33-8s-8.76-.44-12.29-.41l-15.68.14-31.35.29c-3.86,0-3.87,6,0,6l46-.42,5.88-.05,2.94,0q3.12-.51,1.4.3a35.21,35.21,0,0,0-.68,4.14l-.18,5.73c-.22,6.77-.12,14.09-3.18,20.31-6.4,13-23.05,12.85-34.36,7.19a35,35,0,0,1-8.88-5.81c-2.88-2.84-3.27-7.38-4-11.19a125.07,125.07,0,0,1-2-23.57c0-3.86-6-3.86-6,0Z" transform="translate(-63 -123.55)"/><path class="cls-18" d="M407.25,197.28l-2.09,8.34a7.47,7.47,0,0,0-.33,2.15,4.76,4.76,0,0,0,2.7,3.79,9.53,9.53,0,0,0,4.76.81,2.21,2.21,0,0,0,1-.23,2,2,0,0,0,.77-1.22c1.05-3.68-1.24-7.39-3.41-10.54L408,196.51" transform="translate(-63 -123.55)"/><path class="cls-12" d="M406.89,197.18c-.69,2.76-1.55,5.54-2.1,8.34a5.9,5.9,0,0,0,.09,3.89c1.18,2.55,4.31,3.48,6.92,3.34,8.07-.44-1.93-14.17-3.49-16.43-.27-.39-.92,0-.65.38,1.95,2.81,9.75,12.32,4.85,14.71a4.72,4.72,0,0,1-5-.45c-2.41-1.54-2.38-3.13-1.83-5.84s1.3-5.18,1.95-7.74a.38.38,0,0,0-.73-.2Z" transform="translate(-63 -123.55)"/><path class="cls-19" d="M358,201.24l2.1,8.34a7.58,7.58,0,0,1,.32,2.16,4.74,4.74,0,0,1-2.7,3.79,9.4,9.4,0,0,1-4.75.8,2,2,0,0,1-1-.23,2,2,0,0,1-.77-1.21c-1-3.68,1.24-7.4,3.42-10.54l2.68-3.87" transform="translate(-63 -123.55)"/><path class="cls-12" d="M357.6,201.34c.59,2.38,1.3,4.75,1.8,7.15.43,2.09,1,4.14-.66,5.82a5.35,5.35,0,0,1-6,1.07c-4.91-2.41,2.93-11.93,4.85-14.71.28-.4-.37-.77-.65-.38-1.56,2.26-11.54,16-3.48,16.43,2.59.14,5.69-.77,6.89-3.3a5.74,5.74,0,0,0,.11-3.94c-.57-2.79-1.4-5.57-2.1-8.34a.37.37,0,0,0-.72.2Z" transform="translate(-63 -123.55)"/><path class="cls-1" d="M682.48,345.06l-3.56,23.45-1,28.2-1.65,8.2-25.15,4.94q-5.65-26.79-11.32-53.58Z" transform="translate(-63 -123.55)"/><polygon class="cls-1" points="526.74 86.9 514.39 92.44 502.78 101.92 495.51 112.99 491.16 127.22 488.25 143.82 488.25 157.25 491.88 169.11 497.69 178.59 507.86 188.87 526.74 178.59 517.3 164.37 512.22 149.35 513.67 132.75 517.3 125.64 526.74 86.9"/><path class="cls-1" d="M587.3,346.67l3.55,23.45,1,28.2,1.66,8.2,25.14,4.94L630,357.89Z" transform="translate(-63 -123.55)"/><ellipse class="cls-2" cx="536.9" cy="284.61" rx="24.6" ry="16.27"/><ellipse class="cls-2" cx="606.39" cy="287.39" rx="24.6" ry="16.27"/><polygon class="cls-3" points="594.32 85.2 609.44 90.12 623.79 98.88 632.9 109.31 638.57 122.9 642.55 138.83 642.91 151.81 638.84 163.38 632.06 172.75 620.01 183.02 596.84 173.75 607.89 159.68 613.65 145 611.43 129.02 606.83 122.28 594.32 85.2"/><path class="cls-4" d="M587.68,205.93,595.35,216l6.9,4.21h33l6.91-2.52,5.37-4.22,4.6-7.58,7.67-7.59,15.34,78.37,25.32,64.05-3.84,7.58-8.44,7.59-17.64,4.21-18.41-1-21.48.19H607.77l-17-3.37-13-4.22-15.34-8.42,5.37-28.66q3.84-16.42,7.67-32.86l5.37-26.12c.26-2.53.51-5.06.77-7.59Q584.62,227,587.68,205.93Z" transform="translate(-63 -123.55)"/><path class="cls-5" d="M587.68,205.93,595.35,216l6.9,4.21h33l6.91-2.52,5.37-4.22,4.6-7.58,7.67-7.59,15.34,78.37,25.32,64.05-3.84,7.58-8.44,7.59-17.64,4.21-18.41-1-21.48.19H607.77l-17-3.37-13-4.22-15.34-8.42,5.37-28.66q3.84-16.42,7.67-32.86l5.37-26.12c.26-2.53.51-5.06.77-7.59Q584.62,227,587.68,205.93Z" transform="translate(-63 -123.55)"/><path class="cls-6" d="M587.68,205.93,595.35,216l6.9,4.21h33l6.91-2.52,5.37-4.22,4.6-7.58,7.67-7.59,15.34,78.37,25.32,64.05-3.84,7.58-8.44,7.59-17.64,4.21-18.41-1-21.48.19H607.77l-17-3.37-13-4.22-15.34-8.42,5.37-28.66q3.84-16.42,7.67-32.86l5.37-26.12c.26-2.53.51-5.06.77-7.59Q584.62,227,587.68,205.93Z" transform="translate(-63 -123.55)"/><ellipse class="cls-3" cx="508.88" cy="52.38" rx="11.51" ry="11.9"/><ellipse class="cls-3" cx="614.03" cy="53.58" rx="11.51" ry="11.9"/><ellipse class="cls-20" cx="560.46" cy="56.75" rx="46.29" ry="46.42"/><circle class="cls-7" cx="540.51" cy="56.86" r="6.63"/><circle class="cls-7" cx="576.05" cy="56.86" r="6.63"/><path class="cls-21" d="M620.89,194s12.69-15,0-11.54" transform="translate(-63 -123.55)"/><path class="cls-16" d="M605,215a1.84,1.84,0,0,1-.39-2.27,5.22,5.22,0,0,1,1.72-1.78,34.63,34.63,0,0,1,8-4.85c4.56-1.77,9.61-1.63,14.49-1.47a23.49,23.49,0,0,1,5.8.69,11.75,11.75,0,0,1,7.76,7.66,1.57,1.57,0,0,1,0,1.39,1.62,1.62,0,0,1-1,.47c-8.32,1.7-16.91-3-25.27-1.48-3.59.65-7.21,2.44-10.73,1.47" transform="translate(-63 -123.55)"/><path class="cls-17" d="M606.32,214.2c-1-1.77,6.22-5.71,7.34-6.23a24.92,24.92,0,0,1,10.24-2,44,44,0,0,1,8.89.38c1.59.32,9.46,4,8.13,6.94-.7,1.56-9.84-.31-10.95-.5-2.1-.36-4.19-.78-6.32-1a27,27,0,0,0-7.77.05c-3.44.59-6.51,2.12-10.13,1.5-1.89-.32-2.7,2.57-.8,2.89,4.79.83,8.91-1.35,13.65-1.68,5.4-.38,10.7,1.5,16,2,2.31.21,7.81.89,9.11-1.8,1.09-2.25-1.4-5.58-2.79-7.11-5.39-5.9-16-5.38-23.14-4.07-4.43.81-17.66,5.92-14.1,12.17a1.5,1.5,0,0,0,2.59-1.51Z" transform="translate(-63 -123.55)"/><path class="cls-8" d="M596.88,195.29a1.5,1.5,0,0,0,0-3,1.5,1.5,0,0,0,0,3Z" transform="translate(-63 -123.55)"/><path class="cls-8" d="M606.8,195.29a1.5,1.5,0,0,0,0-3,1.5,1.5,0,0,0,0,3Z" transform="translate(-63 -123.55)"/><path class="cls-8" d="M600.85,202.83a1.5,1.5,0,0,0,0-3,1.5,1.5,0,0,0,0,3Z" transform="translate(-63 -123.55)"/><path class="cls-8" d="M640.13,195.29a1.5,1.5,0,0,0,0-3,1.5,1.5,0,0,0,0,3Z" transform="translate(-63 -123.55)"/><path class="cls-22" d="M649.65,193.79" transform="translate(-63 -123.55)"/><path class="cls-8" d="M649.65,195.29a1.5,1.5,0,0,0,0-3,1.5,1.5,0,0,0,0,3Z" transform="translate(-63 -123.55)"/><path class="cls-8" d="M644.89,203.23a1.5,1.5,0,0,0,0-3,1.5,1.5,0,0,0,0,3Z" transform="translate(-63 -123.55)"/><path class="cls-9" d="M666.13,147.58c2.31-1.52,2.2-5.14.29-7.1s-5-2.51-7.77-2.24c-1.6.16-3.44.47-4.63-.56s-1.06-3-1.9-4.39c-1.14-1.88-3.94-2.27-6-1.44s-3.62,2.54-5.08,4.2c-.57-4-5.08-6.43-9.25-6.63s-8.22,1.18-12.35,1.82-8.83.36-11.75-2.51c.05,3.11-3.71,4.92-6.92,5.31s-6.85.27-9.2,2.41c-2.58,2.35-2.62,6.66-5.54,8.6-1.45,1-3.44,1.21-4.55,2.53a6.17,6.17,0,0,0-1.07,2.6q-1.12,4.73-2.24,9.45a4.92,4.92,0,0,1,.52.41,3.39,3.39,0,0,1,.39.46l.74-.93c-.34,2.55,2.7,4.52,5.37,4.33s5-1.79,7.24-3.16a4.22,4.22,0,0,1,1.9-.75c3.13-.21,3.19,4.92,5.91,6.41,4.75,2.6,8.27-8.07,13.52-6.6,2.18.61,3.95,3.3,6,2.41.9-.38,1.36-1.33,2.09-2,2.68-2.33,6.74.52,9.06,3.19l8.05-6.11c.37,3.63,6.87,4.44,8.19,1l4.69,4.71c1.58-3.73,7.52-4.82,10.41-1.9a25,25,0,0,0,2.24,2.46,8.7,8.7,0,0,0,3.69,1.32l6.66,1.29a2.87,2.87,0,0,0,1.79,0c.8-.39,1-1.38,1.09-2.23q.66-5.43,1.3-10.86A52.71,52.71,0,0,1,666.13,147.58Z" transform="translate(-63 -123.55)"/><path class="cls-8" d="M667.19,148.64a6.26,6.26,0,0,0,1.23-8c-2.33-3.94-6.5-3.53-10.38-3.86-4.68-.38-3.81-5.78-8.38-6.72-4.07-.84-7.22,2.12-9.71,4.91l2.51.66c-3.92-15.68-25.18-.86-33.74-8-.75-.62-2.34-.57-2.51.66-.72,5.28-8.4,4-12.13,5.14-3,.9-4.6,2.75-6,5.47s-2,4.06-4.93,5.8a10,10,0,0,0-2.81,1.78c-2.59,2.92-2.83,9.06-3.7,12.71a1.51,1.51,0,0,0,.38,1.46,3.06,3.06,0,0,1,.92.87,1.49,1.49,0,0,0,2.12,0l.74-.93-2.56-1.06c.42,5.4,5.87,6.66,10.32,5,1.39-.53,3.15-2.3,4.55-2.51,3-.44,2.74,1.3,3.87,3.05a6.15,6.15,0,0,0,3.76,3.11c4.54,1,6.49-4.39,9.82-6.12,3.87-2,4.73,1.83,8.13,1.81a6.31,6.31,0,0,0,2.07-.61q2.37-2.42,6.16-1.34a14.58,14.58,0,0,1,2.87,2.56,1.51,1.51,0,0,0,1.82.23l8.05-6.1-2.2-.9c1.25,5,8.44,5.8,10.93,1.38l-2.36.31,4.69,4.71a1.52,1.52,0,0,0,2.36-.31,5.42,5.42,0,0,1,8-1.59c1,.75,1.52,2,2.55,2.7,2.68,1.91,7.74,2.56,10.91,2.78,6.6.47,5.34-10.15,5.87-14.6a1.51,1.51,0,0,0-1.1-1.45,57.8,57.8,0,0,1-12.53-5.37,1.5,1.5,0,0,0-1.51,2.59,61.27,61.27,0,0,0,13.24,5.68l-1.1-1.45c-.27,2.27-.19,5.06-.86,7.24-1.2,3.86-2.75,4.2-6.41,3.48a11.4,11.4,0,0,1-6.2-2.89,13.19,13.19,0,0,0-2.39-2,8.38,8.38,0,0,0-11.11,3.39l2.36-.3-4.7-4.71a1.51,1.51,0,0,0-2.35.3c-1.2,2.13-4.83,1.8-5.45-.67a1.5,1.5,0,0,0-2.2-.89l-8.05,6.1,1.81.24c-3.31-3.5-6.74-5.6-11.18-3.19a2.34,2.34,0,0,1-3.24,1.09c-.65-.46-1.32-.9-2-1.31a6.38,6.38,0,0,0-2.27-.74,6.53,6.53,0,0,0-4.48,1.44c-1.88,1.32-3.16,3.36-5,4.64-3.69,2.51-4.22-2.09-6.13-4.21a4.15,4.15,0,0,0-3.52-1.58,6.46,6.46,0,0,0-2.46.93c-1.81.87-9.85,6.61-10.35.13-.09-1.14-1.68-2.18-2.56-1.06l-.74.93h2.12c-1-1.13.69-4.52,1-6,.76-3.21,2.43-4.78,5-6.75,3.12-2.38,3.52-5.87,6.15-8.55,4.33-4.39,15.61-.51,16.77-9l-2.5.66c3.7,3.08,8.13,3.6,12.81,3,6-.82,17.93-5.19,20.15,3.71a1.52,1.52,0,0,0,2.51.66,17,17,0,0,1,2.7-2.66c3-2.13,4.66-1.34,6.7,1.55.69,1,.74,2.18,1.79,3a5.8,5.8,0,0,0,3.54.91c1.09,0,2.17-.24,3.26-.21,2.9.08,9.47,2.77,5,6.83C663.63,147.82,665.76,149.93,667.19,148.64Z" transform="translate(-63 -123.55)"/><path class="cls-9" d="M580.87,163.94c-3.52,3.77-9.48,3.93-13.75,6.84-6.44,4.38-6.7,15.33-.47,20a31,31,0,0,0-11.57,5.59c-2.13,1.65-4.17,3.85-4.33,6.54-.25,4.39,4.34,7.3,8.3,9.22-4.73,1.89-9.95,4.25-11.79,9a9.65,9.65,0,0,0,5,11.92,41.13,41.13,0,0,0-13,11.66A18.76,18.76,0,0,1,550,234.39l3.42,15.08a18.49,18.49,0,0,0-2.13-14.75l13.58,13.68-11.66-12.47c-.74-.78-1.53-1.83-1.12-2.83.32-.79,1.23-1.11,2-1.43A12.57,12.57,0,0,0,558.12,211c2.71.3,5.3-1.47,6.78-3.75a22.28,22.28,0,0,0,2.65-7.67l1.55-7.34c.14-.62.22-1.38-.26-1.79s-1.42.38-.91.75c5.42.09,10.28-4.08,12.23-9.13s1.46-10.76,0-16" transform="translate(-63 -123.55)"/><path class="cls-8" d="M579.81,162.87c-5.8,5.39-14.95,4.27-18.18,12.7a14.56,14.56,0,0,0,4,16.29l.66-2.51c-5.87,1.6-14.18,5-16.47,11.26s3.68,10.39,8.51,12.82l.36-2.74c-5.2,2.11-11.3,4.78-13,10.67a11.27,11.27,0,0,0,5.9,13v-2.59A46.11,46.11,0,0,0,538,244l2.59,1.52a18.25,18.25,0,0,1,9.76-9.65l-1.84-1.05,3.41,15.09a1.52,1.52,0,0,0,2.9,0,21.11,21.11,0,0,0-2.28-15.9l-2.36,1.82,13.58,13.67c1.37,1.38,3.44-.71,2.12-2.12l-5.18-5.54c-1.86-2-5.17-4.38-5.54-7.19-.3-2.27-.18-1.57,1.49-2.6a12.93,12.93,0,0,0,1.43-1,14.35,14.35,0,0,0,3.41-3.91c3.32-5.67,2-12.4-2.31-17.1l-1.06,2.56c8-.1,9.9-8,11.26-14.36.42-2,2.41-6.48.76-8.44-1-1.19-2.3-.89-3.37,0a1.5,1.5,0,0,0-.38,1.46l.1.45a1.5,1.5,0,0,0,1.44,1.1c14-.67,16.53-16,13.65-27a1.5,1.5,0,0,0-2.89.8c2.33,8.89,1.26,22.62-10.76,23.2l1.45,1.1-2.11,2.88-.59,2.75c-.3,1.45-.58,2.91-.93,4.35-1,4-2.74,8.66-7.63,8.72a1.52,1.52,0,0,0-1.06,2.56c4,4.37,4.56,10.84.43,15.38-1.69,1.86-5.9,2.61-6.82,5.05s1.31,4.32,2.72,5.86c3.42,3.73,6.92,7.39,10.37,11.08l2.12-2.12L552.3,233.66a1.5,1.5,0,0,0-2.35,1.82,17.82,17.82,0,0,1,2,13.59h2.9L551.4,234a1.51,1.51,0,0,0-1.85-1.05A21.1,21.1,0,0,0,538,244a1.5,1.5,0,0,0,2.59,1.52,42.48,42.48,0,0,1,12.46-11.12,1.52,1.52,0,0,0,0-2.59c-4.54-2.37-6.32-7.69-3.23-12,2.24-3.15,6.16-4.74,9.63-6.15,1.07-.43,1.63-2.1.35-2.74-4.84-2.44-10.43-6.48-5.2-12.05,3.18-3.4,8.07-5.36,12.45-6.55a1.51,1.51,0,0,0,.66-2.51c-5-4.21-5.65-12.53-.55-17,4.25-3.76,10.5-3.75,14.77-7.71,1.42-1.32-.71-3.44-2.12-2.13Z" transform="translate(-63 -123.55)"/><path class="cls-9" d="M667.24,167.34c3.21,4,9.14,4.68,13.16,7.91,6.07,4.89,5.46,15.82-1.12,20a30.79,30.79,0,0,1,11.09,6.48c2,1.82,3.85,4.17,3.79,6.87-.1,4.39-4.9,6.93-9,8.53,4.57,2.26,9.58,5,11,9.91a9.66,9.66,0,0,1-6,11.48,41,41,0,0,1,12,12.66,18.76,18.76,0,0,0-9.8-11.15l-4.61,14.76a18.52,18.52,0,0,1,3.3-14.53l-14.63,12.55,12.62-11.49c.8-.73,1.67-1.72,1.34-2.74-.26-.81-1.14-1.2-1.9-1.58a12.58,12.58,0,0,1-2.41-20.9c-2.72.08-5.16-1.89-6.46-4.28a22.2,22.2,0,0,1-2-7.86l-1-7.44c-.08-.63-.11-1.39.4-1.76s1.39.49.85.82c-5.41-.34-9.92-4.89-11.47-10.08s-.59-10.84,1.3-15.91" transform="translate(-63 -123.55)"/><path class="cls-8" d="M666.18,168.4c3.89,4.24,10.09,4.68,14,8.69,4.62,4.71,3.54,13.12-1.68,16.86a1.52,1.52,0,0,0,.36,2.74,28.61,28.61,0,0,1,11.41,7.05c5,5.51-.26,9.79-5.53,11.94-1.07.44-1.63,2.1-.35,2.74,3.37,1.7,7.3,3.58,9.37,6.91,2.83,4.55.4,9.9-4.3,11.9-1.14.48-.81,2,0,2.59A42.28,42.28,0,0,1,701,251.94c.86,1.37,3.34.51,2.74-1.16a21.25,21.25,0,0,0-10.5-12.05,1.52,1.52,0,0,0-2.2.9l-4.6,14.76h2.89A17.87,17.87,0,0,1,692.44,241c1-1.49-1.13-2.87-2.35-1.82l-14.63,12.55,2.12,2.13c3.74-3.41,7.53-6.77,11.22-10.23,1.47-1.38,3.81-3.08,3.13-5.47a4.53,4.53,0,0,0-1.45-1.85c-2-1.71-4.1-2.29-5.63-4.72-3.07-4.88-1.66-10.67,2.38-14.45a1.52,1.52,0,0,0-1.06-2.56c-4.84-.45-6.18-5.48-6.81-9.41-.27-1.64-.44-3.3-.66-4.95l-.36-2.79a2.12,2.12,0,0,0-1.82-2.27l1.45-1.1c-11.91-1.53-11.69-15.53-8.72-24.09.63-1.83-2.27-2.62-2.9-.8C662.59,180,664.09,195.3,678,197.08a1.51,1.51,0,0,0,1.44-1.1l.14-.44a1.49,1.49,0,0,0-.39-1.46,2.18,2.18,0,0,0-3.22-.23c-2.11,2-.06,7.83.25,10.11.83,6.24,2.73,13,10,13.64L685.11,215c-4.83,4.52-6.49,11.54-3.18,17.48,1.22,2.19,6.69,5.65,6.15,7.73-.38,1.48-4.44,4.05-5.61,5.12l-7,6.38c-1.44,1.32.67,3.37,2.12,2.13l14.63-12.56-2.36-1.81a21,21,0,0,0-3.44,15.68c.24,1.56,2.49,1.29,2.89,0l4.6-14.76-2.2.89a18.18,18.18,0,0,1,9.11,10.26l2.75-1.16A46.2,46.2,0,0,0,691,237.23v2.59a11.29,11.29,0,0,0,6.93-11.92c-1-6.16-6.94-9.53-12-12.07l-.36,2.74c4.87-2,11.23-5.38,9.93-11.69-1.39-6.74-10-11-15.81-13.08l.36,2.74a14.63,14.63,0,0,0,5.49-16c-2.5-8.71-11.86-8.42-17.23-14.26-1.31-1.43-3.42.7-2.12,2.12Z" transform="translate(-63 -123.55)"/><path class="cls-10" d="M574.27,294.5c17.68.36,35.35.75,53,1.06,17.26.3,34.49.17,51.59-2.39,3.8-.57,2.19-6.36-1.6-5.79-17.19,2.58-34.6,2.47-51.95,2.14q-25.53-.48-51.07-1c-3.87-.07-3.87,5.93,0,6Z" transform="translate(-63 -123.55)"/><path class="cls-11" d="M599.6,290.1a125.92,125.92,0,0,0,3.3,29.9,16.19,16.19,0,0,0,1.58,4.52A15.44,15.44,0,0,0,609,329c6.63,4.76,14.41,8.25,22.56,8.51s16.66-3.15,21.31-9.85c4.46-6.44,4.86-14.75,5.11-22.58l.42-13.38a1.93,1.93,0,0,0-.2-1.14c-.35-.53-1.1-.58-1.74-.58l-56.83.52" transform="translate(-63 -123.55)"/><path class="cls-12" d="M596.6,290.1a132.67,132.67,0,0,0,3,28.86c1.91,8.62,7.14,13,14.88,16.89,12.82,6.47,30.15,6.94,39.9-5.22,4.72-5.9,6-13.47,6.41-20.81.29-4.76.35-9.53.5-14.29.09-2.9.79-6.52-2.33-8s-8.76-.44-12.29-.41l-15.68.15-31.35.28c-3.86,0-3.87,6,0,6l46-.42,5.88-.05,2.94,0q3.12-.51,1.4.3a35.21,35.21,0,0,0-.68,4.14l-.18,5.73c-.22,6.77-.12,14.09-3.18,20.31-6.41,13-23.05,12.85-34.36,7.19a35,35,0,0,1-8.88-5.81c-2.88-2.84-3.27-7.38-4-11.19a125.85,125.85,0,0,1-2-23.57c0-3.86-6-3.86-6,0Z" transform="translate(-63 -123.55)"/><path class="cls-23" d="M647.16,197.73l-2.1,8.34a7.83,7.83,0,0,0-.32,2.15,4.74,4.74,0,0,0,2.7,3.79,9.51,9.51,0,0,0,4.75.81,2.22,2.22,0,0,0,1-.23,2,2,0,0,0,.77-1.22c1-3.67-1.24-7.39-3.41-10.54L647.9,197" transform="translate(-63 -123.55)"/><path class="cls-12" d="M646.8,197.63c-.69,2.76-1.55,5.54-2.1,8.34a5.9,5.9,0,0,0,.09,3.89c1.18,2.55,4.31,3.48,6.92,3.34,8.07-.44-1.93-14.17-3.49-16.42-.27-.4-.92,0-.65.37,1.95,2.82,9.75,12.32,4.85,14.72a4.74,4.74,0,0,1-5-.46c-2.41-1.54-2.38-3.12-1.83-5.84s1.3-5.17,1.95-7.74a.38.38,0,0,0-.73-.2Z" transform="translate(-63 -123.55)"/><path class="cls-24" d="M648,220l-2.1,8.34a7.14,7.14,0,0,0-.32,2.15,4.72,4.72,0,0,0,2.7,3.79A9.48,9.48,0,0,0,653,235a2.28,2.28,0,0,0,1-.23,2.05,2.05,0,0,0,.77-1.22c1-3.68-1.24-7.39-3.42-10.54l-2.68-3.87" transform="translate(-63 -123.55)"/><path class="cls-12" d="M647.6,219.85c-.7,2.76-1.55,5.54-2.1,8.34a5.84,5.84,0,0,0,.09,3.89c1.18,2.55,4.31,3.48,6.91,3.34,8.08-.44-1.93-14.17-3.49-16.43-.27-.39-.92,0-.64.38,1.94,2.81,9.74,12.32,4.85,14.71a4.74,4.74,0,0,1-5-.45c-2.4-1.54-2.38-3.13-1.83-5.84s1.3-5.18,2-7.74c.12-.47-.61-.67-.72-.2Z" transform="translate(-63 -123.55)"/><path class="cls-25" d="M1147.8,261.34l-2.1,8.34a7.88,7.88,0,0,0-.32,2.15,4.74,4.74,0,0,0,2.7,3.79,9.4,9.4,0,0,0,4.75.81,2.22,2.22,0,0,0,1-.23,2,2,0,0,0,.77-1.21c1-3.68-1.24-7.4-3.41-10.54l-2.68-3.87" transform="translate(-63 -123.55)"/><path class="cls-12" d="M1147.44,261.24c-.69,2.76-1.55,5.54-2.1,8.34a5.9,5.9,0,0,0,.09,3.89c1.18,2.56,4.31,3.48,6.91,3.34,8.08-.44-1.92-14.17-3.48-16.42-.27-.4-.92,0-.65.38,2,2.81,9.75,12.31,4.85,14.71a4.74,4.74,0,0,1-5-.46c-2.41-1.53-2.38-3.12-1.83-5.84s1.3-5.17,2-7.74a.38.38,0,0,0-.73-.2Z" transform="translate(-63 -123.55)"/><path class="cls-26" d="M599.46,221.53l2.09,8.34a7.58,7.58,0,0,1,.33,2.15,4.76,4.76,0,0,1-2.7,3.8,9.42,9.42,0,0,1-4.76.8,2.09,2.09,0,0,1-1-.23,2,2,0,0,1-.77-1.21c-1-3.68,1.24-7.4,3.41-10.54l2.68-3.87" transform="translate(-63 -123.55)"/><path class="cls-12" d="M599.09,221.63c.6,2.38,1.31,4.75,1.8,7.15.43,2.09,1,4.14-.65,5.82a5.35,5.35,0,0,1-6,1.07c-4.92-2.41,2.92-11.93,4.85-14.71.27-.4-.38-.77-.65-.38-1.57,2.26-11.55,16-3.49,16.43,2.6.14,5.7-.77,6.9-3.3a5.8,5.8,0,0,0,.11-3.94c-.57-2.79-1.41-5.57-2.1-8.34a.38.38,0,0,0-.73.2Z" transform="translate(-63 -123.55)"/><path class="cls-27" d="M597.87,201.7,600,210a7.58,7.58,0,0,1,.32,2.16,4.74,4.74,0,0,1-2.7,3.79,9.4,9.4,0,0,1-4.75.8,2,2,0,0,1-1-.23,2,2,0,0,1-.77-1.21c-1-3.68,1.24-7.39,3.42-10.54l2.68-3.87" transform="translate(-63 -123.55)"/><path class="cls-12" d="M597.51,201.8c.59,2.37,1.3,4.75,1.8,7.14.43,2.09,1,4.14-.66,5.82a5.35,5.35,0,0,1-6,1.07c-4.91-2.4,2.93-11.93,4.85-14.71.28-.4-.37-.77-.65-.38-1.56,2.26-11.55,16-3.48,16.43,2.59.14,5.69-.77,6.89-3.3a5.8,5.8,0,0,0,.11-3.94c-.57-2.79-1.4-5.57-2.1-8.33a.37.37,0,0,0-.72.2Z" transform="translate(-63 -123.55)"/><path class="cls-1" d="M928.11,341.4l-3.66,23.44L923.34,393l-1.69,8.19-25.17,4.84-11.1-53.63Z" transform="translate(-63 -123.55)"/><polygon class="cls-1" points="774.09 83.17 761.75 88.71 750.13 98.19 742.87 109.26 738.51 123.49 735.61 140.09 735.61 153.53 739.24 165.38 745.05 174.87 755.22 185.14 774.09 174.87 764.65 160.64 759.57 145.62 761.02 129.02 764.65 121.91 774.09 83.17"/><path class="cls-1" d="M836.11,342,841,365.24l2.55,28.1,2.11,8.1L871,405l8.34-54.12Z" transform="translate(-63 -123.55)"/><ellipse class="cls-2" cx="787.97" cy="283.67" rx="24.6" ry="16.27"/><ellipse class="cls-2" cx="851.88" cy="282.74" rx="24.6" ry="16.27"/><polygon class="cls-3" points="841.68 81.47 856.8 86.39 871.14 95.15 880.25 105.58 885.92 119.17 889.9 135.1 890.27 148.08 886.19 159.66 879.41 169.02 867.37 179.29 844.2 170.02 855.25 155.95 861 141.27 858.78 125.29 854.19 118.55 841.68 81.47"/><path class="cls-4" d="M835,202.2l7.67,10.11,6.91,4.22h33l6.9-2.53,5.37-4.22,4.61-7.58,7.67-7.58L922.48,273l25.31,64L944,344.61l-8.44,7.59-17.64,4.21-18.41-1-21.48.19H855.13l-17-3.37-13-4.22-15.34-8.42,5.37-28.65q3.82-16.44,7.67-32.87l5.37-26.12c.25-2.53.51-5.06.76-7.59Q832,223.27,835,202.2Z" transform="translate(-63 -123.55)"/><path class="cls-5" d="M835,202.2l7.67,10.11,6.91,4.22h33l6.9-2.53,5.37-4.22,4.61-7.58,7.67-7.58L922.48,273l25.31,64L944,344.61l-8.44,7.59-17.64,4.21-18.41-1-21.48.19H855.13l-17-3.37-13-4.22-15.34-8.42,5.37-28.65q3.82-16.44,7.67-32.87l5.37-26.12c.25-2.53.51-5.06.76-7.59Q832,223.27,835,202.2Z" transform="translate(-63 -123.55)"/><path class="cls-6" d="M835,202.2l7.67,10.11,6.91,4.22h33l6.9-2.53,5.37-4.22,4.61-7.58,7.67-7.58L922.48,273l25.31,64L944,344.61l-8.44,7.59-17.64,4.21-18.41-1-21.48.19H855.13l-17-3.37-13-4.22-15.34-8.42,5.37-28.65q3.82-16.44,7.67-32.87l5.37-26.12c.25-2.53.51-5.06.76-7.59Q832,223.27,835,202.2Z" transform="translate(-63 -123.55)"/><ellipse class="cls-3" cx="756.24" cy="48.66" rx="11.51" ry="11.9"/><ellipse class="cls-3" cx="861.38" cy="49.85" rx="11.51" ry="11.9"/><ellipse class="cls-28" cx="807.82" cy="53.02" rx="46.29" ry="46.42"/><circle class="cls-7" cx="787.87" cy="53.13" r="6.63"/><circle class="cls-7" cx="823.4" cy="53.13" r="6.63"/><path class="cls-29" d="M868.24,190.25s12.7-15,0-11.54" transform="translate(-63 -123.55)"/><path class="cls-16" d="M850.09,210.42a2.67,2.67,0,0,1-.45-3,6.7,6.7,0,0,1,2-2.34,38.91,38.91,0,0,1,9.12-6.36c5.23-2.33,11-2.14,16.61-1.93a23.69,23.69,0,0,1,6.64.9,14.56,14.56,0,0,1,8.89,10,2.31,2.31,0,0,1-.06,1.83,1.74,1.74,0,0,1-1.11.61c-9.53,2.23-19.38-3.94-29-1.94-4.12.86-8.27,3.21-12.3,1.93" transform="translate(-63 -123.55)"/><path class="cls-17" d="M851.39,209.66c-1.83-2.72,7.24-8.17,8.71-8.94,3.78-2,8-2.49,12.18-2.53,3.63,0,7.86-.26,11.31,1a12.14,12.14,0,0,1,4.86,3.39c.57.63,3.39,4.56,3,5.61-.51,1.3-5.11,1-6.12,1a47.75,47.75,0,0,1-6-.91c-2.82-.56-5.62-1.23-8.47-1.58a26.72,26.72,0,0,0-7.63.05c-4.17.69-8,3-12.3,2.06-1.89-.39-2.69,2.5-.8,2.9,5.64,1.18,10.35-2,15.9-2.27,5.94-.3,11.7,1.9,17.55,2.57,2.56.3,8.82,1.14,10.6-1.59,1.63-2.49-1.26-7-2.66-8.83-5.73-7.61-17.77-7.39-26.27-5.71-5,1-21.09,8.33-16.38,15.37,1.07,1.59,3.67.09,2.59-1.52Z" transform="translate(-63 -123.55)"/><path class="cls-8" d="M844.24,191.56a1.5,1.5,0,0,0,0-3,1.5,1.5,0,0,0,0,3Z" transform="translate(-63 -123.55)"/><path class="cls-8" d="M854.16,191.56a1.5,1.5,0,0,0,0-3,1.5,1.5,0,0,0,0,3Z" transform="translate(-63 -123.55)"/><path class="cls-8" d="M848.2,199.1a1.5,1.5,0,0,0,0-3,1.5,1.5,0,0,0,0,3Z" transform="translate(-63 -123.55)"/><path class="cls-8" d="M887.48,191.56a1.5,1.5,0,0,0,0-3,1.5,1.5,0,0,0,0,3Z" transform="translate(-63 -123.55)"/><path class="cls-8" d="M897,191.56a1.5,1.5,0,0,0,0-3,1.5,1.5,0,0,0,0,3Z" transform="translate(-63 -123.55)"/><path class="cls-8" d="M892.24,199.5a1.5,1.5,0,0,0,0-3,1.5,1.5,0,0,0,0,3Z" transform="translate(-63 -123.55)"/><path class="cls-9" d="M913.48,143.85c2.31-1.52,2.2-5.13.29-7.1s-5-2.5-7.76-2.24c-1.6.16-3.44.48-4.64-.56s-1.06-3-1.9-4.39c-1.13-1.88-3.93-2.27-6-1.44a14,14,0,0,0-5.08,4.2c-.58-4-5.08-6.43-9.25-6.63s-8.23,1.18-12.35,1.82-8.84.36-11.76-2.51c0,3.12-3.7,4.92-6.92,5.31s-6.85.27-9.2,2.41c-2.57,2.35-2.62,6.66-5.53,8.61-1.45,1-3.44,1.2-4.55,2.52a6,6,0,0,0-1.07,2.6l-2.25,9.45a4.07,4.07,0,0,1,.52.41,2.55,2.55,0,0,1,.4.47l.73-.94c-.34,2.55,2.71,4.52,5.38,4.33s5-1.79,7.24-3.16a4.18,4.18,0,0,1,1.9-.75c3.12-.21,3.19,4.92,5.91,6.41,4.75,2.6,8.27-8.06,13.52-6.6,2.17.61,3.94,3.3,6,2.41.9-.38,1.36-1.33,2.09-2,2.69-2.32,6.75.52,9.07,3.19l8-6.11c.37,3.63,6.86,4.44,8.19,1l4.69,4.71c1.58-3.73,7.51-4.81,10.41-1.9a25,25,0,0,0,2.24,2.46,8.57,8.57,0,0,0,3.69,1.32l6.66,1.29a2.77,2.77,0,0,0,1.78,0,2.63,2.63,0,0,0,1.1-2.23q.64-5.43,1.3-10.86A52.23,52.23,0,0,1,913.48,143.85Z" transform="translate(-63 -123.55)"/><path class="cls-8" d="M914.54,144.91a6.26,6.26,0,0,0,1.23-8c-2.32-3.94-6.5-3.53-10.38-3.85-4.68-.39-3.81-5.79-8.37-6.73-4.08-.84-7.23,2.12-9.72,4.91l2.51.66c-3.91-15.68-25.17-.86-33.74-8-.75-.62-2.33-.57-2.5.66-.73,5.28-8.4,4-12.13,5.14-3,.9-4.61,2.75-6,5.47s-2,4.07-4.92,5.8a10.21,10.21,0,0,0-2.81,1.78c-2.59,2.92-2.84,9.06-3.71,12.71a1.49,1.49,0,0,0,.39,1.46,3.09,3.09,0,0,1,.92.88,1.5,1.5,0,0,0,2.12,0l.73-.94-2.56-1.06c.42,5.41,5.88,6.67,10.33,5,1.39-.53,3.14-2.29,4.54-2.51,3-.44,2.75,1.3,3.88,3a6.15,6.15,0,0,0,3.76,3.11c4.54,1,6.48-4.39,9.82-6.12,3.87-2,4.72,1.83,8.12,1.82a6.66,6.66,0,0,0,2.07-.61,5.79,5.79,0,0,1,6.16-1.35,14.64,14.64,0,0,1,2.88,2.56A1.51,1.51,0,0,0,879,161l8.06-6.11-2.21-.9c1.26,5,8.44,5.8,10.93,1.38l-2.35.31,4.69,4.71a1.51,1.51,0,0,0,2.35-.3,5.42,5.42,0,0,1,8.06-1.6c1,.75,1.51,2,2.54,2.7,2.69,1.91,7.75,2.56,10.91,2.79,6.61.46,5.34-10.16,5.88-14.61a1.54,1.54,0,0,0-1.11-1.45,57.24,57.24,0,0,1-12.52-5.37,1.5,1.5,0,0,0-1.52,2.59A60.86,60.86,0,0,0,926,150.82l-1.1-1.45c-.28,2.27-.19,5.06-.87,7.24-1.2,3.86-2.75,4.2-6.41,3.48a11.41,11.41,0,0,1-6.2-2.88,12.48,12.48,0,0,0-2.38-2,8.39,8.39,0,0,0-11.12,3.39l2.36-.3-4.69-4.71a1.52,1.52,0,0,0-2.36.3c-1.2,2.13-4.82,1.8-5.44-.67a1.51,1.51,0,0,0-2.21-.89l-8,6.1,1.82.24c-3.32-3.5-6.74-5.6-11.19-3.19a2.32,2.32,0,0,1-3.24,1.09c-.65-.46-1.31-.9-2-1.31a6.44,6.44,0,0,0-2.27-.74,6.53,6.53,0,0,0-4.49,1.45c-1.88,1.31-3.15,3.35-5,4.63-3.7,2.51-4.22-2.09-6.13-4.21a4.19,4.19,0,0,0-3.52-1.58,6.34,6.34,0,0,0-2.46.93c-1.82.88-9.85,6.61-10.36.13-.09-1.13-1.68-2.18-2.56-1.06l-.73.94h2.12c-1-1.13.68-4.53,1-6,.77-3.21,2.44-4.78,5-6.75,3.13-2.38,3.52-5.86,6.16-8.54,4.32-4.4,15.61-.51,16.77-9l-2.51.66c3.7,3.08,8.14,3.6,12.82,2.95,6-.82,17.93-5.19,20.15,3.71a1.51,1.51,0,0,0,2.51.66,16.57,16.57,0,0,1,2.7-2.66c3-2.13,4.66-1.34,6.69,1.55.69,1,.74,2.18,1.8,3a5.8,5.8,0,0,0,3.54.91c1.09,0,2.17-.24,3.26-.21,2.9.08,9.47,2.77,5,6.84C911,144.09,913.11,146.2,914.54,144.91Z" transform="translate(-63 -123.55)"/><path class="cls-9" d="M826.12,160.52c-3.75,3.55-9.7,3.34-14.14,6-6.7,4-7.64,14.89-1.72,19.95a30.9,30.9,0,0,0-11.89,4.86c-2.23,1.51-4.4,3.58-4.73,6.26-.52,4.37,3.88,7.56,7.71,9.71-4.84,1.6-10.19,3.63-12.33,8.25a9.68,9.68,0,0,0,4.28,12.22,41,41,0,0,0-13.69,10.83,18.79,18.79,0,0,1,11.28-9.66l2.47,15.27a18.47,18.47,0,0,0-1.2-14.85l12.7,14.49L794,230.66c-.68-.83-1.41-1.93-.94-2.9.37-.76,1.3-1,2.1-1.3a12.56,12.56,0,0,0,5.34-20.35c2.68.47,5.38-1.14,7-3.32a22.32,22.32,0,0,0,3.11-7.49l2-7.23c.17-.61.31-1.36-.15-1.8s-1.45.29-1,.69c5.4.42,10.5-3.44,12.77-8.36s2.12-10.64,1-15.93" transform="translate(-63 -123.55)"/><path class="cls-8" d="M825.06,159.46c-6.15,5-15.16,3.27-18.9,11.56a14.56,14.56,0,0,0,3,16.48l.67-2.5c-6,1.23-15,4.29-17.29,10.69-2.16,6,3.53,10.26,8,12.88l.36-2.74c-5.31,1.78-11.57,4.12-13.6,9.9-1.81,5.17.67,10.56,5.2,13.3v-2.59a45.12,45.12,0,0,0-14,11.07l2.36,1.81a18.14,18.14,0,0,1,10.38-9l-1.85-1.05,2.48,15.27c.25,1.55,2.49,1.3,2.89,0a21.11,21.11,0,0,0-1.36-16l-2.36,1.82,12.71,14.5c1.29,1.46,3.33-.66,2.12-2.13l-4.83-5.85c-1.7-2.06-4.84-4.67-5.18-7.43s-.37-.92,1.1-2.16c.54-.45,1.38-.72,2-1.13a14.41,14.41,0,0,0,3.1-2.84c4.51-5.56,3.75-12.89-.53-18.3l-1.06,2.56c7.49.37,10.12-6.78,11.82-12.82.61-2.18,3.09-6.86,1.53-9.1a2.1,2.1,0,0,0-3.15-.48,1.58,1.58,0,0,0-.69,1.69l.07.46a1.51,1.51,0,0,0,1.45,1.1c14,.12,17.37-15.07,15.18-26.19-.37-1.9-3.27-1.09-2.89.79,1.8,9.15-.23,22.5-12.29,22.4l1.44,1.1-.07-.46-.69,1.7c-.9-.46-1.33-.2-1.28.77l-.75,2.71c-.41,1.47-.8,2.95-1.23,4.41-1.24,4.22-3.14,9.18-8.45,8.92-1.43-.07-1.8,1.63-1.06,2.56,4.23,5.35,3.46,13.14-2.54,16.83-1.58,1-4.53,1.31-5.28,3.36-.84,2.26,1.29,4.3,2.53,5.82,3.21,3.91,6.44,7.8,9.66,11.71l2.12-2.13-12.7-14.49c-1.18-1.35-3.07.37-2.36,1.82a17.77,17.77,0,0,1,1.06,13.69h2.89l-2.47-15.26a1.51,1.51,0,0,0-1.85-1.05,21.18,21.18,0,0,0-12.18,10.34c-.76,1.43,1.21,3.17,2.36,1.82A43.38,43.38,0,0,1,794.06,229a1.51,1.51,0,0,0,0-2.59c-4.4-2.65-5.68-8.15-2.34-12.23,2.47-3,6.48-4.3,10-5.49a1.52,1.52,0,0,0,.36-2.74c-5-2.9-9.92-7.6-3.91-12.65,3.52-3,8-4.52,12.46-5.44a1.51,1.51,0,0,0,.66-2.51c-4.72-4.52-4.74-12.92.65-17,4.52-3.44,10.7-3.1,15.21-6.79,1.5-1.22-.64-3.34-2.12-2.12Z" transform="translate(-63 -123.55)"/><path class="cls-9" d="M917.72,161.26c3.52,3.77,9.48,3.93,13.75,6.84,6.44,4.38,6.71,15.32.48,20a30.93,30.93,0,0,1,11.57,5.58c2.14,1.65,4.18,3.85,4.33,6.54.26,4.39-4.33,7.31-8.28,9.22,4.73,1.89,9.95,4.25,11.79,9a9.66,9.66,0,0,1-5,11.92,41,41,0,0,1,13,11.66,18.75,18.75,0,0,0-10.67-10.33l-3.41,15.08A18.52,18.52,0,0,1,947.38,232l-13.57,13.69,11.66-12.48c.73-.78,1.52-1.83,1.11-2.83-.32-.78-1.23-1.11-2-1.42a12.57,12.57,0,0,1-4.08-20.64c-2.7.29-5.3-1.47-6.78-3.75a22.28,22.28,0,0,1-2.65-7.67l-1.56-7.34c-.13-.62-.22-1.38.26-1.79s1.42.38.91.75c-5.42.09-10.28-4.08-12.24-9.13s-1.45-10.75,0-16" transform="translate(-63 -123.55)"/><path class="cls-8" d="M916.66,162.32c4.26,4,10.52,4,14.77,7.7,5.1,4.49,4.45,12.81-.54,17a1.51,1.51,0,0,0,.66,2.51c4.38,1.19,9.27,3.15,12.46,6.54,5.22,5.57-.35,9.61-5.2,12.06-1.28.64-.73,2.3.36,2.74,3.47,1.41,7.38,3,9.63,6.14,3.09,4.34,1.36,9.64-3.22,12a1.51,1.51,0,0,0,0,2.59A42.33,42.33,0,0,1,958,242.78a1.5,1.5,0,0,0,2.59-1.51,21.09,21.09,0,0,0-11.56-11,1.51,1.51,0,0,0-1.85,1.05l-3.4,15.08h2.89a17.78,17.78,0,0,1,2-13.59,1.51,1.51,0,0,0-2.36-1.82l-13.57,13.69,2.12,2.12c3.45-3.7,6.94-7.36,10.36-11.09,1.41-1.54,3.63-3.46,2.73-5.86s-5.13-3.19-6.83-5.05c-4.13-4.53-3.56-11,.42-15.37a1.51,1.51,0,0,0-1.06-2.56c-4.88-.06-6.66-4.74-7.63-8.72-.28-1.14-.5-2.29-.74-3.44,0-.17-2.54-8.16-2.9-6.54l1.45-1.1c-12-.57-13.1-14.3-10.77-23.2a1.5,1.5,0,0,0-2.89-.79c-2.88,11-.36,26.32,13.66,27a1.52,1.52,0,0,0,1.45-1.1l.1-.45a1.51,1.51,0,0,0-.39-1.46c-1-.83-2.21-1.18-3.25-.15-1.85,1.85.25,6.73.64,8.6,1.37,6.4,3.33,14.26,11.27,14.36l-1.06-2.56c-4.28,4.7-5.62,11.42-2.3,17.09a14.85,14.85,0,0,0,2.87,3.49c.83.75,3.35,1.65,3.81,2.41,1.81,3-9.06,12.24-11.06,14.38-1.32,1.4.75,3.49,2.12,2.12l13.57-13.69-2.35-1.81a21.06,21.06,0,0,0-2.27,15.9,1.51,1.51,0,0,0,2.89,0l3.41-15.09-1.85,1a18.25,18.25,0,0,1,9.77,9.64l2.59-1.51a46,46,0,0,0-13.54-12.19v2.59a11.28,11.28,0,0,0,5.9-13c-1.72-5.89-7.83-8.55-13-10.66l.36,2.74c4.83-2.44,10.79-6.6,8.51-12.83s-10.61-9.66-16.48-11.25l.66,2.5a14.53,14.53,0,0,0,4-16.28c-3.24-8.44-12.37-7.3-18.18-12.69-1.42-1.31-3.54.8-2.12,2.12Z" transform="translate(-63 -123.55)"/><path class="cls-10" d="M821.62,290.78c17.68.35,35.36.74,53,1.05,17.26.31,34.48.18,51.58-2.39,3.81-.57,2.19-6.35-1.59-5.79-17.2,2.58-34.61,2.47-51.95,2.14q-25.55-.48-51.08-1c-3.86-.08-3.86,5.92,0,6Z" transform="translate(-63 -123.55)"/><path class="cls-11" d="M847,286.37a125.92,125.92,0,0,0,3.3,29.9,16,16,0,0,0,1.58,4.53,15.29,15.29,0,0,0,4.52,4.47c6.62,4.76,14.41,8.26,22.56,8.51s16.66-3.14,21.3-9.85c4.47-6.43,4.87-14.75,5.11-22.58l.43-13.37a2,2,0,0,0-.2-1.14c-.35-.54-1.11-.59-1.75-.59l-56.83.53" transform="translate(-63 -123.55)"/><path class="cls-12" d="M844,286.37a132.06,132.06,0,0,0,3,28.86c1.9,8.62,7.14,13,14.88,16.9,12.81,6.46,30.15,6.94,39.89-5.23,4.73-5.9,6-13.47,6.42-20.81.29-4.76.35-9.53.5-14.29.09-2.9.78-6.52-2.33-8.05-3.27-1.61-8.76-.44-12.3-.41l-15.67.15-31.36.29c-3.86,0-3.86,6,0,6l46-.43,5.88-.05,2.94,0q3.14-.51,1.4.3a36,36,0,0,0-.67,4.14c-.06,1.91-.12,3.82-.19,5.73-.21,6.77-.11,14.09-3.18,20.31-6.4,13-23.05,12.86-34.36,7.19a35.32,35.32,0,0,1-8.88-5.8c-2.88-2.85-3.27-7.39-4-11.2a125.85,125.85,0,0,1-2-23.57c0-3.86-6-3.86-6,0Z" transform="translate(-63 -123.55)"/><path class="cls-30" d="M894.52,194l-2.1,8.34a7.14,7.14,0,0,0-.32,2.15,4.74,4.74,0,0,0,2.7,3.79,9.49,9.49,0,0,0,4.75.81,2.28,2.28,0,0,0,1-.23,2,2,0,0,0,.77-1.21c1-3.68-1.24-7.4-3.42-10.54l-2.68-3.87" transform="translate(-63 -123.55)"/><path class="cls-12" d="M894.16,193.9c-.7,2.76-1.55,5.54-2.1,8.34a5.83,5.83,0,0,0,.09,3.89c1.18,2.55,4.31,3.48,6.91,3.34,8.08-.44-1.93-14.17-3.49-16.42-.27-.4-.92,0-.64.38,1.94,2.81,9.74,12.31,4.85,14.71a4.76,4.76,0,0,1-5-.46c-2.4-1.54-2.37-3.12-1.83-5.84s1.3-5.17,2-7.74a.37.37,0,0,0-.72-.2Z" transform="translate(-63 -123.55)"/><path class="cls-31" d="M896.9,217.81l-2.1,8.33a7.25,7.25,0,0,0-.32,2.16,4.74,4.74,0,0,0,2.7,3.79,9.4,9.4,0,0,0,4.75.8,2,2,0,0,0,1-.23,2,2,0,0,0,.77-1.21c1-3.68-1.24-7.39-3.42-10.54L897.63,217" transform="translate(-63 -123.55)"/><path class="cls-12" d="M896.54,217.71c-.7,2.76-1.55,5.54-2.1,8.33a5.86,5.86,0,0,0,.09,3.9c1.18,2.55,4.31,3.48,6.91,3.34,8.08-.45-1.93-14.18-3.48-16.43-.28-.39-.93,0-.65.38,1.94,2.81,9.74,12.31,4.85,14.71a4.74,4.74,0,0,1-5-.45c-2.4-1.54-2.37-3.13-1.83-5.84s1.3-5.18,2-7.74a.37.37,0,0,0-.72-.2Z" transform="translate(-63 -123.55)"/><path class="cls-32" d="M899.28,237.64l-2.1,8.34a7.23,7.23,0,0,0-.32,2.15,4.74,4.74,0,0,0,2.7,3.8,9.51,9.51,0,0,0,4.75.8,2.13,2.13,0,0,0,1-.23,2,2,0,0,0,.77-1.21c1-3.68-1.24-7.4-3.42-10.54L900,236.88" transform="translate(-63 -123.55)"/><path class="cls-12" d="M898.92,237.54c-.7,2.77-1.55,5.55-2.1,8.34a5.83,5.83,0,0,0,.09,3.89c1.18,2.56,4.31,3.49,6.91,3.35,8.08-.45-1.93-14.18-3.48-16.43-.28-.39-.93,0-.65.38,1.95,2.81,9.74,12.31,4.85,14.71a4.72,4.72,0,0,1-5-.46c-2.41-1.53-2.38-3.12-1.84-5.83s1.31-5.18,1.95-7.75a.37.37,0,0,0-.72-.2Z" transform="translate(-63 -123.55)"/><path class="cls-33" d="M1143.15,199.79l-2.1,8.34a7.14,7.14,0,0,0-.32,2.15,4.74,4.74,0,0,0,2.7,3.79,9.49,9.49,0,0,0,4.75.81,2.28,2.28,0,0,0,1-.23,2,2,0,0,0,.77-1.22c1-3.67-1.24-7.39-3.42-10.54l-2.68-3.87" transform="translate(-63 -123.55)"/><path class="cls-12" d="M1142.79,199.69c-.7,2.76-1.55,5.54-2.1,8.34a5.83,5.83,0,0,0,.09,3.89c1.18,2.55,4.31,3.48,6.91,3.34,8.08-.44-1.93-14.17-3.49-16.43-.27-.39-.92,0-.64.38,1.94,2.82,9.74,12.32,4.85,14.72a4.76,4.76,0,0,1-5-.46c-2.4-1.54-2.38-3.12-1.83-5.84s1.3-5.17,2-7.74c.12-.47-.61-.67-.72-.2Z" transform="translate(-63 -123.55)"/><path class="cls-34" d="M1145.53,223.59l-2.1,8.34a7.23,7.23,0,0,0-.32,2.15,4.74,4.74,0,0,0,2.7,3.8,9.49,9.49,0,0,0,4.75.8,2.16,2.16,0,0,0,1-.23,2,2,0,0,0,.77-1.21c1-3.68-1.24-7.4-3.42-10.54l-2.68-3.87" transform="translate(-63 -123.55)"/><path class="cls-12" d="M1145.17,223.49c-.7,2.77-1.55,5.55-2.1,8.34a5.83,5.83,0,0,0,.09,3.89c1.18,2.56,4.31,3.49,6.91,3.35,8.08-.45-1.93-14.18-3.49-16.43-.27-.39-.92,0-.64.38,1.94,2.81,9.74,12.31,4.85,14.71a4.74,4.74,0,0,1-5-.46c-2.4-1.53-2.37-3.12-1.83-5.83s1.3-5.18,2-7.75c.12-.46-.61-.66-.72-.2Z" transform="translate(-63 -123.55)"/><path class="cls-35" d="M1147.91,243.43l-2.1,8.34a7.23,7.23,0,0,0-.32,2.15,4.71,4.71,0,0,0,2.7,3.79,9.4,9.4,0,0,0,4.75.81,2.28,2.28,0,0,0,1-.23,2,2,0,0,0,.77-1.21c1-3.68-1.24-7.4-3.42-10.54l-2.68-3.87" transform="translate(-63 -123.55)"/><path class="cls-12" d="M1147.55,243.33c-.7,2.77-1.55,5.55-2.1,8.34a5.83,5.83,0,0,0,.09,3.89c1.18,2.56,4.31,3.49,6.91,3.34,8.08-.44-1.93-14.17-3.49-16.42-.27-.4-.92,0-.64.38,1.94,2.81,9.74,12.31,4.85,14.71a4.74,4.74,0,0,1-5-.46c-2.4-1.53-2.37-3.12-1.83-5.84s1.3-5.17,2-7.74a.37.37,0,0,0-.72-.2Z" transform="translate(-63 -123.55)"/><path class="cls-36" d="M846.81,217.81l2.1,8.33a7.25,7.25,0,0,1,.32,2.16,4.74,4.74,0,0,1-2.7,3.79,9.4,9.4,0,0,1-4.75.8,2,2,0,0,1-1-.23,2,2,0,0,1-.77-1.21c-1-3.68,1.24-7.39,3.42-10.54l2.68-3.87" transform="translate(-63 -123.55)"/><path class="cls-12" d="M846.45,217.91c.6,2.37,1.31,4.75,1.8,7.14.43,2.09,1,4.14-.66,5.82a5.35,5.35,0,0,1-6,1.07c-4.91-2.4,2.93-11.93,4.85-14.71.28-.4-.37-.77-.65-.38-1.56,2.26-11.54,16-3.48,16.43,2.59.14,5.69-.77,6.89-3.3a5.68,5.68,0,0,0,.11-3.94c-.57-2.79-1.4-5.57-2.1-8.33a.37.37,0,0,0-.72.2Z" transform="translate(-63 -123.55)"/><path class="cls-37" d="M844.43,238.4l2.1,7.92a6.51,6.51,0,0,1,.32,2.05,4.52,4.52,0,0,1-2.7,3.6,9.83,9.83,0,0,1-4.75.76,2.24,2.24,0,0,1-1-.21,1.91,1.91,0,0,1-.77-1.16c-1-3.49,1.24-7,3.42-10l2.68-3.68" transform="translate(-63 -123.55)"/><path class="cls-12" d="M844.07,238.5c.6,2.25,1.3,4.51,1.8,6.79.43,2,1,3.92-.66,5.51-1,1-3.82,2-5.32,1.57-6.3-1.79,2.32-12,4.13-14.51.29-.39-.36-.76-.65-.38-2.36,3.25-5.79,6.86-6.32,11-.27,2.05,0,4.33,2.35,4.6,2.61.3,6.08-.56,7.36-3.09a5.14,5.14,0,0,0,.13-3.8c-.58-2.66-1.4-5.29-2.1-7.92a.37.37,0,0,0-.72.2Z" transform="translate(-63 -123.55)"/><path class="cls-38" d="M1091,265.55l2.1,8.34a7.23,7.23,0,0,1,.32,2.15,4.71,4.71,0,0,1-2.7,3.79,9.4,9.4,0,0,1-4.75.81,2.25,2.25,0,0,1-1-.23,2,2,0,0,1-.77-1.21c-1-3.68,1.24-7.4,3.42-10.54l2.68-3.87" transform="translate(-63 -123.55)"/><path class="cls-12" d="M1090.67,265.65c.6,2.38,1.3,4.75,1.8,7.15.43,2.09,1,4.13-.66,5.82a5.35,5.35,0,0,1-6,1.07c-4.91-2.41,2.93-11.93,4.85-14.71.28-.4-.37-.78-.65-.38-1.56,2.26-11.54,16-3.48,16.42,2.59.15,5.69-.77,6.89-3.29a5.68,5.68,0,0,0,.11-3.94c-.57-2.8-1.4-5.57-2.1-8.34a.37.37,0,0,0-.72.2Z" transform="translate(-63 -123.55)"/><path class="cls-39" d="M845.22,198l2.1,8.34a7.14,7.14,0,0,1,.32,2.15,4.73,4.73,0,0,1-2.69,3.79,9.53,9.53,0,0,1-4.76.81,2.28,2.28,0,0,1-1-.23,2,2,0,0,1-.77-1.22c-1-3.68,1.25-7.39,3.42-10.54l2.68-3.87" transform="translate(-63 -123.55)"/><path class="cls-12" d="M844.86,198.07c.6,2.37,1.31,4.75,1.8,7.14.43,2.09,1,4.14-.65,5.82a5.37,5.37,0,0,1-6,1.08c-4.91-2.41,2.93-11.94,4.86-14.72.27-.39-.38-.77-.65-.38-1.57,2.27-11.55,16-3.49,16.43,2.59.14,5.7-.77,6.89-3.3a5.65,5.65,0,0,0,.11-3.93c-.57-2.8-1.4-5.57-2.09-8.34a.38.38,0,0,0-.73.2Z" transform="translate(-63 -123.55)"/><path class="cls-40" d="M1095.44,225.45l2.1,8.34a7.23,7.23,0,0,1,.32,2.15,4.71,4.71,0,0,1-2.7,3.79,9.4,9.4,0,0,1-4.75.81,2.25,2.25,0,0,1-1-.23,2,2,0,0,1-.77-1.21c-1-3.68,1.24-7.4,3.42-10.54l2.68-3.87" transform="translate(-63 -123.55)"/><path class="cls-12" d="M1095.08,225.55c.6,2.38,1.3,4.75,1.8,7.15.43,2.09,1,4.14-.66,5.82a5.35,5.35,0,0,1-6,1.07c-4.91-2.41,2.93-11.93,4.85-14.71.28-.4-.37-.78-.65-.38-1.56,2.26-11.54,16-3.48,16.42,2.59.15,5.69-.77,6.89-3.29a5.68,5.68,0,0,0,.11-3.94c-.57-2.8-1.4-5.57-2.1-8.34a.37.37,0,0,0-.72.2Z" transform="translate(-63 -123.55)"/><path class="cls-41" d="M1093.06,246.05l2.1,7.92a6.79,6.79,0,0,1,.32,2,4.52,4.52,0,0,1-2.7,3.6,9.83,9.83,0,0,1-4.75.77,2.38,2.38,0,0,1-1-.22,1.85,1.85,0,0,1-.77-1.15c-1-3.5,1.24-7,3.42-10l2.68-3.68" transform="translate(-63 -123.55)"/><path class="cls-12" d="M1092.7,246.15c.59,2.25,1.3,4.51,1.8,6.79.43,2,1,3.92-.66,5.51-1,1-3.83,2-5.32,1.56-6.3-1.79,2.32-12,4.13-14.5.29-.39-.36-.77-.65-.38-2.36,3.25-5.79,6.86-6.33,11-.26,2.06,0,4.33,2.36,4.61,2.61.3,6.07-.56,7.36-3.1a5.12,5.12,0,0,0,.13-3.79c-.58-2.66-1.4-5.29-2.1-7.92a.37.37,0,0,0-.72.2Z" transform="translate(-63 -123.55)"/><path class="cls-42" d="M1093.85,205.61,1096,214a7.25,7.25,0,0,1,.32,2.16,4.72,4.72,0,0,1-2.7,3.79,9.36,9.36,0,0,1-4.75.8,2,2,0,0,1-1-.23,2,2,0,0,1-.77-1.21c-1-3.68,1.24-7.4,3.42-10.54l2.68-3.87" transform="translate(-63 -123.55)"/><path class="cls-12" d="M1093.49,205.71c.6,2.38,1.31,4.75,1.8,7.15.43,2.09,1,4.14-.66,5.82a5.35,5.35,0,0,1-6,1.07c-4.91-2.41,2.93-11.93,4.85-14.71.28-.4-.37-.77-.64-.38-1.57,2.26-11.55,16-3.49,16.43,2.59.14,5.7-.77,6.89-3.3a5.68,5.68,0,0,0,.11-3.94c-.57-2.79-1.4-5.57-2.1-8.34-.11-.46-.84-.27-.72.2Z" transform="translate(-63 -123.55)"/><path class="cls-43" d="M145,173.18a9.64,9.64,0,0,1,15.25,1.48c1.06,1.61,3.66.11,2.59-1.51a12.66,12.66,0,0,0-20-2.09c-1.36,1.38.76,3.5,2.12,2.12Z" transform="translate(-63 -123.55)"/><path class="cls-43" d="M126.15,171.86a12.66,12.66,0,0,0-20,2.08c-1.06,1.62,1.53,3.13,2.59,1.52A9.63,9.63,0,0,1,124,174a1.5,1.5,0,0,0,2.12-2.12Z" transform="translate(-63 -123.55)"/><path class="cls-16" d="M119.57,202.11c11,.87,22.17,1.74,33.11.09a1.5,1.5,0,0,1,1.18.15,1.31,1.31,0,0,1,.35.9c.24,3.18-2.5,5.78-5.29,7.31a25.42,25.42,0,0,1-26.77-1.87c-1.74-1.31-3.44-3.11-3.42-5.29" transform="translate(-63 -123.55)"/><path class="cls-17" d="M119.57,203.61c5.85.46,11.7.93,17.56,1,3.25,0,6.5,0,9.74-.27,2.64-.2,7.36-1.18,3.39,3.41-3.2,3.72-10.46,4.55-15,4.18-5.09-.42-14.23-2.92-15.09-8.94-.28-1.9-3.17-1.09-2.9.8,1,6.59,9.66,9.92,15.37,10.84,6.51,1.06,14.5-.11,19.64-4.58,2.52-2.19,5.86-8.51.7-9.38-2.33-.4-5.57.66-8.06.8s-5.2.17-7.8.14c-5.86-.08-11.71-.55-17.56-1-1.92-.15-1.91,2.85,0,3Z" transform="translate(-63 -123.55)"/><path class="cls-43" d="M389.08,167.18a6.37,6.37,0,0,0,5.67,4.21c3.53.4,12.68-4.58,13.67,1,.34,1.9,3.23,1.1,2.89-.79-.5-2.84-2.92-4.51-5.71-4.83-3.44-.39-11.88,4.27-13.62-.38-.68-1.79-3.58-1-2.9.8Z" transform="translate(-63 -123.55)"/><path class="cls-43" d="M627.08,167.18a6.37,6.37,0,0,0,5.67,4.21c3.53.4,12.68-4.58,13.67,1,.34,1.9,3.23,1.1,2.89-.79-.5-2.84-2.92-4.51-5.71-4.83-3.44-.39-11.88,4.27-13.62-.38-.68-1.79-3.58-1-2.9.8Z" transform="translate(-63 -123.55)"/><path class="cls-43" d="M874.08,162.18a6.37,6.37,0,0,0,5.67,4.21c3.53.4,12.68-4.58,13.67,1,.34,1.9,3.23,1.1,2.89-.79-.5-2.84-2.92-4.51-5.71-4.83-3.44-.39-11.88,4.27-13.62-.38-.68-1.79-3.58-1-2.9.8Z" transform="translate(-63 -123.55)"/><path class="cls-43" d="M1125.08,166.18a6.37,6.37,0,0,0,5.67,4.21c3.53.4,12.68-4.58,13.67,1,.34,1.9,3.23,1.1,2.89-.79-.5-2.84-2.92-4.51-5.71-4.83-3.44-.39-11.88,4.27-13.62-.38-.68-1.79-3.58-1-2.9.8Z" transform="translate(-63 -123.55)"/><path class="cls-43" d="M372.17,166.38c-1.76,4.7-10.18,0-13.62.38-2.79.33-5.21,2-5.71,4.83-.34,1.88,2.55,2.69,2.89.79,1-5.58,10.14-.59,13.67-1a6.38,6.38,0,0,0,5.67-4.21c.68-1.81-2.22-2.59-2.9-.8Z" transform="translate(-63 -123.55)"/><path class="cls-43" d="M609.17,167.38c-1.76,4.7-10.18,0-13.62.38-2.79.33-5.21,2-5.71,4.83-.34,1.88,2.55,2.69,2.89.79,1-5.58,10.14-.59,13.67-1a6.38,6.38,0,0,0,5.67-4.21c.68-1.81-2.22-2.59-2.9-.8Z" transform="translate(-63 -123.55)"/><path class="cls-43" d="M859.17,162.38c-1.76,4.7-10.18,0-13.62.38-2.79.33-5.21,2-5.71,4.83-.34,1.88,2.55,2.69,2.89.79,1-5.58,10.14-.59,13.67-1a6.38,6.38,0,0,0,5.67-4.21c.68-1.81-2.22-2.59-2.9-.8Z" transform="translate(-63 -123.55)"/><path class="cls-43" d="M1106.17,165.38c-1.76,4.7-10.18,0-13.62.38-2.79.33-5.21,2-5.71,4.83-.34,1.88,2.55,2.69,2.89.79,1-5.58,10.14-.59,13.67-1a6.38,6.38,0,0,0,5.67-4.21c.68-1.81-2.22-2.59-2.9-.8Z" transform="translate(-63 -123.55)"/></svg>