<?xml version="1.0" encoding="utf-8"?>
<!-- Generator: Adobe Illustrator 22.1.0, SVG Export Plug-In . SVG Version: 6.00 Build 0)  -->
<svg version="1.1" id="Layer_1" xmlns="http://www.w3.org/2000/svg" xmlns:xlink="http://www.w3.org/1999/xlink" x="0px" y="0px"
	 viewBox="0 0 841.9 595.3" style="enable-background:new 0 0 841.9 595.3;" xml:space="preserve">
<style type="text/css">
	.st0{fill:#010101;stroke:#010101;stroke-miterlimit:10;}
	.st1{fill:#3DB54A;stroke:#7FC347;stroke-width:2;stroke-miterlimit:10;}
	.st2{fill:#8D633A;stroke:#754D25;stroke-miterlimit:10;}
	.st3{fill:#8D633A;stroke:#8D633A;stroke-width:2;stroke-miterlimit:10;}
	.st4{fill:#F9CADE;stroke:#EC2227;stroke-width:2;stroke-miterlimit:10;}
	.st5{fill:#3DB54A;stroke:#010101;stroke-width:2;stroke-miterlimit:10;}
	.st6{fill:#3A53A4;stroke:#3A53A4;stroke-miterlimit:10;}
	.st7{fill:#C1282D;stroke:#010101;stroke-width:2;stroke-miterlimit:10;}
	.st8{fill:#F9CADE;stroke:#EE2D30;stroke-width:2;stroke-miterlimit:10;}
	.st9{fill:#C1282D;stroke:#412312;stroke-width:2;stroke-miterlimit:10;}
	.st10{fill:#F6EB16;stroke:#010101;stroke-miterlimit:10;}
	.st11{fill:#F9CADE;stroke:#010101;stroke-miterlimit:10;}
	.st12{fill:#603A17;}
	.st13{fill:#FFFFFF;}
	.st14{fill:#EE2D30;}
	.st15{fill:#754D25;}
	.st16{fill:#6ABD45;}
	.st17{fill:#24B574;}
	.st18{fill:none;stroke:#046937;stroke-width:2;stroke-miterlimit:10;}
	.st19{fill:#F79226;}
	.st20{fill:#F6EB16;}
	.st21{fill:#D9E026;}
	.st22{fill:#7FC347;}
	.st23{fill:#3A53A4;}
</style>
<path class="st0" d="M424.5,522.4"/>
<polygon class="st1" points="279.1,186.5 348.5,186.5 349,377.3 279.1,377.1 "/>
<ellipse class="st2" cx="361.6" cy="543.7" rx="31.2" ry="20.6"/>
<ellipse class="st3" cx="254.1" cy="542.5" rx="32.7" ry="21.6"/>
<ellipse class="st4" cx="246.3" cy="107.4" rx="12.7" ry="13.1"/>
<ellipse class="st4" cx="381.8" cy="106.3" rx="12.7" ry="13.1"/>
<polygon class="st5" points="274.3,161.1 254.8,176.6 300,213 314.3,176.6 "/>
<polygon class="st5" points="354.4,161.1 373.8,176.6 328.6,213 314.3,176.6 "/>
<polygon class="st6" points="305.3,199.5 314.3,220.7 323.3,199.5 314.3,176.6 "/>
<polygon class="st6" points="313.4,220.1 292.6,306.2 315.2,333 337.7,309 "/>
<circle class="st4" cx="313.8" cy="116.6" r="59.5"/>
<polyline class="st7" points="279.6,199.5 279.6,377.6 220.2,378.7 220.2,187.1 254.3,176.1 "/>
<polyline class="st7" points="349,199.2 349,377.3 414,378.4 414,186.8 376.7,175.7 "/>
<circle class="st0" cx="293.7" cy="116.5" r="7.3"/>
<circle class="st0" cx="332.3" cy="116.5" r="7.3"/>
<path class="st8" d="M305,140.1c0,0,30.8-25.2,5.4-23.6"/>
<polygon class="st7" points="250.4,378.2 369.4,378.2 394.7,530.2 311,530.2 309.9,428.8 301.1,530.2 215.2,530.2 "/>
<polyline class="st7" points="219.6,186.5 164.5,286.7 229.5,338.5 254.8,318.7 209.7,284.5 219.6,243.8 "/>
<polyline class="st9" points="414.5,186.5 469.6,286.7 404.7,338.5 379.4,318.7 424.5,284.5 414.5,243.8 "/>
<path class="st6" d="M279.1,377.1"/>
<path class="st10" d="M254.8,359.4"/>
<path class="st10" d="M254.8,359.4"/>
<path class="st11" d="M261.5,351.7"/>
<path class="st0" d="M268,304.1c22.4,75.7-47.3,37.8-47.3,37.8"/>
<path class="st0" d="M366.1,304.1c-22.4,75.7,47.3,37.8,47.3,37.8"/>
<g>
	<g>
		<path class="st12" d="M281.2,107.8c0.7-6.7,9.2-7.2,14.3-7.5c4.1-0.3,8.1-0.8,11.5-3.3c1.6-1.1,0.1-3.7-1.5-2.6
			c-7.7,5.5-25.9-0.2-27.3,13.4C278,109.8,281,109.8,281.2,107.8L281.2,107.8z"/>
	</g>
</g>
<g>
	<g>
		<path class="st12" d="M347.3,106.7c-1.4-13.6-19.6-7.9-27.3-13.4c-1.6-1.1-3.1,1.5-1.5,2.6c3.5,2.5,7.4,3,11.5,3.3
			c5.1,0.4,13.6,0.8,14.3,7.5C344.5,108.6,347.5,108.7,347.3,106.7L347.3,106.7z"/>
	</g>
</g>
<g>
	<path class="st13" d="M292.2,156.2c0.6-3.3,3.3-6,6.3-7.5c3-1.5,6.5-2,9.8-2.5c5-0.7,10.1-1.4,15-0.2c4.9,1.2,9.5,4.9,10.2,9.9
		c0,0.2,0.1,0.5,0,0.7c-0.2,0.5-0.7,0.6-1.2,0.6c-7.8,1-15.5,2-23.3,3c-5.8,0.8-12.9,1.1-16.5-3.6"/>
	<g>
		<path class="st14" d="M293.7,156.6c2.2-8.3,13.2-9,20.3-9.6c3.4-0.3,7-0.3,10.2,0.9c2.3,0.8,9.1,5.1,6.8,7.6
			c-1.5,1.6-7.4,1.3-9.5,1.6c-3.6,0.5-7.1,0.9-10.7,1.4c-5.8,0.7-12.9,2-17.3-2.9c-1.3-1.4-3.4,0.7-2.1,2.1c6.3,7,17.2,4.1,25.3,3
			c3.2-0.4,6.5-0.8,9.7-1.2c2.1-0.3,5,0,6.9-1c2.3-1.1,1.7-3.5,0.8-5.5c-3.5-8.2-13.4-9.6-21.2-8.8c-8.5,0.8-19.6,2-22.3,11.7
			C290.3,157.7,293.2,158.5,293.7,156.6L293.7,156.6z"/>
	</g>
</g>
<g>
	<g>
		<path class="st14" d="M288.8,92.6c9.6,3.2,17.4-8.3,26.6-4.8c1.8,0.7,2.6-2.2,0.8-2.9c-9.6-3.7-17.3,7.9-26.6,4.8
			C287.8,89.1,287,92,288.8,92.6L288.8,92.6z"/>
	</g>
</g>
<g>
	<g>
		<path class="st14" d="M305.2,81c6.2-2.6,13.2-1.8,18.5,2.4c1.5,1.2,3.6-0.9,2.1-2.1c-6.1-4.9-14.1-6.3-21.4-3.2
			C302.6,78.9,303.4,81.8,305.2,81L305.2,81z"/>
	</g>
</g>
<g>
	<path class="st15" d="M315.8,68.8c0.3-6.4,0.6-12.9,0.9-19.3c0.1-2.3,0-5-1.8-6.3c-1.8-1.3-4.2-0.6-6.4-0.7
		c-6-0.2-10.1-5.9-13.2-11.1c-3.5,6.3-13.1,8.2-18.6,3.6c-1.8-1.5-3.5-3.7-5.9-3.8c-3-0.2-4.9,2.9-6.6,5.3s-4.9,4.9-7.4,3.2
		c-1.4-1-1.8-2.9-3-4c-2.5-2.4-6.6-0.5-9.4,1.5c-3.3,2.3-6.6,4.5-9.9,6.8c-3,2-6.2,4.4-6.9,7.9c-0.6,3,0.9,6.3,3.6,7.6
		s6.3,0.8,8.3-1.4c0.6,6.2-3.7,11.7-7.8,16.4c1.5-0.6,3.1-1.3,4.6-1.9c0.4,4.4-0.7,8.9-3.1,12.6c1.1-0.7,2.1-1.5,3.2-2.2
		c3.5,5.2,0,12.4,2,18.3c1.3,3.8,4.9,6.6,8.9,6.9s8-1.9,9.9-5.4c2-3.7,1.6-8.2,3.1-12.1c2.4-6.1,8.8-9.4,14.7-12.2
		c12.2-5.7,25.8-11.6,38.8-8.1"/>
	<g>
		<path class="st15" d="M318.8,68.8c0.3-5.5,0.5-10.9,0.8-16.4c0.2-3.7,0.7-8-2.1-10.9c-2.6-2.7-5.6-1.6-8.9-2
			c-5.1-0.6-8.2-5.6-10.6-9.6c-1.2-2-4-1.9-5.2,0c-3,4.9-9.7,6.1-14.3,2.6c-3.4-2.6-6.5-5.8-11.1-3.5c-1.8,0.9-3,2.3-4.2,3.8
			c-0.7,0.9-2.1,3.7-3.3,3.9c-1.6,0.4-2.3-1.2-3.1-2.2c-2.6-3.3-6.5-3.5-10.3-1.9c-5.2,2.2-10.1,6.2-14.6,9.5
			c-3.4,2.4-6.7,5.4-7.3,9.7c-1.3,9.9,10.2,14.4,17.1,8.3c-1.7-0.7-3.4-1.4-5.1-2.1c0.2,5.7-3.4,10.1-6.9,14.3c-1.7,2-0.1,6.3,2.9,5
			c1.5-0.6,3.1-1.3,4.6-1.9c-1.3-1-2.5-1.9-3.8-2.9c0.2,4.1-0.6,7.5-2.7,11.1c-1.5,2.5,1.6,5.8,4.1,4.1c1.1-0.7,2.1-1.5,3.2-2.2
			c-1.4-0.4-2.7-0.7-4.1-1.1c2.5,4.5,0.5,9.9,1.1,14.8c0.5,4,2.5,7.5,5.9,9.7c6.6,4.4,15.8,1.8,19.2-5.4c2.1-4.4,1.3-9.7,4-13.8
			c2.8-4.3,7.9-6.5,12.4-8.6c11.3-5.4,23.8-10.8,36.5-7.8c3.8,0.9,5.4-4.9,1.6-5.8c-9.9-2.4-19.6-0.5-28.9,3.1
			c-8.1,3.1-17.9,6.6-24.1,12.9c-2.8,2.9-4.4,6.3-5.1,10.2c-1,5.1-1.9,11.8-8.7,11.4c-6.4-0.4-7.1-6.8-6.8-11.8
			c0.2-4.3,0.2-8.1-1.9-11.9c-0.8-1.3-2.8-2-4.1-1.1c-1.1,0.7-2.1,1.5-3.2,2.2c1.4,1.4,2.7,2.7,4.1,4.1c2.6-4.4,3.7-9,3.5-14.1
			c-0.1-1.7-1.9-3.7-3.8-2.9c-1.5,0.6-3.1,1.3-4.6,1.9c1,1.7,1.9,3.3,2.9,5c4.6-5.4,9-11.1,8.7-18.5c-0.1-2.7-3.2-3.8-5.1-2.1
			c-2.5,2.2-7.1,1-7-2.8c0-2.8,3-4.8,5-6.2c3.6-2.6,7.3-5.2,11.1-7.5c3-1.9,4.2-1.8,6.9,1c1,1,1.7,1.9,3.1,2.4
			c2.8,1.1,5.6,0,7.8-1.9c1.2-1,2-2.2,2.9-3.4c2-2.7,4.3-3,6.9-0.9c2.4,2,4.9,3.3,8,3.8c6.3,0.9,12.5-2,15.9-7.4c-1.7,0-3.5,0-5.2,0
			c3.3,5.4,7.4,11.3,14.1,12.4c1.3,0.2,3.3-0.3,4.4,0.1c3.7,1.2,2.5,5.2,2.4,7.9c-0.2,5.1-0.5,10.3-0.7,15.4
			C312.6,72.7,318.6,72.7,318.8,68.8L318.8,68.8z"/>
	</g>
</g>
<g>
	<path class="st15" d="M315.5,44.7c4-5.4,8-10.7,12.1-16.1c1.2-1.6,2.5-3.3,4.4-4c3.1-1.3,6.8,0.3,8.9,2.9s2.9,5.8,3.6,9
		c1.9-2,5.3,0.5,6.4,3c1.1,2.5,2.5,5.7,5.4,5.6c0.9,0,1.8-0.5,2.6-0.9c3-1.6,6.1-3.1,9.1-4.7c0.2,3.9,4.7,6.4,8.7,6.2
		s7.5-2.5,10.9-4.6c3.3-2.1,6.9-4.3,10.9-4.5c3,2.6,1.9,7.1,1.2,10.9c-0.7,3.8,0.4,9,4.3,9.3c0.9,0.1,2-0.1,2.8,0.3
		c1.9,1,0.7,3.7-0.6,5.3c-2.7,3.3-5.3,6.6-8,9.9c3.2,1,6.5,1.9,9.7,2.9c1,0.3,2.1,0.7,2.6,1.5c1.4,2.4-2.6,4.1-5.2,5.1
		c-5.8,2.3-8.2,10.3-4.6,15.2c-5.4-1.4-10.9-2.7-16.3-4.1c-0.9-0.2-1.9-0.4-2.6,0.1c-0.7,0.5-1,1.3-1.1,2.2
		c-1.5,6.7-3,13.5-4.5,20.2c-6.9-2.6-11.9-9.5-12-16.6c0-2.5,0-5.9-2.5-6.7c-1.2-0.4-2.5,0-3.6-0.5c-1-0.4-1.6-1.5-2.1-2.4
		c-1.9-3.6-3.8-7.2-5.7-10.8c-0.7-1.3-1.5-2.7-2.9-3.4c-0.9-0.5-2-0.5-3.1-0.5c-10.3-0.3-20.6-0.6-30.9-1"/>
	<g>
		<path class="st15" d="M318.1,46.2c3.5-4.6,6.9-9.2,10.4-13.9c2-2.7,4.8-6.9,8.7-4.2c2.8,2,3.6,6,4.4,9.1c0.4,1.8,2.8,2.8,4.4,1.8
			c1.4-0.9,4,5.3,4.7,6.2c1.1,1.3,2.3,2.3,4,2.7c4.8,1.1,10.7-3.7,14.7-5.8c-1.5-0.6-2.9-1.2-4.4-1.8c1,5.4,6.3,8.5,11.6,8.4
			c3.4-0.1,6.6-1.6,9.5-3.2c2.4-1.3,9.8-7.6,11.2-4.1c0.9,2.3-1,6.6-0.8,9.1c0.1,2.4,0.8,4.8,2.3,6.7c0.7,0.9,1.5,1.5,2.6,2
			c0.5,0.2,2.6,0.4,2.8,0.7c0.5,0.7-7,9.1-8,10.4c-1.4,1.7-1,4.3,1.3,5c2.2,0.6,4.3,1.3,6.5,1.9c1.1,0.3,2.2,0.6,3.2,1
			c0.5-0.9,0.2-0.8-1,0.1c-2.7,1.6-5.1,2.2-7.2,4.7c-3.7,4.5-4,10.8-0.9,15.7c1.1-1.5,2.3-2.9,3.4-4.4c-4.8-1.2-9.6-2.5-14.5-3.6
			c-2.5-0.6-5.2-1.4-7.4,0.4c-2.4,1.9-2.5,6.3-3.1,9c-1.1,4.9-2.2,9.8-3.2,14.7c1.2-0.7,2.5-1.4,3.7-2.1c-4-1.7-7.3-4.9-8.8-8.9
			c-1.2-3-0.6-6-1.3-9c-0.5-2.2-1.6-4.1-3.6-5.1c-1.8-0.8-3.1-0.2-4.7-1.9c-1.2-1.3-2-3.8-2.8-5.4c-1.5-2.9-2.8-6.6-5.3-8.8
			c-2.6-2.3-5.8-2-9-2.1c-9.3-0.3-18.6-0.6-28-0.9c-3.9-0.1-3.9,5.9,0,6c9,0.3,18,0.6,27,0.8c3.2,0.1,5.1,0,7.2,2.6
			c1,1.3,1.7,3.2,2.4,4.6c1.4,2.7,2.7,6.5,4.9,8.6c2.3,2.1,5.2,1.1,6.1,4.6c0.8,3,0.4,5.8,1.7,8.9c2.4,5.6,6.9,9.5,12.5,11.8
			c1.4,0.6,3.4-0.7,3.7-2.1c0.7-3.1,1.4-6.1,2-9.2c0.6-2.5,0.7-8.1,2.2-10.1c1.1-1.5-1.4-1.3,2.1-0.6c1.5,0.3,3,0.8,4.5,1.1
			c3.3,0.8,6.6,1.7,10,2.5c2.4,0.6,4.8-2.1,3.4-4.4c-2.6-4.1-1-8.8,3.2-11c2.6-1.3,5.8-2.2,7-5.2c2.7-7.2-10.2-8.7-14.4-10
			c0.4,1.7,0.9,3.3,1.3,5c2.8-3.5,6-6.8,8.4-10.5c1.3-1.9,2.5-4.5,1.6-6.9c-1.4-3.8-5.1-1.8-7.3-4.1c-2-2-0.1-7.1,0.1-9.4
			c0.5-6.3-2.2-11.3-9-9.3c-5,1.5-21.5,15.1-23.4,4.4c-0.4-2-2.8-2.6-4.4-1.8c-2.6,1.3-6.3,4.3-9.1,4.7c-2.9,0.4-3.3-3.2-4.7-5
			c-2.3-3.1-6.1-5-9.7-2.7c1.5,0.6,2.9,1.2,4.4,1.8c-1.7-7.1-6.4-16.7-15.5-14.1c-3.9,1.1-6.2,4.7-8.5,7.8c-3.5,4.6-7,9.2-10.4,13.9
			C310.6,46.3,315.8,49.3,318.1,46.2L318.1,46.2z"/>
	</g>
</g>
<path class="st8" d="M611.9,476.2l-8.8,24.6L596,531l-3.5,8.5h-28.2c-0.3-20.1-0.6-40.2-0.9-60.3
	C579.6,478.2,595.7,477.2,611.9,476.2z"/>
<polygon class="st8" points="511.4,316.7 497.8,322.8 485,333.2 477,345.4 472.2,361.1 469,379.3 469,394.1 473,407.2 479.4,417.7 
	490.6,429 511.4,417.7 501,402 495.4,385.4 497,367.2 501,359.3 "/>
<path class="st8" d="M505.7,471.8l8.8,24.6l7.1,30.3l3.5,8.5h28.2c0.3-20.1,0.6-40.2,0.9-60.3C538.1,473.8,521.9,472.8,505.7,471.8z
	"/>
<ellipse class="st6" cx="529.8" cy="539.5" rx="27.1" ry="17.9"/>
<ellipse class="st6" cx="590.9" cy="539.5" rx="27.1" ry="17.9"/>
<polygon class="st4" points="585.8,314.8 602.5,320.2 618.3,329.8 628.3,341.3 634.6,356.3 639,373.9 639.4,388.2 634.9,400.9 
	627.4,411.2 614.1,422.5 588.6,412.3 600.8,396.8 607.1,380.7 604.7,363.1 599.6,355.6 "/>
<g>
	<path class="st16" d="M509.1,311.7l8.4,11.1l7.6,4.6h5.9h8.4h9.3h12.7c2.5-0.9,5.1-1.9,7.6-2.8c2-1.5,3.9-3.1,5.9-4.6l5.1-8.4
		l8.4-8.4l16.9,86.3l27.9,70.5l-4.2,8.4l-9.3,8.4c-6.5,1.5-13,3.1-19.4,4.6c-6.8-0.4-13.5-0.8-20.3-1.1l-23.7,0.2h-25.2l-18.8-3.7
		l-14.4-4.6l-16.9-9.3l5.9-31.6c2.8-12.1,5.6-24.1,8.4-36.2c2-9.6,3.9-19.2,5.9-28.8c0.3-2.8,0.6-5.6,0.8-8.4
		C504.6,342.6,506.9,327.1,509.1,311.7z"/>
	<path class="st17" d="M509.1,311.7l8.4,11.1l7.6,4.6h5.9h8.4h9.3h12.7c2.5-0.9,5.1-1.9,7.6-2.8c2-1.5,3.9-3.1,5.9-4.6l5.1-8.4
		l8.4-8.4l16.9,86.3l27.9,70.5l-4.2,8.4l-9.3,8.4c-6.5,1.5-13,3.1-19.4,4.6c-6.8-0.4-13.5-0.8-20.3-1.1l-23.7,0.2h-25.2l-18.8-3.7
		l-14.4-4.6l-16.9-9.3l5.9-31.6c2.8-12.1,5.6-24.1,8.4-36.2c2-9.6,3.9-19.2,5.9-28.8c0.3-2.8,0.6-5.6,0.8-8.4
		C504.6,342.6,506.9,327.1,509.1,311.7z"/>
	<path class="st18" d="M509.1,311.7l8.4,11.1l7.6,4.6h5.9h8.4h9.3h12.7c2.5-0.9,5.1-1.9,7.6-2.8c2-1.5,3.9-3.1,5.9-4.6l5.1-8.4
		l8.4-8.4l16.9,86.3l27.9,70.5l-4.2,8.4l-9.3,8.4c-6.5,1.5-13,3.1-19.4,4.6c-6.8-0.4-13.5-0.8-20.3-1.1l-23.7,0.2h-25.2l-18.8-3.7
		l-14.4-4.6l-16.9-9.3l5.9-31.6c2.8-12.1,5.6-24.1,8.4-36.2c2-9.6,3.9-19.2,5.9-28.8c0.3-2.8,0.6-5.6,0.8-8.4
		C504.6,342.6,506.9,327.1,509.1,311.7z"/>
</g>
<ellipse class="st4" cx="491.7" cy="278.6" rx="12.7" ry="13.1"/>
<ellipse class="st4" cx="607.5" cy="280" rx="12.7" ry="13.1"/>
<ellipse class="st4" cx="548.5" cy="283.5" rx="51" ry="51.1"/>
<circle class="st0" cx="526.6" cy="283.6" r="7.3"/>
<circle class="st0" cx="565.7" cy="283.6" r="7.3"/>
<path class="st8" d="M545.7,298.5c0,0,14-16.5,0-12.7"/>
<g>
	<g>
		<path class="st19" d="M519.3,299.8c1.9,0,1.9-3,0-3C517.3,296.8,517.3,299.8,519.3,299.8L519.3,299.8z"/>
	</g>
</g>
<g>
	<g>
		<path class="st19" d="M530.2,299.8c1.9,0,1.9-3,0-3C528.3,296.8,528.3,299.8,530.2,299.8L530.2,299.8z"/>
	</g>
</g>
<g>
	<g>
		<path class="st19" d="M523.6,308.1c1.9,0,1.9-3,0-3C521.7,305.1,521.7,308.1,523.6,308.1L523.6,308.1z"/>
	</g>
</g>
<g>
	<g>
		<path class="st19" d="M577.4,299.8c1.9,0,1.9-3,0-3C575.5,296.8,575.5,299.8,577.4,299.8L577.4,299.8z"/>
	</g>
</g>
<g>
	<g>
		<path class="st19" d="M566.9,299.8c1.9,0,1.9-3,0-3C565,296.8,565,299.8,566.9,299.8L566.9,299.8z"/>
	</g>
</g>
<g>
	<g>
		<path class="st19" d="M572.1,308.5c1.9,0,1.9-3,0-3C570.2,305.5,570.2,308.5,572.1,308.5L572.1,308.5z"/>
	</g>
</g>
<g>
	<path class="st20" d="M595.5,247.4c2.5-1.7,2.4-5.7,0.3-7.8c-2.1-2.2-5.5-2.8-8.5-2.5c-1.8,0.2-3.8,0.5-5.1-0.6
		c-1.4-1.2-1.2-3.3-2.1-4.8c-1.3-2.1-4.3-2.5-6.6-1.6c-2.3,0.9-4,2.8-5.6,4.6c-0.6-4.4-5.6-7.1-10.2-7.3c-4.6-0.2-9.1,1.3-13.6,2
		s-9.7,0.4-12.9-2.8c0.1,3.4-4.1,5.4-7.6,5.8c-3.5,0.4-7.5,0.3-10.1,2.7c-2.8,2.6-2.9,7.3-6.1,9.5c-1.6,1.1-3.8,1.3-5,2.8
		c-0.7,0.8-0.9,1.9-1.2,2.9c-0.8,3.5-1.7,6.9-2.5,10.4c0.2,0.1,0.4,0.3,0.6,0.5c0.2,0.2,0.3,0.3,0.4,0.5l0.8-1c-0.4,2.8,3,5,5.9,4.8
		c2.9-0.2,5.5-2,8-3.5c0.6-0.4,1.3-0.8,2.1-0.8c3.4-0.2,3.5,5.4,6.5,7.1c5.2,2.9,9.1-8.9,14.9-7.3c2.4,0.7,4.3,3.6,6.6,2.7
		c1-0.4,1.5-1.5,2.3-2.2c3-2.6,7.4,0.6,10,3.5c3-2.2,5.9-4.5,8.9-6.7c0.4,4,7.6,4.9,9,1.1c1.7,1.7,3.4,3.5,5.2,5.2
		c1.7-4.1,8.3-5.3,11.5-2.1c0.9,0.9,1.5,2,2.5,2.7c1.1,0.9,2.6,1.2,4.1,1.5c2.4,0.5,4.9,0.9,7.3,1.4c0.7,0.1,1.4,0.2,2,0
		c0.9-0.4,1.1-1.5,1.2-2.5c0.5-4,1-8,1.4-12C604.7,252.1,599.9,250.1,595.5,247.4z"/>
	<g>
		<path class="st19" d="M596.6,248.5c2.5-2.2,3-5.8,1.3-8.7c-2-3.3-6.3-4.3-9.9-4.1c-1.9,0.1-4.1-0.2-5.5-1.8
			c-0.5-0.6-0.5-2.2-1-2.9c-0.9-1.4-2.2-2.2-3.8-2.6c-4.5-1.1-8,2.3-10.8,5.3c0.8,0.2,1.7,0.4,2.5,0.7c-4.3-17.2-27.7-0.8-37.1-8.7
			c-1.1-0.9-2.4-0.2-2.6,1.1c-0.5,3.8-5.7,4.3-8.4,4.6c-1.9,0.2-3.9,0.3-5.7,1c-3.2,1.2-4.7,3.5-6.1,6.5c-1.3,2.8-2.3,4.2-5.2,5.7
			c-1.2,0.6-2.3,1-3.1,2.1c-2.7,3.3-3,9.7-3.9,13.8c-0.1,0.5,0,1.1,0.4,1.5c0.4,0.3,0.7,0.6,1,1c0.5,0.6,1.6,0.6,2.1,0
			c0.3-0.3,0.5-0.7,0.8-1c-0.9-0.4-1.7-0.7-2.6-1.1c0.3,5.6,6.2,7.2,10.8,5.5c1.8-0.6,3.6-2.6,5.3-2.9c2.9-0.5,3.3,1.6,4.5,3.4
			c1.1,1.7,2.5,3.3,4.7,3.5c5.3,0.4,7-6.6,11.5-7.7c3.1-0.8,5,3,8,2.8c1.5-0.1,1.9-1,3-1.6c3.9-1.9,6.2-0.6,9,2.3
			c0.4,0.4,1.3,0.6,1.8,0.2c3-2.2,5.9-4.5,8.9-6.7c-0.7-0.3-1.5-0.6-2.2-0.9c1.3,5.4,9.1,6.3,11.8,1.5c-0.8,0.1-1.6,0.2-2.4,0.3
			c1.7,1.7,3.4,3.5,5.2,5.2c0.7,0.7,1.9,0.5,2.4-0.3c1.6-2.9,5.1-3.9,8-2.4c1.7,0.9,2.4,2.5,3.9,3.6c3,2.1,8.6,2.8,12.2,3.1
			c2.1,0.2,3.4-0.2,4.3-2.2c1.7-3.8,1.3-9.6,1.8-13.8c0.1-0.7-0.5-1.3-1.1-1.4c-4.9-1.4-9.4-3.4-13.8-5.9c-1.7-1-3.2,1.6-1.5,2.6
			c4.6,2.7,9.4,4.7,14.6,6.2c-0.4-0.5-0.7-1-1.1-1.4c-0.3,2.3-0.5,4.6-0.8,6.8c-0.2,1.3,0,3.4-0.6,4.6c0.2,1.2-0.3,1.6-1.7,1.2
			c-0.8,0.2-1.6,0.1-2.4-0.1c-2.5-0.3-5.3-0.8-7.4-2c-1.7-1-2.6-2.6-4.2-3.6c-4.3-2.8-10.3-1-12.7,3.3c0.8-0.1,1.6-0.2,2.4-0.3
			c-1.7-1.7-3.4-3.5-5.2-5.2c-0.7-0.7-1.9-0.5-2.4,0.3c-1.4,2.5-5.6,2.1-6.3-0.8c-0.2-0.9-1.4-1.5-2.2-0.9c-3,2.2-5.9,4.5-8.9,6.7
			c0.6,0.1,1.2,0.2,1.8,0.2c-1.9-2.1-4.4-4.3-7.3-4.8c-2.8-0.4-3.4,1.1-5.5,2c-3.5,1.6-4.8-1.7-8-1.8c-1.9-0.1-3.5,0.9-5,2
			c-1.9,1.5-3.8,4.7-6.1,5.5c-3.6,1.2-4.1-3.6-6.1-5.6c-1.4-1.5-3-1.8-4.9-1.2c-1.4,0.4-2.6,1.5-3.9,2.2c-2.5,1.3-8.9,3.6-9.1-1.5
			c-0.1-1.2-1.7-2.2-2.6-1.1c-0.3,0.3-0.5,0.7-0.8,1c0.7,0,1.4,0,2.1,0c-1-1.2,0.7-4.9,1-6.4c0.6-2.5,0.8-3.5,2.8-5.4
			c3.5-3.5,1-0.6,3.6-2.8c3-2.6,3.5-6.5,6.2-9.2c5-4.9,17.2-0.4,18.4-10.1c-0.9,0.4-1.7,0.7-2.6,1.1c4,3.4,8.9,3.9,14,3.2
			c6.7-0.9,19.9-5.7,22.3,4.2c0.3,1.1,1.8,1.5,2.5,0.7c1.1-1.3,2.5-2.9,4-3.7c3.4-1.8,4.7,0,6.8,3.2c0.9,1.4,1.1,2.4,2.8,3.2
			c1.5,0.7,3.2,0.3,4.8,0.2c3.4-0.1,13,2.6,7.2,7.7C593,247.6,595.1,249.7,596.6,248.5z"/>
	</g>
</g>
<g>
	<path class="st20" d="M500.3,261.8c-2.8,5-9.1,6.7-12.9,10.9c-5.7,6.4-3.1,18.2,4.8,21.5c-4.2,2.2-8,5.3-10.9,9
		c-1.8,2.3-3.4,5.2-2.9,8.1c0.9,4.8,6.6,6.7,11.3,7.7c-4.6,3.3-9.5,7.2-10.2,12.7c-0.7,5.2,3.3,10.6,8.5,11.4
		c-4.7,4.4-8.4,9.9-10.8,15.9c0.8-5.5,4-10.7,8.7-13.9c2.5,5.1,5.1,10.2,7.6,15.2c0.2-5.6-2.1-11.3-6.2-15.2
		c6,3.7,12.1,7.4,18.1,11.1c-5.3-3.4-10.5-6.8-15.8-10.3c-1-0.6-2.1-1.6-1.9-2.7c0.1-0.9,1-1.5,1.8-2.1c3.7-2.7,5.9-7.3,5.7-11.9
		s-2.9-9-6.8-11.3c3-0.4,5.3-3,6.3-5.8c1-2.8,0.9-5.9,0.8-8.9c-0.1-2.8-0.2-5.5-0.3-8.3c0-0.7-0.1-1.5-0.7-1.8
		c-0.6-0.3-1.4,0.8-0.8,1c5.8-1.3,9.9-7.1,10.7-13c0.8-5.9-1.3-11.9-4.2-17.1"/>
	<g>
		<path class="st19" d="M499,261.1c-4.6,7.1-14.4,8.2-16,17.6c-1.1,6.8,2.2,13.8,8.4,16.9c0-0.9,0-1.7,0-2.6
			c-5.8,3.2-14.5,9.5-14.7,17c-0.2,6.8,7.1,9.4,12.5,10.6c-0.1-0.9-0.2-1.8-0.4-2.7c-4.9,3.6-10.7,8-11,14.7
			c-0.3,5.9,4.1,10.9,9.7,12.2c-0.2-0.8-0.4-1.7-0.7-2.5c-4.8,4.7-8.5,10-11.1,16.2c0.9,0.4,1.8,0.8,2.7,1.2c1-5.4,3.6-9.7,8-13
			c-0.7-0.2-1.4-0.4-2.1-0.5c2.5,5.1,5.1,10.2,7.6,15.2c0.7,1.4,2.8,0.7,2.8-0.8c0-6.3-2.2-11.7-6.6-16.3c-0.6,0.8-1.2,1.6-1.8,2.4
			c6,3.7,12.1,7.4,18.1,11.1c1.7,1,3.1-1.5,1.5-2.6c-4.5-2.9-10.3-5.6-14.2-9.2c-1.6-1.5-2.2-2-0.8-3.9c0.6-1,1.9-1.8,2.6-2.8
			c0.9-1.2,1.6-2.6,2.1-4c2.5-7-0.6-14.2-6.7-18.2c-0.1,0.9-0.2,1.8-0.4,2.7c8.2-2,8.3-10.9,8.1-17.8c-0.1-2.4,0.8-7.2-1.1-9.1
			c-1.3-1.3-2.6-0.9-3.7,0.5c-0.3,0.4-0.2,1.1,0,1.5c0.1,0.2,0.2,0.3,0.2,0.5c0.3,0.6,1.1,0.9,1.7,0.7c14.7-4.3,13.2-21.4,7.3-32.3
			c-0.9-1.7-3.5-0.2-2.6,1.5c4.9,9,7.2,24.1-5.5,27.8c0.6,0.2,1.1,0.5,1.7,0.7c-0.7-1.3-1.1,6.2-1.1,6.5c0.1,1.7,0.2,3.4,0.2,5.1
			c0,4.7-0.6,10.1-6,11.4c-1.3,0.3-1.4,2.1-0.4,2.7c5.1,3.4,7.5,9.5,5,15.3c-1.1,2.7-2.9,3.9-4.8,5.9c-0.7,0.7-1.6,1.5-1.7,2.7
			c-0.2,2.5,2.5,3.9,4.3,5.1c4.7,3.1,9.5,6.2,14.2,9.2c0.5-0.9,1-1.7,1.5-2.6c-6-3.7-12.1-7.4-18.1-11.1c-1.5-0.9-3,1.1-1.8,2.4
			c3.8,4,5.7,8.7,5.7,14.1c0.9-0.3,1.9-0.5,2.8-0.8c-2.5-5.1-5.1-10.2-7.6-15.2c-0.3-0.7-1.4-1-2.1-0.5c-5,3.7-8.2,8.6-9.4,14.8
			c-0.3,1.5,2,2.8,2.7,1.2c2.5-5.9,6-11.1,10.6-15.6c0.8-0.8,0.4-2.2-0.7-2.5c-5.5-1.3-8.8-6.6-6.8-12c1.5-4.1,5.4-6.9,8.9-9.4
			c1-0.7,1-2.4-0.4-2.7c-5.3-1.2-13-4-9.2-11.1c2.5-4.8,7.4-8.4,12.1-11c0.9-0.5,1-2.1,0-2.6c-6.6-3.2-9.4-12.2-5-18.4
			c3.6-5.1,10.2-6.6,13.7-12C502.7,261,500.1,259.5,499,261.1L499,261.1z"/>
	</g>
</g>
<g>
	<path class="st20" d="M598.5,267.1c2.8,5,9.1,6.7,12.9,10.9c5.7,6.4,3.1,18.2-4.8,21.5c4.2,2.2,8,5.3,10.9,9
		c1.8,2.3,3.4,5.2,2.9,8.1c-0.9,4.8-6.6,6.7-11.3,7.7c4.6,3.3,9.5,7.2,10.2,12.7c0.7,5.2-3.3,10.6-8.5,11.4
		c4.7,4.4,8.4,9.9,10.8,15.9c-0.8-5.5-4-10.7-8.7-13.9c-2.5,5.1-5.1,10.2-7.6,15.2c-0.2-5.6,2.1-11.3,6.2-15.2
		c-6,3.7-12.1,7.4-18.1,11.1c5.3-3.4,10.5-6.8,15.8-10.3c1-0.6,2.1-1.6,1.9-2.7c-0.1-0.9-1-1.5-1.8-2.1c-3.7-2.7-5.9-7.3-5.7-11.9
		s2.9-9,6.8-11.3c-3-0.4-5.3-3-6.3-5.8s-0.9-5.9-0.8-8.9c0.1-2.8,0.2-5.5,0.3-8.3c0-0.7,0.1-1.5,0.7-1.8c0.6-0.3,1.4,0.8,0.8,1
		c-5.8-1.3-9.9-7.1-10.7-13s1.3-11.9,4.2-17.1"/>
	<g>
		<path class="st19" d="M597.2,267.8c3.5,5.4,10.1,7,13.7,12c4.4,6.2,1.6,15.2-5,18.4c-1,0.5-0.9,2.1,0,2.6c4.6,2.5,9.5,6.2,12.1,11
			c3.8,7-3.8,9.9-9.2,11.1c-1.4,0.3-1.3,2-0.4,2.7c3.4,2.5,7.3,5.3,8.9,9.4c2,5.4-1.3,10.7-6.8,12c-1.1,0.3-1.4,1.7-0.7,2.5
			c4.6,4.5,8.1,9.7,10.6,15.6c0.7,1.7,3,0.4,2.7-1.2c-1.2-6.2-4.4-11-9.4-14.8c-0.6-0.5-1.7-0.1-2.1,0.5c-2.5,5.1-5.1,10.2-7.6,15.2
			c0.9,0.3,1.9,0.5,2.8,0.8c0-5.5,1.9-10.2,5.7-14.1c1.2-1.2-0.3-3.3-1.8-2.4c-6,3.7-12.1,7.4-18.1,11.1c0.5,0.9,1,1.7,1.5,2.6
			c4.5-2.9,8.9-5.8,13.4-8.7c1.9-1.2,5.3-2.8,5.1-5.6c-0.2-2.9-4.6-4.9-6-7.4c-3.3-6-0.9-12.9,4.5-16.5c1-0.7,1-2.4-0.4-2.7
			c-5.3-1.3-6-6.8-6-11.4c0-1.7,0.1-3.4,0.2-5.1c0-0.6,0-1.1,0.1-1.7c0.3-1.7-0.1-3.4-1.2-4.9c0.6-0.2,1.1-0.5,1.7-0.7
			c-12.7-3.7-10.5-18.8-5.5-27.8c0.9-1.7-1.7-3.2-2.6-1.5c-5.9,10.8-7.4,28,7.3,32.3c0.6,0.2,1.4-0.1,1.7-0.7
			c0.1-0.2,0.2-0.3,0.2-0.5c0.2-0.4,0.3-1.1,0-1.5c-0.9-1.2-2-1.8-3.4-0.9c-2.3,1.5-1.3,7.3-1.4,9.5c-0.2,6.9-0.1,15.8,8.1,17.8
			c-0.1-0.9-0.2-1.8-0.4-2.7c-6,4-9.1,11.2-6.7,18.2c0.5,1.4,1.2,2.8,2.1,4c1.6,2.2,4.7,3.5,2.5,6.2c-1.5,1.9-5.1,3.3-7.1,4.6
			c-2.6,1.7-5.3,3.4-7.9,5.1c-1.6,1-0.1,3.6,1.5,2.6c6-3.7,12.1-7.4,18.1-11.1c-0.6-0.8-1.2-1.6-1.8-2.4c-4.3,4.5-6.6,10-6.6,16.3
			c0,1.4,2.1,2.1,2.8,0.8c2.5-5.1,5.1-10.2,7.6-15.2c-0.7,0.2-1.4,0.4-2.1,0.5c4.4,3.3,7,7.6,8,13c0.9-0.4,1.8-0.8,2.7-1.2
			c-2.6-6.2-6.3-11.5-11.1-16.2c-0.2,0.8-0.4,1.7-0.7,2.5c5.6-1.3,9.9-6.3,9.7-12.2c-0.3-6.7-6.1-11.1-11-14.7
			c-0.1,0.9-0.2,1.8-0.4,2.7c5.4-1.2,12.7-3.8,12.5-10.6c-0.2-7.5-8.8-13.8-14.7-17c0,0.9,0,1.7,0,2.6c6.2-3,9.5-10.1,8.4-16.9
			c-1.6-9.4-11.4-10.5-16-17.6C598.7,264.7,596.1,266.2,597.2,267.8L597.2,267.8z"/>
	</g>
</g>
<g>
	<g>
		<path class="st21" d="M494.4,408.9c19.6,0.4,39.2,0.8,58.8,1.2c18.9,0.3,37.7,0.2,56.4-2.6c3.8-0.6,2.2-6.4-1.6-5.8
			c-18.8,2.8-37.8,2.7-56.7,2.4c-18.9-0.4-37.9-0.8-56.8-1.1C490.5,402.9,490.5,408.9,494.4,408.9L494.4,408.9z"/>
	</g>
</g>
<g>
	<path class="st22" d="M522.3,404.4c-0.1,11.1,1.1,22.1,3.6,32.9c0.4,1.7,0.8,3.5,1.7,5c1.2,2,3.1,3.6,5,4.9
		c7.3,5.2,15.9,9.1,24.8,9.4c9,0.3,18.3-3.5,23.5-10.8c4.9-7.1,5.4-16.2,5.6-24.9c0.2-4.9,0.3-9.8,0.5-14.7c0-0.4,0-0.9-0.2-1.3
		c-0.4-0.6-1.2-0.6-1.9-0.6c-20.9,0.2-41.7,0.4-62.6,0.6"/>
	<g>
		<path class="st23" d="M519.3,404.4c0,8,0.6,15.9,1.8,23.8c1,6.5,1.7,14.2,6.7,19c9.4,9,24.4,14.3,37.3,11.8
			c13.3-2.6,21.6-12.8,23.6-25.9c1.1-7.4,1-14.9,1.2-22.3c0.1-2.3,0.8-5.7-0.7-7.7c-1.6-2.2-4.8-1.8-7.2-1.8
			c-19.9,0.2-39.8,0.4-59.7,0.5c-3.9,0-3.9,6,0,6c17-0.2,33.9-0.3,50.9-0.5c2,0,3.9,0,5.9-0.1c1.3,0,2.6,0,3.9,0
			c2-0.4,2.5-0.3,1.5,0.4c0.2,0.5-0.6,4.8-0.6,5.9c-0.1,1.8-0.1,3.7-0.2,5.5c-0.2,7.5-0.2,15.6-3.6,22.4
			c-7.7,15.2-27.3,13.9-40.2,6.8c-2.9-1.6-6.1-3.4-8.4-5.9c-3-3.2-3.4-9-4.2-13.1c-1.5-8.2-2.1-16.5-2-24.9
			C525.3,400.5,519.3,400.5,519.3,404.4L519.3,404.4z"/>
	</g>
</g>
<g>
	<g>
		<path class="st12" d="M558.2,276c5.1-5.1,13-4.4,17,1.7c1.1,1.6,3.7,0.1,2.6-1.5c-5-7.7-15.2-8.8-21.7-2.3
			C554.7,275.3,556.8,277.4,558.2,276L558.2,276z"/>
	</g>
</g>
<g>
	<g>
		<path class="st12" d="M537.4,274.8c-6.5-6.6-16.7-5.4-21.7,2.3c-1.1,1.6,1.5,3.1,2.6,1.5c4-6.1,11.9-6.8,17-1.7
			C536.6,278.3,538.7,276.1,537.4,274.8L537.4,274.8z"/>
	</g>
</g>
<g>
	<path class="st13" d="M530.2,308c12.1,1,24.4,1.9,36.5,0.1c0.4-0.1,1-0.1,1.3,0.2c0.3,0.2,0.4,0.6,0.4,1c0.3,3.5-2.8,6.4-5.8,8
		c-9.1,5-21.1,4.2-29.5-2.1c-1.9-1.4-3.8-3.4-3.8-5.8"/>
	<g>
		<path class="st14" d="M530.2,309.5c6.4,0.5,12.8,1,19.2,1.1c3.2,0,6.4,0,9.6-0.2c2.7-0.2,10.8-1.8,5.1,3.9
			c-3.9,4-11.3,5.1-16.6,4.6c-5.7-0.5-15.8-3.3-16.8-10c-0.3-1.9-3.2-1.1-2.9,0.8c1,7.3,10.7,10.9,17,11.9c7.1,1.1,15.7-0.2,21.3-5
			c2.9-2.5,6.4-9.7,0.3-10c-2.9-0.2-6.4,0.7-9.4,0.9c-2.9,0.1-5.8,0.1-8.6,0.1c-6.1-0.1-12.2-0.6-18.3-1.1
			C528.3,306.3,528.3,309.3,530.2,309.5L530.2,309.5z"/>
	</g>
</g>
</svg>
